<svg width="183" height="54" viewBox="0 0 183 54" fill="none" xmlns="http://www.w3.org/2000/svg">
<path d="M175.981 0H7.35161C3.62636 0 0.606445 3.02208 0.606445 6.75V47.25C0.606445 50.9779 3.62636 54 7.35161 54H175.981C179.706 54 182.726 50.9779 182.726 47.25V6.75C182.726 3.02208 179.706 0 175.981 0Z" fill="black"/>
<path d="M175.981 1.08C177.483 1.08 178.925 1.67737 179.987 2.7407C181.05 3.80404 181.647 5.24622 181.647 6.75V47.25C181.647 48.7538 181.05 50.196 179.987 51.2593C178.925 52.3226 177.483 52.92 175.981 52.92H7.35161C5.84891 52.92 4.40775 52.3226 3.34519 51.2593C2.28262 50.196 1.68567 48.7538 1.68567 47.25V6.75C1.68567 5.24622 2.28262 3.80404 3.34519 2.7407C4.40775 1.67737 5.84891 1.08 7.35161 1.08H175.981ZM175.981 0H7.35161C5.56268 0 3.84702 0.711159 2.58206 1.97703C1.31709 3.2429 0.606445 4.95979 0.606445 6.75V47.25C0.606445 49.0402 1.31709 50.7571 2.58206 52.023C3.84702 53.2888 5.56268 54 7.35161 54H175.981C177.77 54 179.485 53.2888 180.75 52.023C182.015 50.7571 182.726 49.0402 182.726 47.25V6.75C182.726 4.95979 182.015 3.2429 180.75 1.97703C179.485 0.711159 177.77 0 175.981 0Z" fill="#A6A6A6"/>
<path d="M64.5786 13.8235C64.6007 14.3186 64.5225 14.8131 64.3486 15.2771C64.1747 15.7411 63.9088 16.1651 63.5668 16.5236C63.1835 16.9195 62.7211 17.23 62.2096 17.4347C61.6982 17.6394 61.1493 17.7338 60.5989 17.7116C60.0454 17.7239 59.4951 17.6224 58.9823 17.4135C58.4695 17.2045 58.005 16.8924 57.6176 16.4965C56.8315 15.6919 56.3914 14.6113 56.3914 13.486C56.3914 12.3608 56.8315 11.2802 57.6176 10.4755C58.2186 9.88787 58.9797 9.49104 59.8054 9.33492C60.631 9.17879 61.4844 9.27034 62.2582 9.59805C62.7447 9.79816 63.1786 10.1077 63.5263 10.5026L62.8113 11.218C62.5434 10.8951 62.204 10.6391 61.8199 10.4704C61.4359 10.3016 61.0178 10.2248 60.5989 10.246C60.0701 10.2497 59.5503 10.3829 59.0848 10.6341C58.6194 10.8852 58.2224 11.2466 57.9288 11.6867C57.6351 12.1268 57.4536 12.6321 57.4002 13.1586C57.3468 13.6851 57.423 14.2166 57.6223 14.7068C57.8215 15.197 58.1377 15.6309 58.5432 15.9705C58.9487 16.3102 59.4312 16.5453 59.9484 16.6552C60.4657 16.7652 61.002 16.7467 61.5105 16.6014C62.0189 16.4561 62.4841 16.1883 62.8653 15.8215C63.2774 15.3694 63.5163 14.786 63.5398 14.1746H60.5989V13.2026H64.5246C64.5553 13.4082 64.5733 13.6156 64.5786 13.8235Z" fill="white" stroke="white" stroke-width="0.2" stroke-miterlimit="10"/>
<path d="M70.7562 10.4492H67.1138V13.0142H70.4324V13.9862H67.1138V16.5512H70.7562V17.5502H66.0615V9.4502H70.7562V10.4492Z" fill="white" stroke="white" stroke-width="0.2" stroke-miterlimit="10"/>
<path d="M75.1816 17.5502H74.1428V10.4492H71.8765V9.4502H77.5019V10.4492H75.1816V17.5502Z" fill="white" stroke="white" stroke-width="0.2" stroke-miterlimit="10"/>
<path d="M81.467 17.5502V9.4502H82.5058V17.5502H81.467Z" fill="white" stroke="white" stroke-width="0.2" stroke-miterlimit="10"/>
<path d="M87.1201 17.5502H86.0813V10.4492H83.8149V9.4502H89.373V10.4492H87.1201V17.5502Z" fill="white" stroke="white" stroke-width="0.2" stroke-miterlimit="10"/>
<path d="M99.9091 16.4963C99.5195 16.8865 99.0568 17.1961 98.5476 17.4073C98.0383 17.6185 97.4925 17.7272 96.9413 17.7272C96.39 17.7272 95.8442 17.6185 95.3349 17.4073C94.8257 17.1961 94.363 16.8865 93.9734 16.4963C93.2108 15.685 92.7861 14.6131 92.7861 13.4993C92.7861 12.3855 93.2108 11.3136 93.9734 10.5023C94.3546 10.1011 94.8158 9.78443 95.327 9.57281C95.8383 9.36119 96.3882 9.25933 96.9413 9.27382C97.4935 9.26507 98.0418 9.36956 98.5522 9.58083C99.0626 9.79211 99.5244 10.1057 99.9091 10.5023C100.297 10.8972 100.602 11.3658 100.806 11.8806C101.01 12.3953 101.108 12.9457 101.096 13.4993C101.114 14.0536 101.018 14.6056 100.814 15.1211C100.609 15.6366 100.301 16.1047 99.9091 16.4963ZM94.7423 15.8213C95.0297 16.1127 95.3721 16.3442 95.7496 16.5021C96.127 16.66 96.5321 16.7414 96.9413 16.7414C97.3504 16.7414 97.7555 16.66 98.133 16.5021C98.5104 16.3442 98.8528 16.1127 99.1402 15.8213C99.7223 15.1883 100.045 14.3595 100.045 13.4993C100.045 12.6391 99.7223 11.8103 99.1402 11.1773C98.8528 10.8859 98.5104 10.6545 98.133 10.4965C97.7555 10.3386 97.3504 10.2573 96.9413 10.2573C96.5321 10.2573 96.127 10.3386 95.7496 10.4965C95.3721 10.6545 95.0297 10.8859 94.7423 11.1773C94.1602 11.8103 93.8372 12.6391 93.8372 13.4993C93.8372 14.3595 94.1602 15.1883 94.7423 15.8213Z" fill="white" stroke="white" stroke-width="0.2" stroke-miterlimit="10"/>
<path d="M102.567 17.5502V9.4502H103.821L107.76 15.7547V14.1887V9.4502H108.799V17.5502H107.72L103.605 10.9487V12.5012V17.5502H102.567Z" fill="white" stroke="white" stroke-width="0.2" stroke-miterlimit="10"/>
<path d="M92.5297 29.3625C91.3931 29.3652 90.2828 29.7051 89.3392 30.3392C88.3956 30.9734 87.6612 31.8733 87.2287 32.9251C86.7962 33.977 86.6851 35.1336 86.9094 36.2487C87.1338 37.3637 87.6835 38.3872 88.4891 39.1896C89.2947 39.992 90.32 40.5373 91.4353 40.7566C92.5506 40.9759 93.7058 40.8593 94.7549 40.4215C95.804 39.9838 96.6998 39.2446 97.3291 38.2973C97.9583 37.3501 98.2928 36.2374 98.2901 35.1C98.3011 34.3412 98.1594 33.588 97.8735 32.8851C97.5875 32.1823 97.1632 31.5442 96.6257 31.0088C96.0883 30.4735 95.4486 30.0518 94.745 29.769C94.0413 29.4862 93.2879 29.3479 92.5297 29.3625ZM92.5297 38.583C91.8331 38.6318 91.1379 38.4696 90.5345 38.1178C89.9311 37.7659 89.4474 37.2405 89.1464 36.6099C88.8453 35.9793 88.7408 35.2726 88.8464 34.5818C88.952 33.891 89.2629 33.2479 89.7385 32.7362C90.2142 32.2245 90.8327 31.8678 91.5136 31.7125C92.1945 31.5573 92.9064 31.6106 93.5566 31.8655C94.2068 32.1205 94.7654 32.5653 95.1597 33.1421C95.554 33.7189 95.7657 34.4011 95.7674 35.1C95.7891 35.5428 95.722 35.9855 95.5701 36.402C95.4181 36.8184 95.1844 37.2002 94.8826 37.5248C94.5809 37.8494 94.2172 38.1103 93.8131 38.2921C93.409 38.4738 92.9726 38.5727 92.5297 38.583ZM79.9568 29.3625C78.8201 29.3652 77.7098 29.7051 76.7662 30.3392C75.8227 30.9734 75.0882 31.8733 74.6557 32.9251C74.2232 33.977 74.1121 35.1336 74.3365 36.2487C74.5608 37.3637 75.1106 38.3872 75.9162 39.1896C76.7218 39.992 77.747 40.5373 78.8623 40.7566C79.9776 40.9759 81.1329 40.8593 82.1819 40.4215C83.231 39.9838 84.1268 39.2446 84.7561 38.2973C85.3853 37.3501 85.7198 36.2374 85.7171 35.1C85.7281 34.3412 85.5864 33.588 85.3005 32.8851C85.0146 32.1823 84.5902 31.5442 84.0528 31.0088C83.5153 30.4735 82.8757 30.0518 82.172 29.769C81.4683 29.4862 80.7149 29.3479 79.9568 29.3625ZM79.9568 38.583C79.2601 38.6318 78.5649 38.4696 77.9615 38.1178C77.3581 37.7659 76.8745 37.2405 76.5734 36.6099C76.2724 35.9793 76.1679 35.2726 76.2735 34.5818C76.3791 33.891 76.6899 33.2479 77.1656 32.7362C77.6412 32.2245 78.2597 31.8678 78.9406 31.7125C79.6215 31.5573 80.3334 31.6106 80.9836 31.8655C81.6339 32.1205 82.1924 32.5653 82.5867 33.1421C82.981 33.7189 83.1927 34.4011 83.1944 35.1C83.2162 35.5428 83.1491 35.9855 82.9971 36.402C82.8452 36.8184 82.6114 37.2002 82.3097 37.5248C82.0079 37.8494 81.6443 38.1103 81.2402 38.2921C80.836 38.4738 80.3997 38.5727 79.9568 38.583ZM65.0095 31.131V33.561H70.8373C70.7459 34.7055 70.2705 35.7855 69.4883 36.6255C68.9037 37.2215 68.2005 37.6881 67.4244 37.9951C66.6482 38.3021 65.8163 38.4426 64.9825 38.4075C63.2651 38.4075 61.6181 37.7248 60.4037 36.5095C59.1894 35.2943 58.5071 33.6461 58.5071 31.9275C58.5071 30.2089 59.1894 28.5607 60.4037 27.3454C61.6181 26.1302 63.2651 25.4475 64.9825 25.4475C66.6289 25.423 68.2187 26.0487 69.4073 27.189L71.1206 25.4745C70.3166 24.6787 69.3619 24.0514 68.3125 23.6295C67.2632 23.2076 66.1402 22.9996 65.0095 23.0175C63.8102 22.9708 62.6138 23.1668 61.492 23.5939C60.3703 24.021 59.3462 24.6703 58.4812 25.5029C57.6162 26.3355 56.928 27.3342 56.458 28.4394C55.9879 29.5445 55.7456 30.7332 55.7456 31.9342C55.7456 33.1353 55.9879 34.324 56.458 35.4291C56.928 36.5342 57.6162 37.533 58.4812 38.3656C59.3462 39.1982 60.3703 39.8475 61.492 40.2746C62.6138 40.7016 63.8102 40.8977 65.0095 40.851C66.1635 40.8971 67.3142 40.6984 68.386 40.268C69.4578 39.8376 70.4265 39.1851 71.2285 38.3535C72.6452 36.7961 73.4 34.7479 73.333 32.643C73.3378 32.1364 73.2972 31.6303 73.2116 31.131H65.0095ZM126.134 33.021C125.782 31.9852 125.124 31.0808 124.248 30.4274C123.371 29.7741 122.316 29.4028 121.224 29.3625C120.486 29.361 119.755 29.5111 119.078 29.8033C118.4 30.0955 117.789 30.5238 117.284 31.0615C116.778 31.5993 116.388 32.2351 116.137 32.9297C115.887 33.6243 115.781 34.363 115.828 35.1C115.816 36.3323 116.203 37.5354 116.931 38.5294C117.659 39.5233 118.689 40.255 119.867 40.6149C121.045 40.9749 122.307 40.9439 123.466 40.5266C124.625 40.1093 125.618 39.328 126.296 38.2995L124.34 36.9495C124.048 37.4359 123.635 37.8375 123.14 38.1146C122.646 38.3916 122.087 38.5345 121.52 38.529C120.936 38.5532 120.357 38.3997 119.861 38.0889C119.365 37.7781 118.975 37.3244 118.741 36.7875L126.417 33.615L126.134 33.021ZM118.31 34.938C118.282 34.5187 118.339 34.0981 118.476 33.7009C118.613 33.3037 118.828 32.9378 119.108 32.6248C119.388 32.3118 119.728 32.0578 120.108 31.8778C120.487 31.6978 120.899 31.5954 121.318 31.5765C121.753 31.5499 122.186 31.6523 122.562 31.8709C122.939 32.0894 123.243 32.4144 123.436 32.805L118.31 34.938ZM112.077 40.5H114.6V23.625H112.077V40.5ZM107.949 30.645H107.855C107.478 30.2155 107.013 29.8725 106.491 29.6395C105.97 29.4065 105.404 29.289 104.833 29.295C103.359 29.3665 101.968 30.003 100.95 31.0724C99.9323 32.1418 99.3644 33.5622 99.3644 35.0392C99.3644 36.5163 99.9323 37.9367 100.95 39.0061C101.968 40.0755 103.359 40.712 104.833 40.7835C105.405 40.795 105.972 40.6799 106.495 40.4466C107.017 40.2132 107.481 39.8673 107.855 39.4335H107.949V40.257C107.949 42.4575 106.776 43.632 104.887 43.632C104.256 43.6181 103.643 43.4169 103.127 43.054C102.611 42.691 102.214 42.1827 101.986 41.5935L99.801 42.498C100.205 43.5135 100.908 44.3824 101.816 44.9899C102.724 45.5973 103.795 45.9147 104.887 45.9C107.841 45.9 110.283 44.1585 110.283 39.9195V29.7H107.949V30.645ZM105.049 38.583C104.165 38.5278 103.335 38.1376 102.729 37.4917C102.122 36.8459 101.785 35.993 101.785 35.1067C101.785 34.2205 102.122 33.3676 102.729 32.7218C103.335 32.0759 104.165 31.6856 105.049 31.6305C105.481 31.6492 105.905 31.7546 106.295 31.9405C106.686 32.1264 107.035 32.3891 107.322 32.7128C107.609 33.0365 107.828 33.4146 107.965 33.8247C108.103 34.2348 108.158 34.6685 108.125 35.1C108.161 35.5329 108.11 35.9688 107.974 36.3814C107.837 36.7939 107.619 37.1744 107.331 37.5C107.044 37.8256 106.693 38.0894 106.301 38.2756C105.909 38.4617 105.483 38.5663 105.049 38.583ZM137.952 23.625H131.908V40.5H134.431V34.101H137.952C138.671 34.1527 139.393 34.0556 140.072 33.8158C140.752 33.576 141.375 33.1986 141.903 32.7071C142.431 32.2157 142.851 31.6207 143.139 30.9593C143.427 30.2979 143.575 29.5843 143.575 28.863C143.575 28.1417 143.427 27.428 143.139 26.7667C142.851 26.1053 142.431 25.5103 141.903 25.0189C141.375 24.5274 140.752 24.15 140.072 23.9102C139.393 23.6704 138.671 23.5733 137.952 23.625ZM137.952 31.725H134.431V25.974H138.006C138.385 25.974 138.76 26.0487 139.11 26.1939C139.461 26.3391 139.779 26.5519 140.047 26.8202C140.315 27.0884 140.528 27.4069 140.673 27.7574C140.818 28.1079 140.893 28.4836 140.893 28.863C140.893 29.2424 140.818 29.6181 140.673 29.9686C140.528 30.3191 140.315 30.6376 140.047 30.9058C139.779 31.1741 139.461 31.3869 139.11 31.5321C138.76 31.6773 138.385 31.752 138.006 31.752L137.952 31.725ZM153.519 29.3085C152.601 29.2518 151.686 29.4658 150.887 29.9241C150.089 30.3824 149.442 31.0648 149.027 31.887L151.253 32.8185C151.478 32.4127 151.816 32.0807 152.225 31.8627C152.634 31.6447 153.098 31.55 153.56 31.59C153.88 31.5526 154.205 31.5793 154.514 31.6687C154.824 31.7581 155.113 31.9084 155.364 32.1107C155.615 32.313 155.824 32.5634 155.977 32.8471C156.131 33.1309 156.226 33.4424 156.258 33.7635V33.9255C155.447 33.4988 154.544 33.2764 153.627 33.2775C151.226 33.2775 148.771 34.6275 148.771 37.0845C148.795 37.6067 148.923 38.1189 149.148 38.5905C149.374 39.0621 149.692 39.4836 150.083 39.8299C150.474 40.1762 150.931 40.4402 151.427 40.6064C151.922 40.7725 152.446 40.8373 152.966 40.797C153.599 40.832 154.23 40.698 154.795 40.4086C155.359 40.1191 155.836 39.6848 156.177 39.15H156.258V40.5H158.686V34.0065C158.686 31.05 156.447 29.3355 153.573 29.3355L153.519 29.3085ZM153.209 38.556C152.386 38.556 151.24 38.1375 151.24 37.125C151.24 35.775 152.67 35.316 153.938 35.316C154.739 35.2962 155.531 35.492 156.231 35.883C156.146 36.6161 155.799 37.2937 155.253 37.7902C154.708 38.2866 154.001 38.5683 153.263 38.583L153.209 38.556ZM167.536 29.7L164.649 37.017H164.568L161.573 29.7H158.875L163.367 39.933L160.804 45.6165H163.435L170.342 29.7H167.536ZM144.872 40.5H147.381V23.625H144.872V40.5Z" fill="white"/>
<path d="M14.6894 10.1795C14.2449 10.7054 14.018 11.3816 14.0554 12.0695V41.9315C14.0095 42.6205 14.2373 43.2997 14.6894 43.8215L14.7838 43.9295L31.4984 27.203V26.798L14.7838 10.085L14.6894 10.1795Z" fill="url(#paint0_linear_478_1090)"/>
<path d="M37.0313 32.7787L31.5002 27.2032V26.7982L37.0313 21.2227L37.1527 21.3037L43.7764 25.0567C45.6651 26.1232 45.6651 27.8782 43.7764 28.9582L37.1797 32.7112L37.0313 32.7787Z" fill="url(#paint1_linear_478_1090)"/>
<path d="M37.1918 32.697L31.4989 27L14.6899 43.821C15.0711 44.1606 15.5591 44.3559 16.0691 44.3732C16.5792 44.3904 17.0792 44.2285 17.4824 43.9155L37.1918 32.697Z" fill="url(#paint2_linear_478_1090)"/>
<path d="M37.1918 21.3023L17.4824 10.0972C17.0818 9.77988 16.5822 9.61403 16.0714 9.62884C15.5607 9.64366 15.0715 9.8382 14.6899 10.1783L31.4989 26.9993L37.1918 21.3023Z" fill="url(#paint3_linear_478_1090)"/>
<path opacity="0.2" d="M37.0299 32.5752L17.4824 43.7127C17.0938 44.0062 16.6203 44.165 16.1334 44.165C15.6466 44.165 15.173 44.0062 14.7844 43.7127L14.6899 43.8072L14.7844 43.9152C15.173 44.2087 15.6466 44.3675 16.1334 44.3675C16.6203 44.3675 17.0938 44.2087 17.4824 43.9152L37.1918 32.6967L37.0299 32.5752Z" fill="black"/>
<path opacity="0.12" d="M14.6909 43.632C14.2576 43.0966 14.0452 42.4156 14.0973 41.7285V41.931C14.0514 42.62 14.2793 43.2993 14.7314 43.821L14.8258 43.7265L14.6909 43.632Z" fill="black"/>
<path opacity="0.12" d="M43.7759 28.755L37.0308 32.5755L37.1522 32.697L43.7759 28.944C44.1669 28.7786 44.5061 28.5107 44.7577 28.1686C45.0094 27.8264 45.1642 27.4228 45.2059 27C45.1216 27.3842 44.9482 27.7431 44.6998 28.048C44.4514 28.3528 44.135 28.595 43.7759 28.755Z" fill="black"/>
<path opacity="0.25" d="M17.4837 10.2871L43.7763 25.2451C44.1354 25.4051 44.4518 25.6473 44.7002 25.9521C44.9486 26.257 45.1219 26.616 45.2063 27.0001C45.1646 26.5774 45.0098 26.1737 44.7581 25.8316C44.5065 25.4894 44.1673 25.2216 43.7763 25.0561L17.4837 10.0981C15.6085 9.01812 14.0571 9.90912 14.0571 12.0691V12.2716C14.0976 10.1116 15.6085 9.22062 17.4837 10.2871Z" fill="white"/>
<defs>
<linearGradient id="paint0_linear_478_1090" x1="30.0144" y1="11.759" x2="7.36142" y2="34.3957" gradientUnits="userSpaceOnUse">
<stop stop-color="#00A0FF"/>
<stop offset="0.01" stop-color="#00A1FF"/>
<stop offset="0.26" stop-color="#00BEFF"/>
<stop offset="0.51" stop-color="#00D2FF"/>
<stop offset="0.76" stop-color="#00DFFF"/>
<stop offset="1" stop-color="#00E3FF"/>
</linearGradient>
<linearGradient id="paint1_linear_478_1090" x1="46.2452" y1="27.0007" x2="13.6121" y2="27.0007" gradientUnits="userSpaceOnUse">
<stop stop-color="#FFE000"/>
<stop offset="0.41" stop-color="#FFBD00"/>
<stop offset="0.78" stop-color="#FFA500"/>
<stop offset="1" stop-color="#FF9C00"/>
</linearGradient>
<linearGradient id="paint2_linear_478_1090" x1="34.1025" y1="30.105" x2="3.37653" y2="60.7955" gradientUnits="userSpaceOnUse">
<stop stop-color="#FF3A44"/>
<stop offset="1" stop-color="#C31162"/>
</linearGradient>
<linearGradient id="paint3_linear_478_1090" x1="10.454" y1="0.242251" x2="24.17" y2="13.9484" gradientUnits="userSpaceOnUse">
<stop stop-color="#32A071"/>
<stop offset="0.07" stop-color="#2DA771"/>
<stop offset="0.48" stop-color="#15CF74"/>
<stop offset="0.8" stop-color="#06E775"/>
<stop offset="1" stop-color="#00F076"/>
</linearGradient>
</defs>
</svg>
