<svg width="162" height="54" viewBox="0 0 162 54" fill="none" xmlns="http://www.w3.org/2000/svg">
<path d="M148.184 0.000175499H12.8287C12.3353 0.000175499 11.8479 0.0001755 11.3558 0.00287549C10.9439 0.00557548 10.5352 0.013419 10.1194 0.0200204C9.21589 0.0306878 8.31454 0.110438 7.42315 0.258578C6.53301 0.409943 5.67076 0.695309 4.86555 1.10503C4.06133 1.51821 3.32649 2.05509 2.68769 2.69621C2.04554 3.33552 1.51025 4.07448 1.10242 4.88468C0.693461 5.69325 0.409888 6.55972 0.261494 7.45415C0.11169 8.34745 0.0310784 9.25105 0.020384 10.1568C0.00789797 10.5707 0.0065794 10.986 0 11.4V42.6041C0.0065794 43.0233 0.00789797 43.4294 0.020384 43.8487C0.0310817 44.7545 0.111693 45.658 0.261494 46.5513C0.409478 47.4462 0.693068 48.3132 1.10242 49.1221C1.51007 49.9296 2.04543 50.6656 2.68769 51.3014C3.32407 51.9453 4.05938 52.4826 4.86555 52.8926C5.67075 53.3034 6.53291 53.5905 7.42315 53.7442C8.31469 53.8911 9.21594 53.9709 10.1194 53.9829C10.5352 53.992 10.9439 53.9973 11.3558 53.9973C11.8479 54 12.3354 54 12.8287 54H148.184C148.668 54 149.159 54 149.643 53.9973C150.053 53.9973 150.473 53.992 150.883 53.9829C151.785 53.9715 152.684 53.8918 153.574 53.7442C154.467 53.5894 155.332 53.3024 156.141 52.8926C156.947 52.4823 157.682 51.9451 158.317 51.3014C158.958 50.6631 159.494 49.9277 159.907 49.1221C160.313 48.3126 160.594 47.4457 160.74 46.5513C160.89 45.6579 160.974 44.7545 160.99 43.8487C160.995 43.4294 160.995 43.0233 160.995 42.6041C161.006 42.1137 161.006 41.6259 161.006 41.1275V12.8739C161.006 12.3795 161.006 11.8891 160.995 11.4C160.995 10.986 160.995 10.5707 160.99 10.1568C160.974 9.25092 160.89 8.34752 160.74 7.4541C160.594 6.56018 160.313 5.69379 159.907 4.88462C159.077 3.26068 157.76 1.9388 156.141 1.1049C155.332 0.696189 154.467 0.410899 153.574 0.258457C152.684 0.109664 151.785 0.0298859 150.883 0.0198314C150.473 0.0132435 150.053 0.00533248 149.643 0.00269999C149.159 0 148.668 0 148.184 0V0.000175499Z" fill="#A6A6A6"/>
<path d="M11.362 52.819C10.9521 52.819 10.5521 52.8137 10.1453 52.8045C9.30278 52.7935 8.46219 52.7199 7.63045 52.5843C6.85491 52.4503 6.10361 52.201 5.40134 51.8447C4.70552 51.4913 4.07087 51.0279 3.52171 50.4723C2.9646 49.9232 2.50078 49.2864 2.14863 48.587C1.7926 47.8831 1.54621 47.1286 1.41804 46.3498C1.27962 45.513 1.20473 44.6668 1.19401 43.8186C1.18548 43.5338 1.17432 42.5859 1.17432 42.5859V11.4002C1.17432 11.4002 1.18621 10.4668 1.19408 10.1926C1.20434 9.34572 1.2788 8.50085 1.4168 7.66531C1.54521 6.88436 1.79179 6.12769 2.14801 5.42148C2.49887 4.7226 2.96011 4.08529 3.51386 3.53425C4.06699 2.97797 4.70367 2.5122 5.40068 2.15392C6.10134 1.79871 6.85121 1.55118 7.62519 1.4196C8.45966 1.28267 9.30317 1.20864 10.1487 1.19812L11.3627 1.18164H149.636L150.864 1.19879C151.702 1.20877 152.538 1.28215 153.365 1.41828C154.147 1.55151 154.904 1.80077 155.613 2.15788C157.009 2.87992 158.145 4.02225 158.862 5.42477C159.213 6.1261 159.456 6.87661 159.582 7.65081C159.722 8.49321 159.8 9.34471 159.816 10.1985C159.82 10.5809 159.82 10.9915 159.82 11.4002C159.831 11.9065 159.831 12.3883 159.831 12.8741V41.1277C159.831 41.6182 159.831 42.0968 159.82 42.5793C159.82 43.0183 159.82 43.4204 159.815 43.8344C159.799 44.6729 159.722 45.5092 159.585 46.3366C159.459 47.121 159.214 47.8814 158.858 48.5911C158.504 49.2828 158.043 49.9141 157.492 50.4617C156.942 51.0204 156.306 51.4865 155.609 51.8421C154.902 52.2012 154.146 52.4514 153.365 52.5843C152.533 52.7206 151.692 52.7942 150.85 52.8045C150.456 52.8137 150.043 52.819 149.642 52.819L148.184 52.8217L11.362 52.819Z" fill="black"/>
<path d="M33.3255 27.4066C33.34 26.2798 33.6383 25.175 34.1926 24.195C34.747 23.2149 35.5394 22.3915 36.4962 21.8013C35.8884 20.9304 35.0866 20.2136 34.1544 19.708C33.2222 19.2023 32.1853 18.9217 31.1262 18.8885C28.8668 18.6505 26.6764 20.245 25.5251 20.245C24.3515 20.245 22.5788 18.9121 20.6699 18.9515C19.4352 18.9915 18.2319 19.3518 17.1772 19.9972C16.1225 20.6425 15.2524 21.551 14.6517 22.6341C12.0495 27.1545 13.9905 33.7979 16.4832 37.4518C17.7303 39.241 19.1878 41.2396 21.095 41.1687C22.9612 41.0911 23.6582 39.9747 25.911 39.9747C28.1428 39.9747 28.7968 41.1687 30.7426 41.1237C32.7452 41.091 34.0069 39.3265 35.2103 37.5203C36.1063 36.2454 36.7959 34.8364 37.2533 33.3454C36.0898 32.8517 35.097 32.0253 34.3985 30.9692C33.7 29.9131 33.3269 28.6741 33.3255 27.4066Z" fill="white"/>
<path d="M29.6492 16.4848C30.7411 15.1696 31.279 13.4792 31.1487 11.7725C29.4806 11.9483 27.9397 12.7482 26.833 14.0129C26.2919 14.6308 25.8775 15.3496 25.6135 16.1282C25.3494 16.9068 25.2409 17.7301 25.2942 18.5508C26.1286 18.5594 26.954 18.378 27.7084 18.0201C28.4627 17.6622 29.1263 17.1373 29.6492 16.4848Z" fill="white"/>
<path d="M56.9165 36.6383H50.5478L49.0183 41.1695H46.3208L52.3531 24.4053H55.1558L61.1881 41.1695H58.4446L56.9165 36.6383ZM51.2074 34.5474H56.2556L53.767 27.1936H53.6973L51.2074 34.5474Z" fill="white"/>
<path d="M74.215 35.0594C74.215 38.8576 72.1889 41.2979 69.1313 41.2979C68.3568 41.3385 67.5865 41.1595 66.9086 40.7813C66.2308 40.4031 65.6728 39.8411 65.2985 39.1595H65.2407V45.2134H62.7402V28.9475H65.1606V30.9804H65.2066C65.598 30.3021 66.1655 29.7429 66.8485 29.3625C67.5315 28.982 68.3045 28.7944 69.0853 28.8196C72.177 28.8196 74.215 31.2718 74.215 35.0594ZM71.6449 35.0594C71.6449 32.5849 70.3703 30.958 68.4257 30.958C66.5152 30.958 65.2302 32.6191 65.2302 35.0594C65.2302 37.5221 66.5152 39.1714 68.4257 39.1714C70.3704 39.1714 71.6449 37.5564 71.6449 35.0594Z" fill="white"/>
<path d="M87.6224 35.0594C87.6224 38.8576 85.5963 41.2979 82.5388 41.2979C81.7643 41.3385 80.994 41.1595 80.3161 40.7813C79.6383 40.4031 79.0803 39.8411 78.706 39.1595H78.6481V45.2134H76.1477V28.9475H78.568V30.9804H78.614C79.0055 30.3021 79.5729 29.7429 80.2559 29.3624C80.9389 28.982 81.7119 28.7944 82.4928 28.8196C85.5845 28.8196 87.6224 31.2718 87.6224 35.0594ZM85.0524 35.0594C85.0524 32.5849 83.7778 30.958 81.8332 30.958C79.9227 30.958 78.6377 32.6191 78.6377 35.0594C78.6377 37.5221 79.9227 39.1714 81.8332 39.1714C83.7778 39.1714 85.0524 37.5564 85.0524 35.0594H85.0524Z" fill="white"/>
<path d="M96.4849 36.4988C96.6702 38.1613 98.2798 39.2528 100.479 39.2528C102.587 39.2528 104.103 38.1612 104.103 36.6622C104.103 35.361 103.189 34.5819 101.023 34.0479L98.8579 33.5245C95.7898 32.781 94.3655 31.3413 94.3655 29.0052C94.3655 26.1127 96.8778 24.126 100.445 24.126C103.976 24.126 106.396 26.1127 106.477 29.0052H103.953C103.802 27.3322 102.424 26.3224 100.41 26.3224C98.3953 26.3224 97.017 27.3441 97.017 28.8312C97.017 30.0164 97.8974 30.7138 100.051 31.2477L101.892 31.7012C105.32 32.5146 106.744 33.8963 106.744 36.3484C106.744 39.4848 104.254 41.4491 100.294 41.4491C96.5887 41.4491 94.0869 39.5309 93.9253 36.4987L96.4849 36.4988Z" fill="white"/>
<path d="M112.139 26.0547V28.9472H114.456V30.9339H112.139V37.672C112.139 38.7188 112.603 39.2066 113.622 39.2066C113.897 39.2018 114.171 39.1824 114.444 39.1486V41.1234C113.986 41.2093 113.521 41.2482 113.055 41.2395C110.589 41.2395 109.627 40.31 109.627 37.9396V30.9339H107.856V28.9472H109.627V26.0547H112.139Z" fill="white"/>
<path d="M115.799 35.0591C115.799 31.2134 118.057 28.7969 121.577 28.7969C125.109 28.7969 127.355 31.2134 127.355 35.0591C127.355 38.9153 125.12 41.3212 121.577 41.3212C118.034 41.3212 115.799 38.9152 115.799 35.0591ZM124.808 35.0591C124.808 32.421 123.603 30.8641 121.577 30.8641C119.551 30.8641 118.347 32.4329 118.347 35.0591C118.347 37.7076 119.551 39.2528 121.577 39.2528C123.603 39.2528 124.808 37.7076 124.808 35.0591H124.808Z" fill="white"/>
<path d="M129.415 28.9474H131.8V31.0277H131.857C132.019 30.378 132.398 29.8038 132.932 29.4017C133.465 28.9995 134.121 28.794 134.788 28.8195C135.076 28.8185 135.363 28.8499 135.644 28.9131V31.2598C135.28 31.1483 134.901 31.097 134.521 31.1082C134.158 31.0934 133.795 31.1577 133.459 31.2966C133.123 31.4355 132.821 31.6457 132.573 31.9128C132.326 32.18 132.139 32.4977 132.025 32.8442C131.912 33.1907 131.874 33.5578 131.915 33.9202V41.1699H129.415L129.415 28.9474Z" fill="white"/>
<path d="M147.173 37.5798C146.836 39.7985 144.683 41.3212 141.928 41.3212C138.384 41.3212 136.184 38.939 136.184 35.1171C136.184 31.2833 138.396 28.7969 141.822 28.7969C145.193 28.7969 147.312 31.1198 147.312 34.8257V35.6853H138.708V35.8369C138.669 36.2867 138.725 36.7399 138.873 37.1662C139.021 37.5926 139.258 37.9825 139.568 38.3099C139.878 38.6374 140.254 38.8949 140.671 39.0654C141.087 39.2359 141.536 39.3155 141.985 39.2989C142.576 39.3544 143.169 39.2171 143.676 38.9074C144.183 38.5976 144.577 38.132 144.799 37.5797L147.173 37.5798ZM138.72 33.9319H144.81C144.833 33.5274 144.772 33.1227 144.631 32.743C144.49 32.3634 144.272 32.0171 143.992 31.7258C143.711 31.4345 143.374 31.2046 143.001 31.0504C142.627 30.8962 142.226 30.8211 141.822 30.8298C141.415 30.8273 141.012 30.9058 140.635 31.0607C140.258 31.2156 139.916 31.4439 139.627 31.7323C139.339 32.0207 139.11 32.3635 138.954 32.7411C138.799 33.1186 138.719 33.5233 138.72 33.9319V33.9319Z" fill="white"/>
<path d="M50.896 11.7855C51.4202 11.7478 51.9462 11.8272 52.4361 12.0182C52.926 12.2091 53.3676 12.5067 53.729 12.8896C54.0904 13.2725 54.3625 13.7311 54.5259 14.2323C54.6892 14.7335 54.7397 15.2649 54.6736 15.788C54.6736 18.3615 53.2874 19.8407 50.896 19.8407H47.9961V11.7855H50.896ZM49.243 18.7015H50.7567C51.1313 18.724 51.5061 18.6624 51.854 18.5211C52.2019 18.3799 52.514 18.1626 52.7676 17.8851C53.0212 17.6076 53.2099 17.2769 53.3201 16.9169C53.4302 16.557 53.459 16.1769 53.4043 15.8044C53.455 15.4334 53.4233 15.0557 53.3115 14.6984C53.1997 14.3411 53.0105 14.0131 52.7574 13.7378C52.5044 13.4625 52.1938 13.2467 51.8479 13.106C51.502 12.9653 51.1294 12.9031 50.7567 12.9238H49.243V18.7015Z" fill="white"/>
<path d="M56.0821 16.7996C56.044 16.4001 56.0896 15.9971 56.2158 15.6163C56.3421 15.2355 56.5463 14.8854 56.8153 14.5884C57.0843 14.2914 57.4122 14.0541 57.778 13.8918C58.1438 13.7294 58.5393 13.6455 58.9393 13.6455C59.3393 13.6455 59.7348 13.7294 60.1006 13.8918C60.4664 14.0541 60.7943 14.2914 61.0633 14.5884C61.3323 14.8854 61.5365 15.2355 61.6628 15.6163C61.789 15.9971 61.8346 16.4001 61.7965 16.7996C61.8353 17.1995 61.7903 17.6031 61.6644 17.9845C61.5384 18.3659 61.3344 18.7167 61.0653 19.0143C60.7962 19.3118 60.468 19.5496 60.1019 19.7123C59.7358 19.875 59.3397 19.9591 58.9393 19.9591C58.5388 19.9591 58.1428 19.875 57.7767 19.7123C57.4106 19.5496 57.0824 19.3118 56.8133 19.0143C56.5442 18.7167 56.3402 18.3659 56.2142 17.9845C56.0883 17.6031 56.0433 17.1995 56.0821 16.7996ZM60.5666 16.7996C60.5666 15.4819 59.9766 14.7113 58.9413 14.7113C57.9019 14.7113 57.3173 15.4819 57.3173 16.7996C57.3173 18.1279 57.902 18.8925 58.9413 18.8925C59.9767 18.8925 60.5666 18.1226 60.5666 16.7996H60.5666Z" fill="white"/>
<path d="M69.3921 19.8416H68.1517L66.8995 15.3645H66.8049L65.558 19.8416H64.3294L62.6594 13.7627H63.8722L64.9575 18.4013H65.0469L66.2925 13.7627H67.4396L68.6852 18.4013H68.7798L69.8598 13.7627H71.0555L69.3921 19.8416Z" fill="white"/>
<path d="M72.4595 13.763H73.6105V14.7287H73.6998C73.8514 14.3818 74.1071 14.0911 74.4312 13.8969C74.7552 13.7028 75.1316 13.6149 75.5078 13.6456C75.8026 13.6234 76.0986 13.668 76.3739 13.7761C76.6492 13.8843 76.8967 14.0531 77.0981 14.2703C77.2995 14.4874 77.4496 14.7472 77.5373 15.0305C77.6251 15.3138 77.6482 15.6132 77.6049 15.9066V19.8418H76.4092V16.2079C76.4092 15.231 75.9861 14.7452 75.1018 14.7452C74.9017 14.7358 74.7019 14.77 74.5161 14.8453C74.3304 14.9207 74.1631 15.0355 74.0256 15.1818C73.8882 15.3281 73.784 15.5025 73.72 15.6931C73.6561 15.8836 73.634 16.0857 73.6552 16.2856V19.8419H72.4595L72.4595 13.763Z" fill="white"/>
<path d="M79.51 11.3896H80.7057V19.8416H79.51V11.3896Z" fill="white"/>
<path d="M82.369 16.7997C82.3309 16.4002 82.3765 15.9971 82.5028 15.6163C82.629 15.2355 82.8333 14.8854 83.1023 14.5884C83.3714 14.2914 83.6993 14.0541 84.0651 13.8918C84.4309 13.7294 84.8265 13.6455 85.2265 13.6455C85.6265 13.6455 86.022 13.7294 86.3878 13.8918C86.7536 14.0541 87.0816 14.2914 87.3506 14.5884C87.6197 14.8854 87.8239 15.2355 87.9502 15.6163C88.0764 15.9971 88.122 16.4002 88.084 16.7997C88.1227 17.1996 88.0777 17.6033 87.9517 17.9847C87.8258 18.3661 87.6216 18.7168 87.3525 19.0144C87.0834 19.3119 86.7552 19.5497 86.3891 19.7124C86.0229 19.8751 85.6269 19.9592 85.2265 19.9592C84.826 19.9592 84.43 19.8751 84.0638 19.7124C83.6977 19.5497 83.3695 19.3119 83.1004 19.0144C82.8313 18.7168 82.6272 18.3661 82.5012 17.9847C82.3752 17.6033 82.3302 17.1996 82.369 16.7997ZM86.8534 16.7997C86.8534 15.482 86.2635 14.7115 85.2281 14.7115C84.1888 14.7115 83.6041 15.482 83.6041 16.7997C83.6041 18.128 84.1888 18.8926 85.2281 18.8926C86.2635 18.8926 86.8535 18.1227 86.8535 16.7997H86.8534Z" fill="white"/>
<path d="M89.343 18.1226C89.343 17.0284 90.155 16.3976 91.5964 16.3079L93.2376 16.213V15.6883C93.2376 15.0463 92.8145 14.6837 91.9972 14.6837C91.3297 14.6837 90.8672 14.9296 90.7345 15.3594H89.5769C89.6991 14.3152 90.678 13.6455 92.0524 13.6455C93.5713 13.6455 94.428 14.4042 94.428 15.6883V19.8418H93.277V18.9875H93.1824C92.9903 19.2939 92.7207 19.5437 92.401 19.7114C92.0813 19.8791 91.7229 19.9586 91.3626 19.9419C91.1082 19.9685 90.8511 19.9412 90.6079 19.862C90.3647 19.7828 90.1408 19.6533 89.9505 19.4819C89.7602 19.3104 89.6079 19.1009 89.5032 18.8668C89.3986 18.6327 89.344 18.3792 89.343 18.1226ZM93.2376 17.6032V17.095L91.758 17.1899C90.9237 17.2459 90.5453 17.5307 90.5453 18.0666C90.5453 18.6137 91.0183 18.9321 91.6687 18.9321C91.8593 18.9514 92.0518 18.9321 92.2348 18.8753C92.4178 18.8185 92.5876 18.7253 92.7339 18.6013C92.8803 18.4774 93.0003 18.3251 93.0868 18.1536C93.1733 17.9821 93.2246 17.795 93.2376 17.6032Z" fill="white"/>
<path d="M96 16.7995C96 14.8787 96.9842 13.6619 98.5149 13.6619C98.8935 13.6443 99.2693 13.7353 99.5983 13.9242C99.9273 14.1131 100.196 14.392 100.373 14.7283H100.462V11.3896H101.658V19.8416H100.512V18.8812H100.417C100.227 19.2153 99.949 19.4908 99.6136 19.6777C99.2782 19.8647 98.8983 19.956 98.5149 19.9418C96.9736 19.9419 96 18.725 96 16.7995ZM97.2351 16.7995C97.2351 18.0889 97.8409 18.8648 98.8539 18.8648C99.8617 18.8648 100.485 18.0777 100.485 16.8048C100.485 15.5379 99.8552 14.7396 98.8539 14.7396C97.8474 14.7396 97.2351 15.5207 97.2351 16.7995H97.2351Z" fill="white"/>
<path d="M106.604 16.7996C106.566 16.4001 106.611 15.9971 106.737 15.6163C106.864 15.2355 107.068 14.8854 107.337 14.5884C107.606 14.2914 107.934 14.0541 108.299 13.8918C108.665 13.7294 109.061 13.6455 109.461 13.6455C109.861 13.6455 110.256 13.7294 110.622 13.8918C110.988 14.0541 111.316 14.2914 111.585 14.5884C111.854 14.8854 112.058 15.2355 112.184 15.6163C112.31 15.9971 112.356 16.4001 112.318 16.7996C112.357 17.1995 112.312 17.6031 112.186 17.9845C112.06 18.3659 111.856 18.7167 111.587 19.0143C111.318 19.3118 110.99 19.5496 110.623 19.7123C110.257 19.875 109.861 19.9591 109.461 19.9591C109.06 19.9591 108.664 19.875 108.298 19.7123C107.932 19.5496 107.604 19.3118 107.335 19.0143C107.066 18.7167 106.862 18.3659 106.736 17.9845C106.61 17.6031 106.565 17.1995 106.604 16.7996ZM111.088 16.7996C111.088 15.4819 110.498 14.7113 109.463 14.7113C108.423 14.7113 107.839 15.4819 107.839 16.7996C107.839 18.1279 108.423 18.8925 109.463 18.8925C110.498 18.8925 111.088 18.1226 111.088 16.7996Z" fill="white"/>
<path d="M113.922 13.763H115.073V14.7287H115.163C115.314 14.3818 115.57 14.0911 115.894 13.8969C116.218 13.7028 116.595 13.6149 116.971 13.6456C117.266 13.6234 117.562 13.668 117.837 13.7761C118.112 13.8843 118.36 14.0531 118.561 14.2703C118.762 14.4874 118.913 14.7472 119 15.0305C119.088 15.3138 119.111 15.6132 119.068 15.9066V19.8418H117.872V16.2079C117.872 15.231 117.449 14.7452 116.565 14.7452C116.365 14.7358 116.165 14.77 115.979 14.8453C115.793 14.9207 115.626 15.0355 115.489 15.1818C115.351 15.3281 115.247 15.5025 115.183 15.6931C115.119 15.8836 115.097 16.0857 115.118 16.2856V19.8419H113.922V13.763Z" fill="white"/>
<path d="M125.825 12.249V13.7902H127.138V14.8007H125.825V17.9265C125.825 18.5633 126.087 18.8421 126.682 18.8421C126.834 18.8416 126.986 18.8324 127.138 18.8144V19.8137C126.923 19.8523 126.705 19.8728 126.487 19.875C125.158 19.875 124.628 19.4057 124.628 18.2337V14.8006H123.666V13.7901H124.628V12.249H125.825Z" fill="white"/>
<path d="M128.77 11.3896H129.955V14.7396H130.05C130.209 14.3895 130.471 14.0971 130.802 13.9022C131.133 13.7074 131.515 13.6195 131.897 13.6506C132.19 13.6346 132.484 13.6837 132.756 13.7945C133.028 13.9053 133.272 14.0749 133.472 14.2914C133.671 14.5078 133.82 14.7657 133.909 15.0467C133.997 15.3277 134.023 15.6248 133.984 15.9169V19.8416H132.787V16.2128C132.787 15.2419 132.336 14.7501 131.491 14.7501C131.286 14.7332 131.079 14.7616 130.886 14.8332C130.692 14.9048 130.517 15.018 130.371 15.1648C130.226 15.3116 130.114 15.4884 130.044 15.683C129.974 15.8776 129.947 16.0852 129.966 16.2913V19.8416H128.77L128.77 11.3896Z" fill="white"/>
<path d="M140.955 18.2005C140.792 18.7561 140.441 19.2367 139.961 19.5582C139.481 19.8797 138.903 20.0216 138.33 19.9592C137.931 19.9698 137.534 19.8931 137.167 19.7344C136.801 19.5757 136.473 19.3389 136.206 19.0404C135.94 18.7419 135.742 18.3888 135.625 18.0056C135.509 17.6224 135.476 17.2184 135.531 16.8215C135.478 16.4234 135.511 16.0185 135.627 15.6342C135.743 15.2499 135.941 14.8952 136.205 14.594C136.47 14.2929 136.797 14.0524 137.162 13.8887C137.528 13.7251 137.924 13.6422 138.324 13.6456C140.01 13.6456 141.027 14.8012 141.027 16.7101V17.1287H136.749V17.1959C136.73 17.419 136.758 17.6436 136.831 17.8552C136.904 18.0668 137.02 18.2608 137.172 18.4248C137.324 18.5887 137.508 18.719 137.713 18.8073C137.918 18.8956 138.139 18.9399 138.363 18.9374C138.649 18.9719 138.938 18.9202 139.195 18.789C139.452 18.6578 139.664 18.4529 139.804 18.2005L140.955 18.2005ZM136.749 16.2414H139.809C139.824 16.0374 139.797 15.8325 139.728 15.6398C139.659 15.4472 139.551 15.271 139.411 15.1227C139.271 14.9744 139.101 14.8572 138.912 14.7787C138.724 14.7001 138.522 14.662 138.318 14.6667C138.111 14.6641 137.906 14.703 137.714 14.7813C137.523 14.8595 137.349 14.9754 137.202 15.1222C137.056 15.2689 136.941 15.4436 136.863 15.6358C136.785 15.828 136.746 16.034 136.749 16.2414H136.749Z" fill="white"/>
</svg>
