<svg width="181" height="93" viewBox="0 0 181 93" fill="none" xmlns="http://www.w3.org/2000/svg">
<path d="M158.544 27H46.4559C34.0538 27 24 37.5122 24 50.4796V51.5204C24 64.4878 34.0538 75 46.4559 75H158.544C170.946 75 181 64.4878 181 51.5204V50.4796C181 37.5122 170.946 27 158.544 27Z" fill="url(#paint0_linear_478_1943)"/>
<path d="M83.1331 45.9V49.02H77.4931V51.5H81.6531V54.48H77.4931V60H73.5731V45.9H83.1331ZM91.5441 60.14C90.2241 60.14 89.0107 59.8333 87.9041 59.22C86.7974 58.5933 85.9174 57.7333 85.2641 56.64C84.6241 55.5333 84.3041 54.2867 84.3041 52.9C84.3041 51.5133 84.6241 50.2733 85.2641 49.18C85.9174 48.0733 86.7974 47.2133 87.9041 46.6C89.0107 45.9867 90.2241 45.68 91.5441 45.68C92.8774 45.68 94.0907 45.9867 95.1841 46.6C96.2907 47.2133 97.1641 48.0733 97.8041 49.18C98.4441 50.2733 98.7641 51.5133 98.7641 52.9C98.7641 54.2867 98.4441 55.5333 97.8041 56.64C97.1641 57.7333 96.2907 58.5933 95.1841 59.22C94.0774 59.8333 92.8641 60.14 91.5441 60.14ZM91.5441 56.5C92.5441 56.5 93.3307 56.1733 93.9041 55.52C94.4907 54.8667 94.7841 53.9933 94.7841 52.9C94.7841 51.78 94.4907 50.9 93.9041 50.26C93.3307 49.6067 92.5441 49.28 91.5441 49.28C90.5307 49.28 89.7374 49.6067 89.1641 50.26C88.5907 50.9 88.3041 51.78 88.3041 52.9C88.3041 54.0067 88.5907 54.8867 89.1641 55.54C89.7374 56.18 90.5307 56.5 91.5441 56.5ZM107.666 60L104.866 54.8H104.446V60H100.526V45.9H106.706C107.84 45.9 108.8 46.1 109.586 46.5C110.373 46.8867 110.966 47.4267 111.366 48.12C111.766 48.8 111.966 49.5667 111.966 50.42C111.966 51.38 111.7 52.2267 111.166 52.96C110.646 53.68 109.88 54.1933 108.866 54.5L112.046 60H107.666ZM104.446 52.12H106.386C106.92 52.12 107.32 51.9933 107.586 51.74C107.853 51.4867 107.986 51.12 107.986 50.64C107.986 50.1867 107.846 49.8333 107.566 49.58C107.3 49.3133 106.906 49.18 106.386 49.18H104.446V52.12ZM126.577 52.76C127.404 52.9467 128.057 53.36 128.537 54C129.03 54.6267 129.277 55.3467 129.277 56.16C129.277 57.36 128.864 58.3 128.037 58.98C127.21 59.66 126.05 60 124.557 60H117.577V45.9H124.337C125.777 45.9 126.904 46.22 127.717 46.86C128.544 47.5 128.957 48.4 128.957 49.56C128.957 50.3867 128.737 51.08 128.297 51.64C127.87 52.1867 127.297 52.56 126.577 52.76ZM121.497 51.5H123.477C124.464 51.5 124.957 51.0933 124.957 50.28C124.957 49.44 124.464 49.02 123.477 49.02H121.497V51.5ZM123.777 56.84C124.764 56.84 125.257 56.4267 125.257 55.6C125.257 55.1733 125.124 54.8467 124.857 54.62C124.604 54.3933 124.237 54.28 123.757 54.28H121.497V56.84H123.777ZM134.915 49.04V51.34H139.415V54.32H134.915V56.86H140.015V60H130.995V45.9H140.015V49.04H134.915ZM147.272 60.14C145.632 60.14 144.285 59.7533 143.232 58.98C142.179 58.1933 141.612 57.0733 141.532 55.62H145.712C145.752 56.1133 145.899 56.4733 146.152 56.7C146.405 56.9267 146.732 57.04 147.132 57.04C147.492 57.04 147.785 56.9533 148.012 56.78C148.252 56.5933 148.372 56.34 148.372 56.02C148.372 55.6067 148.179 55.2867 147.792 55.06C147.405 54.8333 146.779 54.58 145.912 54.3C144.992 53.9933 144.245 53.7 143.672 53.42C143.112 53.1267 142.619 52.7067 142.192 52.16C141.779 51.6 141.572 50.8733 141.572 49.98C141.572 49.0733 141.799 48.3 142.252 47.66C142.705 47.0067 143.332 46.5133 144.132 46.18C144.932 45.8467 145.839 45.68 146.852 45.68C148.492 45.68 149.799 46.0667 150.772 46.84C151.759 47.6 152.285 48.6733 152.352 50.06H148.092C148.079 49.6333 147.945 49.3133 147.692 49.1C147.452 48.8867 147.139 48.78 146.752 48.78C146.459 48.78 146.219 48.8667 146.032 49.04C145.845 49.2133 145.752 49.46 145.752 49.78C145.752 50.0467 145.852 50.28 146.052 50.48C146.265 50.6667 146.525 50.8333 146.832 50.98C147.139 51.1133 147.592 51.2867 148.192 51.5C149.085 51.8067 149.819 52.1133 150.392 52.42C150.979 52.7133 151.479 53.1333 151.892 53.68C152.319 54.2133 152.532 54.8933 152.532 55.72C152.532 56.56 152.319 57.3133 151.892 57.98C151.479 58.6467 150.872 59.1733 150.072 59.56C149.285 59.9467 148.352 60.14 147.272 60.14ZM164.974 45.9V49.02H161.214V60H157.294V49.02H153.574V45.9H164.974Z" fill="white"/>
<rect x="68.4521" y="69" width="80" height="20" rx="10" fill="url(#paint1_linear_478_1943)"/>
<path d="M86.9681 84.098C86.0441 84.098 85.1948 83.8833 84.4201 83.454C83.6548 83.0247 83.0435 82.4273 82.5861 81.662C82.1381 80.8873 81.9141 80.0193 81.9141 79.058C81.9141 78.0967 82.1381 77.2333 82.5861 76.468C83.0435 75.7027 83.6548 75.1053 84.4201 74.676C85.1948 74.2467 86.0441 74.032 86.9681 74.032C87.8921 74.032 88.7368 74.2467 89.5021 74.676C90.2768 75.1053 90.8835 75.7027 91.3221 76.468C91.7701 77.2333 91.9941 78.0967 91.9941 79.058C91.9941 80.0193 91.7701 80.8873 91.3221 81.662C90.8741 82.4273 90.2675 83.0247 89.5021 83.454C88.7368 83.8833 87.8921 84.098 86.9681 84.098ZM86.9681 81.914C87.7521 81.914 88.3775 81.6527 88.8441 81.13C89.3201 80.6073 89.5581 79.9167 89.5581 79.058C89.5581 78.19 89.3201 77.4993 88.8441 76.986C88.3775 76.4633 87.7521 76.202 86.9681 76.202C86.1748 76.202 85.5401 76.4587 85.0641 76.972C84.5975 77.4853 84.3641 78.1807 84.3641 79.058C84.3641 79.926 84.5975 80.6213 85.0641 81.144C85.5401 81.6573 86.1748 81.914 86.9681 81.914ZM100.284 74.172V76.09H96.28V78.162H99.276V80.024H96.28V84H93.886V74.172H100.284ZM108.5 74.172V76.09H104.496V78.162H107.492V80.024H104.496V84H102.102V74.172H108.5ZM112.713 76.09V78.078H115.919V79.926H112.713V82.082H116.339V84H110.319V74.172H116.339V76.09H112.713ZM123.465 84L121.421 80.29H120.847V84H118.453V74.172H122.471C123.245 74.172 123.903 74.3073 124.445 74.578C124.995 74.8487 125.406 75.222 125.677 75.698C125.947 76.1647 126.083 76.6873 126.083 77.266C126.083 77.9193 125.896 78.5027 125.523 79.016C125.159 79.5293 124.617 79.8933 123.899 80.108L126.167 84H123.465ZM120.847 78.596H122.331C122.769 78.596 123.096 78.4887 123.311 78.274C123.535 78.0593 123.647 77.756 123.647 77.364C123.647 76.9907 123.535 76.6967 123.311 76.482C123.096 76.2673 122.769 76.16 122.331 76.16H120.847V78.596ZM131.702 84.098C130.983 84.098 130.339 83.9813 129.77 83.748C129.2 83.5147 128.743 83.1693 128.398 82.712C128.062 82.2547 127.884 81.704 127.866 81.06H130.414C130.451 81.424 130.577 81.704 130.792 81.9C131.006 82.0867 131.286 82.18 131.632 82.18C131.986 82.18 132.266 82.1007 132.472 81.942C132.677 81.774 132.78 81.5453 132.78 81.256C132.78 81.0133 132.696 80.8127 132.528 80.654C132.369 80.4953 132.168 80.3647 131.926 80.262C131.692 80.1593 131.356 80.0427 130.918 79.912C130.283 79.716 129.765 79.52 129.364 79.324C128.962 79.128 128.617 78.8387 128.328 78.456C128.038 78.0733 127.894 77.574 127.894 76.958C127.894 76.0433 128.225 75.3293 128.888 74.816C129.55 74.2933 130.414 74.032 131.478 74.032C132.56 74.032 133.433 74.2933 134.096 74.816C134.758 75.3293 135.113 76.048 135.16 76.972H132.57C132.551 76.6547 132.434 76.4073 132.22 76.23C132.005 76.0433 131.73 75.95 131.394 75.95C131.104 75.95 130.871 76.0293 130.694 76.188C130.516 76.3373 130.428 76.5567 130.428 76.846C130.428 77.1633 130.577 77.4107 130.876 77.588C131.174 77.7653 131.641 77.9567 132.276 78.162C132.91 78.3767 133.424 78.582 133.816 78.778C134.217 78.974 134.562 79.2587 134.852 79.632C135.141 80.0053 135.286 80.486 135.286 81.074C135.286 81.634 135.141 82.1427 134.852 82.6C134.572 83.0573 134.161 83.4213 133.62 83.692C133.078 83.9627 132.439 84.098 131.702 84.098Z" fill="white"/>
<path d="M68.3412 57.8C71.2064 40.3607 59.3917 23.9007 41.9524 21.0355C24.5131 18.1703 8.05303 29.985 5.18785 47.4243C2.32268 64.8636 14.1374 81.3237 31.5767 84.1888C49.016 87.054 65.476 75.2394 68.3412 57.8Z" fill="url(#paint2_linear_478_1943)"/>
<path d="M55.3026 45.7811L54.5427 44.9538V43.7836C54.5427 38.2586 50.414 33.7628 45.3391 33.7628H44.2653L43.5051 32.9351C41.7667 31.0424 39.4554 30 36.9973 30C34.5384 30 32.2271 31.0417 30.4895 32.9351L29.7293 33.7628H28.6551C23.5807 33.7628 19.4515 38.2581 19.4515 43.7836V44.9531L18.6913 45.7808C15.1031 49.6875 15.1027 56.0455 18.6913 59.9523L19.4515 60.7796V61.9491C19.4515 67.4745 23.5802 71.9709 28.6551 71.9709H29.7299L30.4898 72.7974C32.2274 74.6901 34.5387 75.7329 36.9976 75.7329C39.4564 75.7329 41.7677 74.6905 43.5053 72.7978L44.2652 71.9705H45.34C50.4145 71.9705 54.5436 67.4752 54.5436 61.9487V60.7793L55.3039 59.9515C57.0422 58.0589 58 55.5424 58 52.866C57.9986 50.1896 57.0405 47.6735 55.3025 45.7808L55.3026 45.7811ZM54.2341 58.7888L53.2525 59.8568C53.1109 60.011 53.0314 60.2203 53.0314 60.4388V61.9496C53.0314 66.5678 49.581 70.3252 45.3395 70.3252H43.9519C43.7519 70.3252 43.5593 70.412 43.4174 70.5659L42.4364 71.6335C40.9838 73.2158 39.0522 74.0868 36.9971 74.0868C34.9424 74.0868 33.0104 73.2155 31.5578 71.6335L30.5769 70.5659C30.4352 70.4117 30.243 70.3252 30.0423 70.3252H28.6547C24.4131 70.3252 20.9628 66.5678 20.9628 61.9496V60.4388C20.9628 60.2211 20.883 60.0114 20.7417 59.8568L19.7601 58.7888C16.761 55.5234 16.761 50.2097 19.7601 46.9449L20.7417 45.8761C20.8834 45.7219 20.9628 45.513 20.9628 45.2941V43.7837C20.9628 39.1659 24.4132 35.4089 28.6547 35.4089H30.0419C30.2419 35.4089 30.4345 35.322 30.5765 35.1682L31.5578 34.0994C33.0104 32.5178 34.9421 31.6465 36.9971 31.6465C39.0518 31.6465 40.9831 32.5178 42.4364 34.0994L43.4181 35.1682C43.5597 35.3224 43.752 35.4089 43.9527 35.4089H45.3399C49.5815 35.4089 53.0318 39.1663 53.0318 43.7837V45.2945C53.0318 45.513 53.1116 45.7219 53.2528 45.8765L54.2338 46.9445C55.6871 48.5268 56.4874 50.63 56.4874 52.8667C56.4874 55.1039 55.6875 57.2067 54.2341 58.789V58.7888ZM45.2766 44.8622L27.7933 59.5686C27.4633 59.8468 27.4025 60.3634 27.6573 60.7227C27.806 60.9328 28.0295 61.0426 28.2558 61.0426C28.4172 61.0426 28.5803 60.986 28.7173 60.8708L46.1997 46.1644C46.5297 45.887 46.5905 45.37 46.3357 45.0103C46.0805 44.6506 45.6053 44.5844 45.276 44.8622H45.2766ZM33.2891 49.2025C34.3322 49.2025 35.3132 48.7597 36.0502 47.9565C37.5725 46.2987 37.5725 43.6013 36.0502 41.9439C35.3125 41.1407 34.3319 40.6979 33.2894 40.6979C32.2462 40.6979 31.2653 41.1407 30.5282 41.9439C29.006 43.6013 29.006 46.2987 30.5282 47.9565C31.2653 48.7601 32.2455 49.2025 33.2891 49.2025ZM31.5964 43.108C32.0484 42.6159 32.6494 42.3442 33.2888 42.3442C33.9281 42.3442 34.5287 42.6152 34.9808 43.108C35.9139 44.124 35.9139 45.7768 34.9808 46.7936C34.5288 47.2857 33.9271 47.5574 33.2884 47.5574C32.6494 47.5574 32.0485 47.2864 31.5964 46.7936C30.6636 45.7768 30.6636 44.124 31.5964 43.108ZM40.7056 56.5321C39.6624 56.5321 38.6815 56.9748 37.9444 57.7781C36.4222 59.4358 36.4222 62.1329 37.9444 63.7906C38.6821 64.5939 39.6628 65.0359 40.7056 65.0359C41.7488 65.0359 42.7297 64.5939 43.4664 63.7906C44.9886 62.1329 44.9886 59.4358 43.4664 57.7781C42.729 56.9741 41.7491 56.5321 40.7056 56.5321ZM42.3982 62.6265C41.9462 63.1183 41.3452 63.3896 40.7062 63.3896C40.0662 63.3896 39.4655 63.1186 39.0139 62.6265C38.0807 61.6101 38.0807 59.9578 39.0139 58.941C39.4659 58.4489 40.0676 58.1772 40.7062 58.1772C41.3452 58.1772 41.9462 58.4481 42.3982 58.941C43.3307 59.957 43.3307 61.6105 42.3982 62.6265Z" fill="#F99C1B"/>
<path d="M49.8731 13.8C49.8731 12.976 50.0571 12.24 50.4251 11.592C50.8011 10.936 51.3091 10.428 51.9491 10.068C52.5971 9.7 53.3211 9.516 54.1211 9.516C55.0571 9.516 55.8771 9.756 56.5811 10.236C57.2851 10.716 57.7771 11.38 58.0571 12.228H56.1251C55.9331 11.828 55.6611 11.528 55.3091 11.328C54.9651 11.128 54.5651 11.028 54.1091 11.028C53.6211 11.028 53.1851 11.144 52.8011 11.376C52.4251 11.6 52.1291 11.92 51.9131 12.336C51.7051 12.752 51.6011 13.24 51.6011 13.8C51.6011 14.352 51.7051 14.84 51.9131 15.264C52.1291 15.68 52.4251 16.004 52.8011 16.236C53.1851 16.46 53.6211 16.572 54.1091 16.572C54.5651 16.572 54.9651 16.472 55.3091 16.272C55.6611 16.064 55.9331 15.76 56.1251 15.36H58.0571C57.7771 16.216 57.2851 16.884 56.5811 17.364C55.8851 17.836 55.0651 18.072 54.1211 18.072C53.3211 18.072 52.5971 17.892 51.9491 17.532C51.3091 17.164 50.8011 16.656 50.4251 16.008C50.0571 15.36 49.8731 14.624 49.8731 13.8ZM61.5321 16.668H64.2921V18H59.8521V9.624H61.5321V16.668ZM67.3999 9.624V18H65.7199V9.624H67.3999ZM69.0117 13.8C69.0117 12.976 69.1957 12.24 69.5637 11.592C69.9397 10.936 70.4477 10.428 71.0877 10.068C71.7357 9.7 72.4597 9.516 73.2597 9.516C74.1957 9.516 75.0157 9.756 75.7197 10.236C76.4237 10.716 76.9157 11.38 77.1957 12.228H75.2637C75.0717 11.828 74.7997 11.528 74.4477 11.328C74.1037 11.128 73.7037 11.028 73.2477 11.028C72.7597 11.028 72.3237 11.144 71.9397 11.376C71.5637 11.6 71.2677 11.92 71.0517 12.336C70.8437 12.752 70.7397 13.24 70.7397 13.8C70.7397 14.352 70.8437 14.84 71.0517 15.264C71.2677 15.68 71.5637 16.004 71.9397 16.236C72.3237 16.46 72.7597 16.572 73.2477 16.572C73.7037 16.572 74.1037 16.472 74.4477 16.272C74.7997 16.064 75.0717 15.76 75.2637 15.36H77.1957C76.9157 16.216 76.4237 16.884 75.7197 17.364C75.0237 17.836 74.2037 18.072 73.2597 18.072C72.4597 18.072 71.7357 17.892 71.0877 17.532C70.4477 17.164 69.9397 16.656 69.5637 16.008C69.1957 15.36 69.0117 14.624 69.0117 13.8ZM83.7187 18L80.6707 14.268V18H78.9907V9.624H80.6707V13.38L83.7187 9.624H85.7467L82.2907 13.776L85.8427 18H83.7187ZM97.4751 9.624V18H95.7951V14.436H92.2071V18H90.5271V9.624H92.2071V13.068H95.7951V9.624H97.4751ZM101.169 10.98V13.08H103.989V14.412H101.169V16.632H104.349V18H99.4886V9.612H104.349V10.98H101.169ZM110.555 18L108.707 14.736H107.915V18H106.235V9.624H109.379C110.027 9.624 110.579 9.74 111.035 9.972C111.491 10.196 111.831 10.504 112.055 10.896C112.287 11.28 112.403 11.712 112.403 12.192C112.403 12.744 112.243 13.244 111.923 13.692C111.603 14.132 111.127 14.436 110.495 14.604L112.499 18H110.555ZM107.915 13.476H109.319C109.775 13.476 110.115 13.368 110.339 13.152C110.563 12.928 110.675 12.62 110.675 12.228C110.675 11.844 110.563 11.548 110.339 11.34C110.115 11.124 109.775 11.016 109.319 11.016H107.915V13.476ZM115.963 10.98V13.08H118.783V14.412H115.963V16.632H119.143V18H114.283V9.612H119.143V10.98H115.963Z" fill="#333333"/>
<path d="M27.502 14H41.502" stroke="black" stroke-width="1.5"/>
<path d="M125.501 14H139.501" stroke="black" stroke-width="1.5"/>
<defs>
<linearGradient id="paint0_linear_478_1943" x1="8.26062" y1="34.4483" x2="175.94" y2="61.7544" gradientUnits="userSpaceOnUse">
<stop stop-color="#FEBC10"/>
<stop offset="0.509073" stop-color="#F7941D"/>
</linearGradient>
<linearGradient id="paint1_linear_478_1943" x1="68.4521" y1="78.9942" x2="148.452" y2="78.9942" gradientUnits="userSpaceOnUse">
<stop/>
<stop offset="0.79" stop-color="#302D3E"/>
<stop offset="0.87" stop-color="#2F2C3D"/>
</linearGradient>
<linearGradient id="paint2_linear_478_1943" x1="4.79807" y1="52.5932" x2="68.7981" y2="52.5932" gradientUnits="userSpaceOnUse">
<stop/>
<stop offset="0.79" stop-color="#302D3E"/>
<stop offset="0.87" stop-color="#2F2C3D"/>
</linearGradient>
</defs>
</svg>
