<svg width="222" height="100" viewBox="0 0 222 100" fill="none" xmlns="http://www.w3.org/2000/svg">
<path d="M192.273 28H46.6295C30.5148 28 17.4512 40.7022 17.4512 56.3712V57.6288C17.4512 73.2978 30.5148 86 46.6295 86H192.273C208.388 86 221.451 73.2978 221.451 57.6288V56.3712C221.451 40.7022 208.388 28 192.273 28Z" fill="url(#paint0_linear_478_1238)"/>
<path d="M78.571 62.6255C81.8651 42.5758 68.2819 23.6519 48.2321 20.3578C28.1824 17.0638 9.25847 30.647 5.96441 50.6967C2.67036 70.7465 16.2536 89.6704 36.3033 92.9644C56.3531 96.2585 75.277 82.6753 78.571 62.6255Z" fill="url(#paint1_linear_478_1238)"/>
<path d="M60.3026 49.493L59.5427 48.7332V47.6585C59.5427 42.5845 55.414 38.4557 50.3391 38.4557H49.2653L48.5051 37.6955C46.7667 35.9573 44.4554 35 41.9973 35C39.5384 35 37.2271 35.9566 35.4895 37.6955L34.7293 38.4557H33.6551C28.5807 38.4557 24.4515 42.584 24.4515 47.6585V48.7325L23.6913 49.4927C20.1031 53.0805 20.1027 58.9195 23.6913 62.5075L24.4515 63.2673V64.3413C24.4515 69.4157 28.5802 73.545 33.6551 73.545H34.7299L35.4898 74.3041C37.2274 76.0423 39.5387 77 41.9976 77C44.4564 77 46.7677 76.0426 48.5053 74.3045L49.2652 73.5447H50.34C55.4145 73.5447 59.5436 69.4163 59.5436 64.3409V63.2669L60.3039 62.5068C62.0422 60.7686 63 58.4575 63 55.9996C62.9986 53.5416 62.0405 51.2309 60.3025 49.4927L60.3026 49.493ZM59.2341 61.4389L58.2525 62.4197C58.1109 62.5614 58.0314 62.7536 58.0314 62.9543V64.3418C58.0314 68.5829 54.581 72.0337 50.3395 72.0337H48.9519C48.7519 72.0337 48.5593 72.1134 48.4174 72.2547L47.4364 73.2352C45.9838 74.6883 44.0522 75.4882 41.9971 75.4882C39.9424 75.4882 38.0104 74.688 36.5578 73.2352L35.5769 72.2547C35.4352 72.1131 35.243 72.0337 35.0423 72.0337H33.6547C29.4131 72.0337 25.9628 68.5829 25.9628 64.3418V62.9543C25.9628 62.7543 25.883 62.5617 25.7417 62.4197L24.7601 61.4389C21.761 58.4401 21.761 53.5601 24.7601 50.5618L25.7417 49.5802C25.8834 49.4386 25.9628 49.2467 25.9628 49.0457V47.6586C25.9628 43.4178 29.4132 39.9674 33.6547 39.9674H35.0419C35.2419 39.9674 35.4345 39.8876 35.5765 39.7464L36.5578 38.7648C38.0104 37.3123 39.9421 36.5121 41.9971 36.5121C44.0518 36.5121 45.9831 37.3123 47.4364 38.7648L48.4181 39.7464C48.5597 39.888 48.752 39.9674 48.9527 39.9674H50.3399C54.5815 39.9674 58.0318 43.4181 58.0318 47.6586V49.0461C58.0318 49.2467 58.1116 49.4386 58.2528 49.5806L59.2338 50.5614C60.6871 52.0146 61.4874 53.9461 61.4874 56.0003C61.4874 58.0548 60.6875 59.9859 59.2341 61.4391V61.4389ZM50.2766 48.6491L32.7933 62.1551C32.4633 62.4105 32.4025 62.885 32.6573 63.215C32.806 63.4079 33.0295 63.5088 33.2558 63.5088C33.4172 63.5088 33.5803 63.4568 33.7173 63.351L51.1997 49.845C51.5297 49.5902 51.5905 49.1154 51.3357 48.7851C51.0805 48.4547 50.6053 48.3939 50.276 48.6491H50.2766ZM38.2891 52.6351C39.3322 52.6351 40.3132 52.2285 41.0502 51.4908C42.5725 49.9684 42.5725 47.4911 41.0502 45.969C40.3125 45.2314 39.3319 44.8247 38.2894 44.8247C37.2462 44.8247 36.2653 45.2313 35.5282 45.969C34.006 47.4911 34.006 49.9684 35.5282 51.4908C36.2653 52.2288 37.2455 52.6351 38.2891 52.6351ZM36.5964 47.0381C37.0484 46.5862 37.6494 46.3366 38.2888 46.3366C38.9281 46.3366 39.5287 46.5855 39.9808 47.0381C40.9139 47.9712 40.9139 49.489 39.9808 50.4228C39.5288 50.8747 38.9271 51.1243 38.2884 51.1243C37.6494 51.1243 37.0485 50.8754 36.5964 50.4228C35.6636 49.489 35.6636 47.9712 36.5964 47.0381ZM45.7056 59.3664C44.6624 59.3664 43.6815 59.773 42.9444 60.5107C41.4222 62.0331 41.4222 64.5101 42.9444 66.0325C43.6821 66.7702 44.6628 67.1761 45.7056 67.1761C46.7488 67.1761 47.7297 66.7702 48.4664 66.0325C49.9886 64.5101 49.9886 62.0331 48.4664 60.5107C47.729 59.7723 46.7491 59.3664 45.7056 59.3664ZM47.3982 64.9634C46.9462 65.415 46.3452 65.6642 45.7062 65.6642C45.0662 65.6642 44.4655 65.4154 44.0139 64.9634C43.0807 64.03 43.0807 62.5125 44.0139 61.5787C44.4659 61.1268 45.0676 60.8772 45.7062 60.8772C46.3452 60.8772 46.9462 61.1261 47.3982 61.5787C48.3307 62.5118 48.3307 64.0303 47.3982 64.9634Z" fill="#F99C1B"/>
<rect x="96" y="76" width="80" height="20" rx="10" fill="url(#paint2_linear_478_1238)"/>
<path d="M113.968 91.098C113.044 91.098 112.195 90.8833 111.42 90.454C110.655 90.0247 110.043 89.4273 109.586 88.662C109.138 87.8873 108.914 87.0193 108.914 86.058C108.914 85.0967 109.138 84.2333 109.586 83.468C110.043 82.7027 110.655 82.1053 111.42 81.676C112.195 81.2467 113.044 81.032 113.968 81.032C114.892 81.032 115.737 81.2467 116.502 81.676C117.277 82.1053 117.883 82.7027 118.322 83.468C118.77 84.2333 118.994 85.0967 118.994 86.058C118.994 87.0193 118.77 87.8873 118.322 88.662C117.874 89.4273 117.267 90.0247 116.502 90.454C115.737 90.8833 114.892 91.098 113.968 91.098ZM113.968 88.914C114.752 88.914 115.377 88.6527 115.844 88.13C116.32 87.6073 116.558 86.9167 116.558 86.058C116.558 85.19 116.32 84.4993 115.844 83.986C115.377 83.4633 114.752 83.202 113.968 83.202C113.175 83.202 112.54 83.4587 112.064 83.972C111.597 84.4853 111.364 85.1807 111.364 86.058C111.364 86.926 111.597 87.6213 112.064 88.144C112.54 88.6573 113.175 88.914 113.968 88.914ZM127.284 81.172V83.09H123.28V85.162H126.276V87.024H123.28V91H120.886V81.172H127.284ZM135.5 81.172V83.09H131.496V85.162H134.492V87.024H131.496V91H129.102V81.172H135.5ZM139.713 83.09V85.078H142.919V86.926H139.713V89.082H143.339V91H137.319V81.172H143.339V83.09H139.713ZM150.465 91L148.421 87.29H147.847V91H145.453V81.172H149.471C150.245 81.172 150.903 81.3073 151.445 81.578C151.995 81.8487 152.406 82.222 152.677 82.698C152.947 83.1647 153.083 83.6873 153.083 84.266C153.083 84.9193 152.896 85.5027 152.523 86.016C152.159 86.5293 151.617 86.8933 150.899 87.108L153.167 91H150.465ZM147.847 85.596H149.331C149.769 85.596 150.096 85.4887 150.311 85.274C150.535 85.0593 150.647 84.756 150.647 84.364C150.647 83.9907 150.535 83.6967 150.311 83.482C150.096 83.2673 149.769 83.16 149.331 83.16H147.847V85.596ZM158.702 91.098C157.983 91.098 157.339 90.9813 156.77 90.748C156.2 90.5147 155.743 90.1693 155.398 89.712C155.062 89.2547 154.884 88.704 154.866 88.06H157.414C157.451 88.424 157.577 88.704 157.792 88.9C158.006 89.0867 158.286 89.18 158.632 89.18C158.986 89.18 159.266 89.1007 159.472 88.942C159.677 88.774 159.78 88.5453 159.78 88.256C159.78 88.0133 159.696 87.8127 159.528 87.654C159.369 87.4953 159.168 87.3647 158.926 87.262C158.692 87.1593 158.356 87.0427 157.918 86.912C157.283 86.716 156.765 86.52 156.364 86.324C155.962 86.128 155.617 85.8387 155.328 85.456C155.038 85.0733 154.894 84.574 154.894 83.958C154.894 83.0433 155.225 82.3293 155.888 81.816C156.55 81.2933 157.414 81.032 158.478 81.032C159.56 81.032 160.433 81.2933 161.096 81.816C161.758 82.3293 162.113 83.048 162.16 83.972H159.57C159.551 83.6547 159.434 83.4073 159.22 83.23C159.005 83.0433 158.73 82.95 158.394 82.95C158.104 82.95 157.871 83.0293 157.694 83.188C157.516 83.3373 157.428 83.5567 157.428 83.846C157.428 84.1633 157.577 84.4107 157.876 84.588C158.174 84.7653 158.641 84.9567 159.276 85.162C159.91 85.3767 160.424 85.582 160.816 85.778C161.217 85.974 161.562 86.2587 161.852 86.632C162.141 87.0053 162.286 87.486 162.286 88.074C162.286 88.634 162.141 89.1427 161.852 89.6C161.572 90.0573 161.161 90.4213 160.62 90.692C160.078 90.9627 159.439 91.098 158.702 91.098Z" fill="white"/>
<path d="M58.9426 14.1C58.9426 17.026 61.0846 19.084 63.8986 19.084C66.0686 19.084 67.8326 17.936 68.4906 15.92H66.2366C65.7746 16.872 64.9346 17.334 63.8846 17.334C62.1766 17.334 60.9586 16.074 60.9586 14.1C60.9586 12.112 62.1766 10.866 63.8846 10.866C64.9346 10.866 65.7746 11.328 66.2366 12.266H68.4906C67.8326 10.264 66.0686 9.102 63.8986 9.102C61.0846 9.102 58.9426 11.174 58.9426 14.1ZM70.5847 9.228V19H75.7647V17.446H72.5447V9.228H70.5847ZM77.4305 19H79.3905V9.228H77.4305V19ZM81.271 14.1C81.271 17.026 83.413 19.084 86.227 19.084C88.397 19.084 90.161 17.936 90.819 15.92H88.565C88.103 16.872 87.263 17.334 86.213 17.334C84.505 17.334 83.287 16.074 83.287 14.1C83.287 12.112 84.505 10.866 86.213 10.866C87.263 10.866 88.103 11.328 88.565 12.266H90.819C90.161 10.264 88.397 9.102 86.227 9.102C83.413 9.102 81.271 11.174 81.271 14.1ZM98.4291 19H100.907L96.7631 14.072L100.795 9.228H98.4291L94.8731 13.61V9.228H92.9131V19H94.8731V14.646L98.4291 19ZM112.518 19H114.478V9.228H112.518V13.246H108.332V9.228H106.372V19H108.332V14.842H112.518V19ZM122.497 9.214H116.827V19H122.497V17.404H118.787V14.814H122.077V13.26H118.787V10.81H122.497V9.214ZM129.879 12.266C129.879 13.148 129.389 13.722 128.297 13.722H126.659V10.852H128.297C129.389 10.852 129.879 11.398 129.879 12.266ZM124.699 9.228V19H126.659V15.192H127.583L129.739 19H132.007L129.669 15.038C131.237 14.618 131.895 13.414 131.895 12.224C131.895 10.586 130.719 9.228 128.367 9.228H124.699ZM139.757 9.214H134.087V19H139.757V17.404H136.047V14.814H139.337V13.26H136.047V10.81H139.757V9.214Z" fill="#333333"/>
<path d="M100.816 48.08V51.824H94.048V54.8H99.04V58.376H94.048V65H89.344V48.08H100.816ZM111.389 65.168C109.805 65.168 108.349 64.8 107.021 64.064C105.693 63.312 104.637 62.28 103.853 60.968C103.085 59.64 102.701 58.144 102.701 56.48C102.701 54.816 103.085 53.328 103.853 52.016C104.637 50.688 105.693 49.656 107.021 48.92C108.349 48.184 109.805 47.816 111.389 47.816C112.989 47.816 114.445 48.184 115.757 48.92C117.085 49.656 118.133 50.688 118.901 52.016C119.669 53.328 120.053 54.816 120.053 56.48C120.053 58.144 119.669 59.64 118.901 60.968C118.133 62.28 117.085 63.312 115.757 64.064C114.429 64.8 112.973 65.168 111.389 65.168ZM111.389 60.8C112.589 60.8 113.533 60.408 114.221 59.624C114.925 58.84 115.277 57.792 115.277 56.48C115.277 55.136 114.925 54.08 114.221 53.312C113.533 52.528 112.589 52.136 111.389 52.136C110.173 52.136 109.221 52.528 108.533 53.312C107.845 54.08 107.501 55.136 107.501 56.48C107.501 57.808 107.845 58.864 108.533 59.648C109.221 60.416 110.173 60.8 111.389 60.8ZM131.216 65L127.856 58.76H127.352V65H122.648V48.08H130.064C131.424 48.08 132.576 48.32 133.52 48.8C134.464 49.264 135.176 49.912 135.656 50.744C136.136 51.56 136.376 52.48 136.376 53.504C136.376 54.656 136.056 55.672 135.416 56.552C134.792 57.416 133.872 58.032 132.656 58.4L136.472 65H131.216ZM127.352 55.544H129.68C130.32 55.544 130.8 55.392 131.12 55.088C131.44 54.784 131.6 54.344 131.6 53.768C131.6 53.224 131.432 52.8 131.096 52.496C130.776 52.176 130.304 52.016 129.68 52.016H127.352V55.544ZM154.869 56.312C155.861 56.536 156.645 57.032 157.221 57.8C157.813 58.552 158.109 59.416 158.109 60.392C158.109 61.832 157.613 62.96 156.621 63.776C155.629 64.592 154.237 65 152.445 65H144.069V48.08H152.181C153.909 48.08 155.261 48.464 156.237 49.232C157.229 50 157.725 51.08 157.725 52.472C157.725 53.464 157.461 54.296 156.933 54.968C156.421 55.624 155.733 56.072 154.869 56.312ZM148.773 54.8H151.149C152.333 54.8 152.925 54.312 152.925 53.336C152.925 52.328 152.333 51.824 151.149 51.824H148.773V54.8ZM151.509 61.208C152.693 61.208 153.285 60.712 153.285 59.72C153.285 59.208 153.125 58.816 152.805 58.544C152.501 58.272 152.061 58.136 151.485 58.136H148.773V61.208H151.509ZM165.354 51.848V54.608H170.754V58.184H165.354V61.232H171.474V65H160.65V48.08H171.474V51.848H165.354ZM180.663 65.168C178.695 65.168 177.079 64.704 175.815 63.776C174.551 62.832 173.871 61.488 173.775 59.744H178.791C178.839 60.336 179.015 60.768 179.319 61.04C179.623 61.312 180.015 61.448 180.495 61.448C180.927 61.448 181.279 61.344 181.551 61.136C181.839 60.912 181.983 60.608 181.983 60.224C181.983 59.728 181.751 59.344 181.287 59.072C180.823 58.8 180.071 58.496 179.031 58.16C177.927 57.792 177.031 57.44 176.343 57.104C175.671 56.752 175.079 56.248 174.567 55.592C174.071 54.92 173.823 54.048 173.823 52.976C173.823 51.888 174.095 50.96 174.639 50.192C175.183 49.408 175.935 48.816 176.895 48.416C177.855 48.016 178.943 47.816 180.159 47.816C182.127 47.816 183.695 48.28 184.863 49.208C186.047 50.12 186.679 51.408 186.759 53.072H181.647C181.631 52.56 181.471 52.176 181.167 51.92C180.879 51.664 180.503 51.536 180.039 51.536C179.687 51.536 179.399 51.64 179.175 51.848C178.951 52.056 178.839 52.352 178.839 52.736C178.839 53.056 178.959 53.336 179.199 53.576C179.455 53.8 179.767 54 180.135 54.176C180.503 54.336 181.047 54.544 181.767 54.8C182.839 55.168 183.719 55.536 184.407 55.904C185.111 56.256 185.711 56.76 186.207 57.416C186.719 58.056 186.975 58.872 186.975 59.864C186.975 60.872 186.719 61.776 186.207 62.576C185.711 63.376 184.983 64.008 184.023 64.472C183.079 64.936 181.959 65.168 180.663 65.168ZM202.386 48.08V51.824H197.874V65H193.17V51.824H188.706V48.08H202.386Z" fill="white"/>
<path d="M41.5015 14H55.5015" stroke="black" stroke-width="1.5"/>
<path d="M143 14H157" stroke="black" stroke-width="1.5"/>
<defs>
<linearGradient id="paint0_linear_478_1238" x1="-3" y1="37" x2="214" y2="75" gradientUnits="userSpaceOnUse">
<stop stop-color="#FEBC10"/>
<stop offset="0.509073" stop-color="#F7941D"/>
</linearGradient>
<linearGradient id="paint1_linear_478_1238" x1="5.51628" y1="56.6393" x2="79.0963" y2="56.6393" gradientUnits="userSpaceOnUse">
<stop/>
<stop offset="0.79" stop-color="#302D3E"/>
<stop offset="0.87" stop-color="#2F2C3D"/>
</linearGradient>
<linearGradient id="paint2_linear_478_1238" x1="96" y1="85.9942" x2="176" y2="85.9942" gradientUnits="userSpaceOnUse">
<stop/>
<stop offset="0.79" stop-color="#302D3E"/>
<stop offset="0.87" stop-color="#2F2C3D"/>
</linearGradient>
</defs>
</svg>
