<svg width="40" height="40" viewBox="0 0 40 40" fill="none" xmlns="http://www.w3.org/2000/svg">
<g clip-path="url(#clip0_134_1435)">
<path d="M32.6667 11L22.1111 17L17.8889 13H9.44444M32.6667 11L39 17M32.6667 11L24.2222 25H1V13H9.44444M9.44444 13V3M9.44444 3H3.11111M9.44444 3H15.7778" stroke="#000104" stroke-width="1.2" stroke-linejoin="round"/>
<path d="M0 40L3.81743 36.0151C5.17395 34.5991 5.8522 33.8911 6.70588 33.8911C7.55956 33.8911 8.23782 34.5991 9.59434 36.0151L10.5233 36.9849C11.8798 38.4009 12.5581 39.1089 13.4118 39.1089C14.2654 39.1089 14.9437 38.4009 16.3002 36.9849L17.2448 35.9989C18.2577 34.9415 18.7641 34.4129 19.3359 34.276C19.7715 34.1717 20.2295 34.2166 20.6365 34.4035C21.1708 34.649 21.5648 35.266 22.3529 36.5V36.5C23.1411 37.734 23.5351 38.351 24.0694 38.5965C24.4764 38.7834 24.9344 38.8283 25.37 38.724C25.9417 38.5871 26.4482 38.0585 27.4611 37.0011L28.4057 36.0151C29.7622 34.5991 30.4404 33.8911 31.2941 33.8911C32.1478 33.8911 32.8261 34.5991 34.1826 36.0151L38 40" stroke="#F99C1B" stroke-width="2" stroke-linejoin="round"/>
</g>
<defs>
<clipPath id="clip0_134_1435">
<rect width="40" height="40" fill="white"/>
</clipPath>
</defs>
</svg>
