<svg width="18" height="33" viewBox="0 0 18 33" fill="none" xmlns="http://www.w3.org/2000/svg">
<rect x="1.16675" y="7.53223" width="15.6667" height="24.8333" rx="1.5" stroke="#000104"/>
<path fill-rule="evenodd" clip-rule="evenodd" d="M3.79289 0.992112C3.5 1.28501 3.5 1.75641 3.5 2.69922V4.36589H14.5V2.69922C14.5 1.75641 14.5 1.28501 14.2071 0.992112C13.9142 0.699219 13.4428 0.699219 12.5 0.699219H5.5C4.55719 0.699219 4.08579 0.699219 3.79289 0.992112Z" fill="#000104"/>
<path d="M7.92306 25.0764L8.12218 24.1361C8.18125 23.8572 8.21078 23.7177 8.13574 23.6251C8.0607 23.5326 7.91814 23.5326 7.63303 23.5326H6.91001C6.50808 23.5326 6.30712 23.5326 6.2359 23.4029C6.16469 23.2733 6.27245 23.1037 6.48798 22.7644L7.76202 20.759C7.97755 20.4197 8.08531 20.2501 8.0141 20.1205C7.94288 19.9909 7.74192 19.9909 7.33999 19.9909H5.9865C5.6527 19.9909 5.4858 19.9909 5.41141 19.8813C5.33702 19.7717 5.39861 19.6166 5.52179 19.3064L7.37473 14.6397C7.43539 14.4869 7.46572 14.4105 7.5293 14.3674C7.59288 14.3242 7.67507 14.3242 7.83944 14.3242H11.09C11.4919 14.3242 11.6929 14.3242 11.7641 14.4538C11.8353 14.5834 11.7275 14.7531 11.512 15.0923L10.238 17.0978C10.0225 17.437 9.91469 17.6067 9.9859 17.7363C10.0571 17.8659 10.2581 17.8659 10.66 17.8659H10.9645C11.4142 17.8659 11.6391 17.8659 11.7074 18.0072C11.7756 18.1485 11.6357 18.3246 11.356 18.6768L10.394 19.8883C10.1143 20.2405 9.97441 20.4166 10.0426 20.5579C10.1109 20.6992 10.3358 20.6992 10.7855 20.6992H11.6905C12.1493 20.6992 12.3787 20.6992 12.4463 20.8425C12.514 20.9858 12.3681 21.1629 12.0765 21.5171L8.79818 25.4979C8.28232 26.1243 8.02438 26.4375 7.84764 26.3524C7.67089 26.2672 7.75495 25.8703 7.92306 25.0764Z" fill="#F99D1C"/>
</svg>
