<svg width="16" height="26" viewBox="0 0 16 26" fill="none" xmlns="http://www.w3.org/2000/svg">
<path d="M12.3876 13.3142L11.7291 14.0668L12.3876 13.3142ZM3.61179 13.3142L2.95331 12.5616L3.61179 13.3142ZM4.99967 4C4.99967 2.89543 5.8951 2 6.99967 2V0C4.79054 0 2.99967 1.79086 2.99967 4H4.99967ZM4.99967 12.5V4H2.99967V12.5H4.99967ZM2.33301 18.3333C2.33301 16.6321 3.0814 15.1069 4.27027 14.0668L2.95331 12.5616C1.34883 13.9654 0.333008 16.0313 0.333008 18.3333H2.33301ZM7.99967 24C4.87006 24 2.33301 21.4629 2.33301 18.3333H0.333008C0.333008 22.5675 3.76549 26 7.99967 26V24ZM13.6663 18.3333C13.6663 21.4629 11.1293 24 7.99967 24V26C12.2339 26 15.6663 22.5675 15.6663 18.3333H13.6663ZM11.7291 14.0668C12.9179 15.1069 13.6663 16.6321 13.6663 18.3333H15.6663C15.6663 16.0313 14.6505 13.9654 13.046 12.5616L11.7291 14.0668ZM10.9997 4V12.5H12.9997V4H10.9997ZM8.99967 2C10.1042 2 10.9997 2.89543 10.9997 4H12.9997C12.9997 1.79086 11.2088 0 8.99967 0V2ZM6.99967 2H8.99967V0H6.99967V2ZM13.046 12.5616C13.023 12.5414 13.01 12.522 13.0039 12.5095C12.9983 12.498 12.9997 12.4952 12.9997 12.5H10.9997C10.9997 13.1415 11.3063 13.6968 11.7291 14.0668L13.046 12.5616ZM2.99967 12.5C2.99967 12.4952 3.00105 12.498 2.99546 12.5095C2.98934 12.522 2.97634 12.5414 2.95331 12.5616L4.27027 14.0668C4.69307 13.6968 4.99967 13.1415 4.99967 12.5H2.99967Z" fill="#000104"/>
<circle cx="8" cy="18.3333" r="3" stroke="#F99C1B" stroke-width="2"/>
</svg>
