<svg width="22" height="22" viewBox="0 0 22 22" fill="none" xmlns="http://www.w3.org/2000/svg">
<path d="M21.5 0.516673C21.3458 0.362167 21.1627 0.239588 20.961 0.155952C20.7594 0.0723165 20.5433 0.0292662 20.325 0.0292662C20.1067 0.0292662 19.8906 0.0723165 19.689 0.155952C19.4873 0.239588 19.3042 0.362167 19.15 0.516673L11 8.65001L2.85001 0.500006C2.6957 0.345703 2.51252 0.223303 2.31091 0.139795C2.10931 0.0562864 1.89322 0.0133057 1.67501 0.0133057C1.45679 0.0133057 1.24071 0.0562864 1.0391 0.139795C0.837494 0.223303 0.654309 0.345703 0.500006 0.500006C0.345703 0.654309 0.223303 0.837494 0.139795 1.0391C0.0562864 1.24071 0.0133057 1.45679 0.0133057 1.67501C0.0133057 1.89322 0.0562864 2.10931 0.139795 2.31091C0.223303 2.51252 0.345703 2.6957 0.500006 2.85001L8.65001 11L0.500006 19.15C0.345703 19.3043 0.223303 19.4875 0.139795 19.6891C0.0562864 19.8907 0.0133057 20.1068 0.0133057 20.325C0.0133057 20.5432 0.0562864 20.7593 0.139795 20.9609C0.223303 21.1625 0.345703 21.3457 0.500006 21.5C0.654309 21.6543 0.837494 21.7767 1.0391 21.8602C1.24071 21.9437 1.45679 21.9867 1.67501 21.9867C1.89322 21.9867 2.10931 21.9437 2.31091 21.8602C2.51252 21.7767 2.6957 21.6543 2.85001 21.5L11 13.35L19.15 21.5C19.3043 21.6543 19.4875 21.7767 19.6891 21.8602C19.8907 21.9437 20.1068 21.9867 20.325 21.9867C20.5432 21.9867 20.7593 21.9437 20.9609 21.8602C21.1625 21.7767 21.3457 21.6543 21.5 21.5C21.6543 21.3457 21.7767 21.1625 21.8602 20.9609C21.9437 20.7593 21.9867 20.5432 21.9867 20.325C21.9867 20.1068 21.9437 19.8907 21.8602 19.6891C21.7767 19.4875 21.6543 19.3043 21.5 19.15L13.35 11L21.5 2.85001C22.1333 2.21667 22.1333 1.15001 21.5 0.516673Z" fill="#333333"/>
</svg>
