<svg width="23" height="26" viewBox="0 0 23 26" fill="none" xmlns="http://www.w3.org/2000/svg">
<path d="M13.1118 1.31481L12.6329 1.82529L13.1118 1.31481C12.4819 0.723742 11.5181 0.723742 10.8882 1.31481C9.86625 2.27359 7.79961 4.33312 5.98345 6.89897C4.18162 9.44459 2.55 12.594 2.55 15.7143C2.55 20.5938 6.83822 24.45 12 24.45C17.1618 24.45 21.45 20.5938 21.45 15.7143C21.45 12.594 19.8184 9.44459 18.0166 6.89897C16.2004 4.33312 14.1337 2.27359 13.1118 1.31481Z" stroke="#000104" stroke-width="1.4"/>
<path d="M12 20C11.3434 20 10.6932 19.8707 10.0866 19.6194C9.47995 19.3681 8.92876 18.9998 8.46447 18.5355C8.00017 18.0712 7.63188 17.52 7.3806 16.9134C7.12933 16.3068 7 15.6566 7 15" stroke="#F99C1B" stroke-width="1.4" stroke-linecap="round"/>
<rect x="0.157827" y="23.1103" width="28.9472" height="1.8" rx="0.9" transform="rotate(-43.8034 0.157827 23.1103)" fill="#000104" stroke="white" stroke-width="0.8"/>
</svg>
