<svg width="37" height="46" viewBox="0 0 37 46" fill="none" xmlns="http://www.w3.org/2000/svg">
<path d="M22.0513 23.9225C22.0657 23.8657 22.0685 23.8067 22.0593 23.7489C22.0502 23.6911 22.0294 23.6355 21.9982 23.5855C21.9669 23.5354 21.9257 23.4918 21.877 23.4572C21.8283 23.4225 21.7731 23.3975 21.7144 23.3835C21.6557 23.3695 21.5947 23.3669 21.535 23.3757C21.4752 23.3845 21.4179 23.4046 21.3662 23.4349C21.3144 23.4652 21.2694 23.505 21.2336 23.5521C21.1978 23.5992 21.1719 23.6527 21.1575 23.7095C21.1429 23.765 20.7622 25.0812 18.741 25.0812C16.7197 25.0812 16.3422 23.7691 16.3276 23.7136C16.299 23.5987 16.2244 23.4996 16.1202 23.438C16.0161 23.3764 15.8909 23.3573 15.7722 23.385C15.6536 23.4127 15.5511 23.4849 15.4875 23.5857C15.4238 23.6865 15.4041 23.8076 15.4328 23.9225C15.609 24.629 16.5289 25.9734 18.741 25.9734C20.953 25.9734 21.8771 24.629 22.0513 23.9225Z" fill="#F99C1B"/>
<path fill-rule="evenodd" clip-rule="evenodd" d="M15.0348 30.399C15.2042 30.0673 15.281 29.8559 15.2905 29.7732L16.2844 29.88C16.2528 30.1552 16.0933 30.5106 15.9312 30.8278C15.7574 31.1682 15.5368 31.5457 15.3232 31.8936C15.1088 32.2427 14.8975 32.5682 14.7402 32.806C14.6614 32.9251 14.5959 33.0226 14.5499 33.0904L14.4964 33.1691L14.4821 33.19L14.4773 33.197L14.3148 33.4328L14.0236 33.4117C11.9098 33.2588 8.76913 33.6991 6.23259 35.4919C3.72717 37.2627 1.74227 40.4009 1.98257 45.7961L0.983502 45.8378C0.730576 40.1592 2.83553 36.6945 5.6428 34.7104C8.30119 32.8314 11.5269 32.3237 13.8016 32.4291C13.8306 32.3858 13.8629 32.3372 13.898 32.2842C14.0515 32.0521 14.2565 31.7362 14.4635 31.3992C14.6713 31.0609 14.8772 30.7074 15.0348 30.399Z" fill="black"/>
<path fill-rule="evenodd" clip-rule="evenodd" d="M22.2152 30.399C22.0458 30.0673 21.969 29.8559 21.9595 29.7732L20.9656 29.88C20.9972 30.1552 21.1567 30.5106 21.3188 30.8278C21.4926 31.1682 21.7132 31.5457 21.9268 31.8936C22.1412 32.2427 22.3525 32.5682 22.5098 32.806C22.5886 32.9251 22.6541 33.0226 22.7001 33.0904L22.7536 33.1691L22.7679 33.19L22.7727 33.197L22.9352 33.4328L23.2264 33.4117C25.3402 33.2588 28.4809 33.6991 31.0174 35.4919C33.5228 37.2627 35.5077 40.4009 35.2674 45.7961L36.2665 45.8378C36.5194 40.1592 34.4145 36.6945 31.6072 34.7104C28.9488 32.8314 25.7231 32.3237 23.4484 32.4291C23.4194 32.3858 23.3871 32.3372 23.352 32.2842C23.1985 32.0521 22.9935 31.7362 22.7865 31.3992C22.5787 31.0609 22.3728 30.7074 22.2152 30.399Z" fill="black"/>
<g clip-path="url(#clip0_134_1116)">
<path d="M18.0215 0.19165C13.8965 0.19165 11.0965 1.74004 9.38148 3.81438C7.66648 5.88873 7.02148 8.4448 7.02148 10.5142C7.02148 12.8786 7.82648 15.7935 8.05148 16.5652C7.45148 16.8307 7.02148 17.4058 7.02148 18.0841C7.02148 18.4626 7.14648 18.8264 7.25148 19.1803C7.30648 19.3572 7.35648 19.5244 7.39148 19.6522C7.42648 19.7849 7.43648 19.9029 7.43648 19.8488C7.43648 20.6697 8.14148 21.3234 8.98148 21.3234H9.02148V21.348C9.02148 25.9047 12.3515 29.6897 16.7515 30.5105C17.2415 30.894 17.8465 31.1545 18.5215 31.1545C19.1965 31.1545 19.8065 30.894 20.2915 30.5105C24.6865 29.6946 28.0215 25.9047 28.0215 21.348V21.3234H28.0615C28.8965 21.3234 29.6065 20.6697 29.6065 19.8488C29.6065 19.9029 29.6165 19.78 29.6515 19.6522C29.6865 19.5244 29.7415 19.3572 29.7915 19.1803C29.8965 18.8264 30.0215 18.4626 30.0215 18.0841C30.0215 17.4451 29.6415 16.9044 29.1015 16.6193C29.3115 15.7001 30.0215 12.4854 30.0215 10.2783C30.0215 5.44142 26.8715 3.36216 24.3365 3.20486C24.1965 2.95417 23.8565 2.40855 23.0665 1.77445C22.0615 0.978133 20.4365 0.19165 18.0215 0.19165ZM18.0215 1.17475C20.2165 1.17475 21.5915 1.86293 22.4365 2.54127C23.2815 3.21469 23.5715 3.83896 23.5715 3.83896L23.7065 4.12406H24.0265C26.0615 4.12406 29.0265 5.67245 29.0265 10.2783C29.0265 12.3035 28.3065 15.6116 28.1165 16.4423C28.0865 16.4522 28.0565 16.4669 28.0265 16.4669V14.6875C28.0265 12.2297 27.0265 10.7109 26.0115 9.85555C25.0015 9.00517 23.9515 8.78397 23.9515 8.78397L23.6615 8.72499L23.4665 8.94618C23.4665 8.94618 22.9665 9.5213 21.8165 10.1357C20.6665 10.7502 18.8915 11.3794 16.4015 11.3794C15.1765 11.3794 13.4015 11.6006 11.8565 12.3969C10.4265 13.1391 9.25648 14.486 9.08648 16.4817C9.07648 16.4817 9.07148 16.4817 9.06648 16.4768C8.96148 16.113 8.02148 12.8294 8.02148 10.5093C8.02148 8.64634 8.62148 6.28689 10.1615 4.42882C11.6965 2.57076 14.1465 1.16984 18.0215 1.16984V1.17475ZM24.0215 5.10717C23.7465 5.10717 23.5215 5.32836 23.5215 5.59872C23.5215 5.86907 23.7465 6.09027 24.0215 6.09027C24.2965 6.09027 24.5215 5.86907 24.5215 5.59872C24.5215 5.32836 24.2965 5.10717 24.0215 5.10717ZM24.0215 7.07337C23.7465 7.07337 23.5215 7.29457 23.5215 7.56492C23.5215 7.83528 23.7465 8.05647 24.0215 8.05647C24.2965 8.05647 24.5215 7.83528 24.5215 7.56492C24.5215 7.29457 24.2965 7.07337 24.0215 7.07337ZM23.9665 9.83098C24.2165 9.90471 24.7165 10.0768 25.3565 10.6125C26.1815 11.3056 27.0215 12.4952 27.0215 14.6973V17.8236L27.7115 17.5532C27.9565 17.4549 28.1915 17.4009 28.2715 17.4009C28.7015 17.4009 29.0215 17.7155 29.0215 18.089C29.0215 18.1874 28.9365 18.5708 28.8315 18.9148C28.7765 19.0869 28.7265 19.254 28.6815 19.4064C28.6415 19.5588 28.6015 19.6718 28.6015 19.8586C28.6015 20.1241 28.3765 20.3502 28.0565 20.3502H27.0165V21.3579C27.0165 25.4771 23.9965 28.8786 20.0165 29.5766L19.8765 29.6012L19.7715 29.6946C19.4365 29.9944 19.0015 30.1763 18.5215 30.1763C18.0415 30.1763 17.6065 29.9944 17.2715 29.6946L17.1665 29.6012L17.0265 29.5766C13.0465 28.8786 10.0265 25.4771 10.0265 21.3579V20.3502H8.98648C8.67148 20.3502 8.44148 20.1241 8.44148 19.8586C8.44148 19.6669 8.40148 19.5588 8.36148 19.4064C8.31648 19.254 8.26648 19.082 8.21648 18.9148C8.11648 18.5708 8.02648 18.1874 8.02648 18.094C8.02648 17.7155 8.34648 17.4058 8.77648 17.4058C8.85648 17.4058 9.09148 17.4599 9.33648 17.5582L10.0265 17.8285V16.9536C10.0265 15.0316 11.0115 13.9698 12.3315 13.2817C13.6515 12.5935 15.3115 12.3772 16.4065 12.3772C19.0665 12.3772 21.0165 11.6989 22.2965 11.0156C23.2415 10.5093 23.7215 10.0817 23.9715 9.84081L23.9665 9.83098ZM16.0215 14.4466C14.7065 14.4466 13.7565 14.7072 13.1315 14.9824C12.5065 15.2577 12.1665 15.5772 12.1665 15.5772C12.0365 15.7001 11.9815 15.882 12.0315 16.054C12.0765 16.2261 12.2115 16.3588 12.3865 16.403C12.5615 16.4473 12.7465 16.3981 12.8715 16.2703C12.8715 16.2703 13.0315 16.0983 13.5315 15.882C14.0315 15.6657 14.8315 15.4347 16.0165 15.4347C16.1965 15.4347 16.3665 15.3462 16.4565 15.1889C16.5465 15.0365 16.5465 14.8448 16.4565 14.6924C16.3665 14.54 16.1965 14.4466 16.0165 14.4466H16.0215ZM21.0215 14.4466C20.8415 14.4466 20.6715 14.5351 20.5815 14.6924C20.4915 14.8448 20.4915 15.0365 20.5815 15.1889C20.6715 15.3413 20.8415 15.4347 21.0215 15.4347C22.2065 15.4347 23.0065 15.6657 23.5065 15.882C24.0065 16.0983 24.1665 16.2703 24.1665 16.2703C24.2915 16.3981 24.4765 16.4522 24.6515 16.403C24.8265 16.3588 24.9615 16.2261 25.0065 16.054C25.0515 15.882 25.0015 15.7001 24.8715 15.5772C24.8715 15.5772 24.5315 15.2577 23.9065 14.9824C23.2815 14.7072 22.3315 14.4466 21.0165 14.4466H21.0215ZM14.5215 17.8875C13.9665 17.8875 13.5215 18.325 13.5215 18.8706C13.5215 19.4162 13.9665 19.8537 14.5215 19.8537C15.0765 19.8537 15.5215 19.4162 15.5215 18.8706C15.5215 18.325 15.0765 17.8875 14.5215 17.8875ZM22.5215 17.8875C21.9665 17.8875 21.5215 18.325 21.5215 18.8706C21.5215 19.4162 21.9665 19.8537 22.5215 19.8537C23.0765 19.8537 23.5215 19.4162 23.5215 18.8706C23.5215 18.325 23.0765 17.8875 22.5215 17.8875Z" fill="black"/>
</g>
<defs>
<clipPath id="clip0_134_1116">
<rect width="35" height="30.9677" fill="white" transform="translate(1.02148 0.19165)"/>
</clipPath>
</defs>
</svg>
