<svg width="10" height="16" viewBox="0 0 10 16" fill="none" xmlns="http://www.w3.org/2000/svg">
<path d="M9.32342 0.00369527L7.24858 0.000366211C4.91758 0.000366211 3.41118 1.54588 3.41118 3.93797V5.75347H1.32503C1.14476 5.75347 0.998779 5.89962 0.998779 6.07989V8.71034C0.998779 8.89061 1.14493 9.03659 1.32503 9.03659H3.41118V15.6741C3.41118 15.8543 3.55716 16.0003 3.73743 16.0003H6.45926C6.63953 16.0003 6.78551 15.8542 6.78551 15.6741V9.03659H9.22471C9.40498 9.03659 9.55096 8.89061 9.55096 8.71034L9.55196 6.07989C9.55196 5.99333 9.5175 5.91044 9.45641 5.84918C9.39532 5.78793 9.3121 5.75347 9.22554 5.75347H6.78551V4.21445C6.78551 3.47474 6.96178 3.09922 7.92538 3.09922L9.32308 3.09872C9.50319 3.09872 9.64916 2.95257 9.64916 2.77247V0.329943C9.64916 0.150007 9.50335 0.00402817 9.32342 0.00369527Z" fill="#000104"/>
</svg>
