<svg width="32" height="29" viewBox="0 0 32 29" fill="none" xmlns="http://www.w3.org/2000/svg">
<ellipse cx="16" cy="14.5" rx="16" ry="14.5" fill="#DEDEDE"/>
<path d="M20.3247 7.25302L18.2498 7.25C15.9188 7.25 14.4124 8.65063 14.4124 10.8185V12.4638H12.3262C12.146 12.4638 12 12.5962 12 12.7596V15.1434C12 15.3068 12.1461 15.4391 12.3262 15.4391H14.4124V21.4543C14.4124 21.6177 14.5584 21.75 14.7387 21.75H17.4605C17.6408 21.75 17.7868 21.6176 17.7868 21.4543V15.4391H20.226C20.4062 15.4391 20.5522 15.3068 20.5522 15.1434L20.5532 12.7596C20.5532 12.6811 20.5188 12.606 20.4577 12.5505C20.3966 12.495 20.3133 12.4638 20.2268 12.4638H17.7868V11.069C17.7868 10.3987 17.963 10.0583 18.9266 10.0583L20.3243 10.0579C20.5044 10.0579 20.6504 9.92545 20.6504 9.76223V7.54868C20.6504 7.38561 20.5046 7.25332 20.3247 7.25302Z" fill="#2A2A2A"/>
</svg>
