<svg width="48" height="48" viewBox="0 0 48 48" fill="none" xmlns="http://www.w3.org/2000/svg">
<circle cx="24" cy="24" r="23.5" stroke="#333333" stroke-opacity="0.4"/>
<path d="M12.5723 14.8574H19.4294C20.6418 14.8574 21.8046 15.3391 22.6619 16.1964C23.5192 17.0537 24.0008 18.2164 24.0008 19.4289V35.4289C24.0008 34.5195 23.6396 33.6475 22.9966 33.0045C22.3537 32.3615 21.4816 32.0003 20.5723 32.0003H12.5723V14.8574Z" stroke="#333333" stroke-width="1.5" stroke-linecap="round" stroke-linejoin="round"/>
<path d="M35.4286 14.8574H28.5714C27.359 14.8574 26.1962 15.3391 25.3389 16.1964C24.4816 17.0537 24 18.2164 24 19.4289V35.4289C24 34.5195 24.3612 33.6475 25.0042 33.0045C25.6472 32.3615 26.5193 32.0003 27.4286 32.0003H35.4286V14.8574Z" stroke="#333333" stroke-width="1.5" stroke-linecap="round" stroke-linejoin="round"/>
</svg>
