<svg width="44" height="44" viewBox="0 0 44 44" fill="none" xmlns="http://www.w3.org/2000/svg">
<path d="M21.5 26.1143H13.5221C11.96 26.1143 11.1789 26.1143 10.8915 25.6081C10.604 25.1019 11.0042 24.4311 11.8045 23.0896L21.0706 7.55784L21.0706 7.55783C21.4454 6.92954 21.6329 6.61539 21.8164 6.66599C22 6.71659 22 7.08239 22 7.81401V17.3857C22 17.6214 22 17.7393 22.0732 17.8125C22.1464 17.8857 22.2643 17.8857 22.5 17.8857H30.4779C32.04 17.8857 32.8211 17.8857 33.1086 18.3919C33.396 18.8981 32.9958 19.5689 32.1955 20.9104L22.9294 36.4422C22.5546 37.0705 22.3671 37.3846 22.1836 37.334C22 37.2834 22 36.9176 22 36.186V26.6143C22 26.3786 22 26.2607 21.9268 26.1875C21.8536 26.1143 21.7357 26.1143 21.5 26.1143Z" stroke="#F99D1C" stroke-width="2"/>
<circle cx="22" cy="22" r="21" stroke="#000104" stroke-width="2"/>
</svg>
