<svg width="14" height="14" viewBox="0 0 14 14" fill="none" xmlns="http://www.w3.org/2000/svg">
<path d="M10.1364 0H3.86339C1.73312 0 0 1.7332 0 3.86347V10.1364C0 12.2668 1.73312 13.9999 3.86339 13.9999H10.1364C12.2668 13.9999 13.9999 12.2667 13.9999 10.1364V3.86347C14 1.7332 12.2668 0 10.1364 0ZM12.7579 10.1364C12.7579 11.5819 11.5819 12.7578 10.1364 12.7578H3.86339C2.41803 12.7579 1.24214 11.5819 1.24214 10.1364V3.86347C1.24214 2.41812 2.41803 1.24214 3.86339 1.24214H10.1364C11.5818 1.24214 12.7578 2.41812 12.7578 3.86347V10.1364H12.7579Z" fill="#2A2A2A"/>
<path d="M7 3.39258C5.01084 3.39258 3.39258 5.01084 3.39258 7C3.39258 8.98908 5.01084 10.6073 7 10.6073C8.98917 10.6073 10.6074 8.98908 10.6074 7C10.6074 5.01084 8.98917 3.39258 7 3.39258ZM7 9.36504C5.69584 9.36504 4.63472 8.30408 4.63472 6.99992C4.63472 5.69567 5.69576 4.63464 7 4.63464C8.30425 4.63464 9.36529 5.69567 9.36529 6.99992C9.36529 8.30408 8.30417 9.36504 7 9.36504Z" fill="#2A2A2A"/>
<path d="M10.7581 2.33984C10.5187 2.33984 10.2837 2.43673 10.1146 2.60649C9.9448 2.77542 9.84717 3.0106 9.84717 3.25075C9.84717 3.49015 9.94488 3.72524 10.1146 3.895C10.2836 4.06393 10.5187 4.16165 10.7581 4.16165C10.9982 4.16165 11.2326 4.06393 11.4023 3.895C11.5721 3.72524 11.669 3.49007 11.669 3.25075C11.669 3.0106 11.5721 2.77542 11.4023 2.60649C11.2334 2.43673 10.9982 2.33984 10.7581 2.33984Z" fill="#2A2A2A"/>
</svg>
