<svg width="28" height="28" viewBox="0 0 28 28" fill="none" xmlns="http://www.w3.org/2000/svg">
<circle cx="14" cy="14" r="14" fill="#F2EFFF"/>
<path d="M17.1364 7H10.8634C8.73312 7 7 8.7332 7 10.8635V17.1364C7 19.2668 8.73312 20.9999 10.8634 20.9999H17.1364C19.2668 20.9999 20.9999 19.2667 20.9999 17.1364V10.8635C21 8.7332 19.2668 7 17.1364 7ZM19.7579 17.1364C19.7579 18.5819 18.5819 19.7578 17.1364 19.7578H10.8634C9.41803 19.7579 8.24214 18.5819 8.24214 17.1364V10.8635C8.24214 9.41812 9.41803 8.24214 10.8634 8.24214H17.1364C18.5818 8.24214 19.7578 9.41812 19.7578 10.8635V17.1364H19.7579Z" fill="#2A2A2A"/>
<path d="M14 10.3926C12.0108 10.3926 10.3926 12.0108 10.3926 14C10.3926 15.9891 12.0108 17.6073 14 17.6073C15.9892 17.6073 17.6074 15.9891 17.6074 14C17.6074 12.0108 15.9892 10.3926 14 10.3926ZM14 16.365C12.6958 16.365 11.6347 15.3041 11.6347 13.9999C11.6347 12.6957 12.6958 11.6346 14 11.6346C15.3043 11.6346 16.3653 12.6957 16.3653 13.9999C16.3653 15.3041 15.3042 16.365 14 16.365Z" fill="#2A2A2A"/>
<path d="M17.7581 9.33984C17.5187 9.33984 17.2837 9.43673 17.1146 9.60649C16.9448 9.77542 16.8472 10.0106 16.8472 10.2507C16.8472 10.4901 16.9449 10.7252 17.1146 10.895C17.2836 11.0639 17.5187 11.1616 17.7581 11.1616C17.9982 11.1616 18.2326 11.0639 18.4023 10.895C18.5721 10.7252 18.669 10.4901 18.669 10.2507C18.669 10.0106 18.5721 9.77542 18.4023 9.60649C18.2334 9.43673 17.9982 9.33984 17.7581 9.33984Z" fill="#2A2A2A"/>
</svg>
