<svg width="36" height="36" viewBox="0 0 36 36" fill="none" xmlns="http://www.w3.org/2000/svg">
<path d="M7.39844 6.40039H26.5984C28.2553 6.40039 29.5984 7.74354 29.5984 9.40039V28.6004C29.5984 29.1527 29.1507 29.6004 28.5984 29.6004H7.39844C6.84615 29.6004 6.39844 29.1527 6.39844 28.6004V7.40039C6.39844 6.84811 6.84615 6.40039 7.39844 6.40039Z" stroke="#000104" stroke-width="2"/>
<path d="M12.6016 7.2V0" stroke="#000104" stroke-width="2"/>
<path d="M12.6016 36.0008V28.8008" stroke="#000104" stroke-width="2"/>
<path d="M23.3984 36.0008V28.8008" stroke="#000104" stroke-width="2"/>
<path d="M36.0008 23.4004L28.8008 23.4004" stroke="#000104" stroke-width="2"/>
<path d="M7.2 23.4004L0 23.4004" stroke="#000104" stroke-width="2"/>
<path d="M7.2 12.5996L0 12.5996" stroke="#000104" stroke-width="2"/>
<path d="M23.3984 1.80078H26.1984C29.9697 1.80078 31.8553 1.80078 33.0269 2.97235C34.1984 4.14393 34.1984 6.02954 34.1984 9.80078V12.6008" stroke="#F99C1B" stroke-width="2"/>
</svg>
