<svg width="14" height="14" viewBox="0 0 14 14" fill="none" xmlns="http://www.w3.org/2000/svg">
<path d="M3.25843 4.48926H0.44797C0.323237 4.48926 0.222168 4.59037 0.222168 4.71506V13.7439C0.222168 13.8686 0.323237 13.9697 0.44797 13.9697H3.25843C3.38317 13.9697 3.48424 13.8686 3.48424 13.7439V4.71506C3.48424 4.59037 3.38317 4.48926 3.25843 4.48926Z" fill="#2A2A2A"/>
<path d="M1.85431 0C0.831833 0 0 0.83093 0 1.85228C0 2.87407 0.831833 3.70532 1.85431 3.70532C2.87597 3.70532 3.70712 2.87403 3.70712 1.85228C3.70717 0.83093 2.87597 0 1.85431 0Z" fill="#2A2A2A"/>
<path d="M10.4078 4.26367C9.27906 4.26367 8.44464 4.74892 7.93852 5.30028V4.71388C7.93852 4.58919 7.83746 4.48807 7.71272 4.48807H5.02121C4.89648 4.48807 4.79541 4.58919 4.79541 4.71388V13.7427C4.79541 13.8674 4.89648 13.9685 5.02121 13.9685H7.82553C7.95027 13.9685 8.05134 13.8674 8.05134 13.7427V9.27552C8.05134 7.77019 8.46022 7.18374 9.50956 7.18374C10.6524 7.18374 10.7432 8.12389 10.7432 9.35297V13.7427C10.7432 13.8675 10.8443 13.9685 10.969 13.9685H13.7744C13.8991 13.9685 14.0002 13.8675 14.0002 13.7427V8.79027C14.0002 6.5519 13.5734 4.26367 10.4078 4.26367Z" fill="#2A2A2A"/>
</svg>
