<svg width="28" height="28" viewBox="0 0 28 28" fill="none" xmlns="http://www.w3.org/2000/svg">
<circle cx="14" cy="14" r="14" fill="#F2EFFF"/>
<path d="M10.2584 11.4893H7.44797C7.32324 11.4893 7.22217 11.5904 7.22217 11.7151V20.7439C7.22217 20.8686 7.32324 20.9697 7.44797 20.9697H10.2584C10.3832 20.9697 10.4842 20.8686 10.4842 20.7439V11.7151C10.4842 11.5904 10.3832 11.4893 10.2584 11.4893Z" fill="#2A2A2A"/>
<path d="M8.85431 7C7.83183 7 7 7.83093 7 8.85228C7 9.87407 7.83183 10.7053 8.85431 10.7053C9.87597 10.7053 10.7071 9.87403 10.7071 8.85228C10.7072 7.83093 9.87597 7 8.85431 7Z" fill="#2A2A2A"/>
<path d="M17.4078 11.2637C16.2791 11.2637 15.4446 11.7489 14.9385 12.3003V11.7139C14.9385 11.5892 14.8375 11.4881 14.7127 11.4881H12.0212C11.8965 11.4881 11.7954 11.5892 11.7954 11.7139V20.7427C11.7954 20.8674 11.8965 20.9685 12.0212 20.9685H14.8255C14.9503 20.9685 15.0513 20.8674 15.0513 20.7427V16.2755C15.0513 14.7702 15.4602 14.1837 16.5096 14.1837C17.6524 14.1837 17.7432 15.1239 17.7432 16.353V20.7427C17.7432 20.8675 17.8443 20.9685 17.969 20.9685H20.7744C20.8991 20.9685 21.0002 20.8675 21.0002 20.7427V15.7903C21.0002 13.5519 20.5734 11.2637 17.4078 11.2637Z" fill="#2A2A2A"/>
</svg>
