<svg width="26" height="25" viewBox="0 0 26 25" fill="none" xmlns="http://www.w3.org/2000/svg">
<path d="M13 5.22C13 4.9703 13 4.84544 13.0547 4.74488C13.1001 4.6614 13.1841 4.58463 13.2714 4.54691C13.3764 4.50146 13.4906 4.51176 13.719 4.53238C14.8723 4.63645 15.9922 4.98997 17 5.5718C18.2162 6.27394 19.2261 7.28385 19.9282 8.5C20.6304 9.71615 21 11.0957 21 12.5C21 13.9043 20.6304 15.2838 19.9282 16.5C19.2261 17.7162 18.2162 18.7261 17 19.4282C15.7838 20.1304 14.4043 20.5 13 20.5C11.5957 20.5 10.2162 20.1303 9 19.4282C7.99225 18.8464 7.12612 18.0532 6.45936 17.1065C6.3273 16.919 6.26127 16.8253 6.24809 16.7115C6.23716 16.6171 6.26164 16.506 6.31122 16.4249C6.37096 16.3273 6.47908 16.2649 6.69533 16.14L12.64 12.7078C12.7711 12.6321 12.8367 12.5943 12.8844 12.5413C12.9266 12.4944 12.9585 12.4392 12.978 12.3793C13 12.3115 13 12.2357 13 12.0843V5.22Z" fill="#F99C1B"/>
<circle cx="13.0002" cy="12.4997" r="11.3667" stroke="#000104" stroke-width="1.4"/>
</svg>
