<svg width="44" height="44" viewBox="0 0 44 44" fill="none" xmlns="http://www.w3.org/2000/svg">
<circle cx="21.8821" cy="21.8821" r="21.8821" fill="#000104"/>
<path d="M30.8508 13.1489L30.8508 13.1489C30.6914 12.9895 30.4752 12.9 30.2498 12.9C30.0245 12.9 29.8083 12.9895 29.6489 13.1489L29.6489 13.1489L21.9998 20.7979L14.3508 13.1489L14.3508 13.1489C14.1914 12.9895 13.9752 12.9 13.7498 12.9C13.5245 12.9 13.3083 12.9895 13.1489 13.1489L13.1489 13.1489C12.9895 13.3083 12.9 13.5245 12.9 13.7498C12.9 13.9752 12.9895 14.1914 13.1489 14.3508L13.1489 14.3508L20.7979 21.9998L13.1489 29.6489L13.1489 29.6489C12.9895 29.8083 12.9 30.0245 12.9 30.2498C12.9 30.4752 12.9895 30.6914 13.1489 30.8508L13.1489 30.8508C13.3083 31.0102 13.5245 31.0997 13.7498 31.0997C13.9752 31.0997 14.1914 31.0102 14.3508 30.8508L14.2801 30.7801L14.3508 30.8508L21.9998 23.2018L29.6489 30.8508L29.6489 30.8508C29.8083 31.0102 30.0245 31.0997 30.2498 31.0997C30.4752 31.0997 30.6914 31.0102 30.8508 30.8508L30.8508 30.8508C31.0102 30.6914 31.0997 30.4752 31.0997 30.2498C31.0997 30.0245 31.0102 29.8083 30.8508 29.6489L30.8508 29.6489L23.2018 21.9998L30.8508 14.3508L30.7801 14.2801L30.8508 14.3508C31.0102 14.1914 31.0997 13.9752 31.0997 13.7498C31.0997 13.5245 31.0102 13.3083 30.8508 13.1489Z" fill="#F99D1B" stroke="#F99D1B" stroke-width="0.2"/>
</svg>
