<svg width="26" height="18" viewBox="0 0 26 18" fill="none" xmlns="http://www.w3.org/2000/svg">
<path d="M25.7143 16.7207C25.7143 17.4279 25.1409 18 24.435 18H14.1364C13.7971 18 13.4717 17.8652 13.2318 17.6253C12.9919 17.3854 12.8571 17.06 12.8571 16.7207C12.8571 16.3814 12.9919 16.056 13.2318 15.8161C13.4717 15.5762 13.7971 15.4414 14.1364 15.4414H24.435C25.1421 15.4414 25.7143 16.0136 25.7143 16.7207ZM25.7143 9C25.7143 9.70714 25.1409 10.2793 24.435 10.2793H1.27929C0.939998 10.2793 0.614607 10.1445 0.374694 9.90459C0.134782 9.66468 0 9.33929 0 9C0 8.66071 0.134782 8.33532 0.374694 8.09541C0.614607 7.8555 0.939998 7.72071 1.27929 7.72071H24.435C25.1421 7.72071 25.7143 8.29414 25.7143 9ZM24.435 2.55857C24.7743 2.55857 25.0997 2.42379 25.3396 2.18388C25.5795 1.94396 25.7143 1.61857 25.7143 1.27929C25.7143 0.939998 25.5795 0.614606 25.3396 0.374694C25.0997 0.134781 24.7743 1.01116e-08 24.435 0H8.99357C8.82557 -5.00674e-09 8.65922 0.0330897 8.50401 0.0973798C8.3488 0.16167 8.20777 0.255901 8.08898 0.374694C7.97019 0.493487 7.87596 0.634514 7.81167 0.789724C7.74738 0.944935 7.71429 1.11129 7.71429 1.27929C7.71429 1.44728 7.74738 1.61364 7.81167 1.76885C7.87596 1.92406 7.97019 2.06508 8.08898 2.18388C8.20777 2.30267 8.3488 2.3969 8.50401 2.46119C8.65922 2.52548 8.82557 2.55857 8.99357 2.55857H24.435Z" fill="#333333"/>
</svg>
