<svg width="170" height="97" viewBox="0 0 170 97" fill="none" xmlns="http://www.w3.org/2000/svg">
<path d="M147.544 30.3926H35.4559C23.0538 30.3926 13 40.9048 13 53.8722V54.913C13 67.8804 23.0538 78.3926 35.4559 78.3926H147.544C159.946 78.3926 170 67.8804 170 54.913V53.8722C170 40.9048 159.946 30.3926 147.544 30.3926Z" fill="url(#paint0_linear_208_1982)"/>
<path d="M78.8931 63.5326C77.2531 63.5326 75.9065 63.1459 74.8531 62.3726C73.7998 61.5859 73.2331 60.4659 73.1531 59.0126H77.3331C77.3731 59.5059 77.5198 59.8659 77.7731 60.0926C78.0265 60.3192 78.3531 60.4326 78.7531 60.4326C79.1131 60.4326 79.4065 60.3459 79.6331 60.1726C79.8731 59.9859 79.9931 59.7326 79.9931 59.4126C79.9931 58.9992 79.7998 58.6792 79.4131 58.4526C79.0265 58.2259 78.3998 57.9726 77.5331 57.6926C76.6131 57.3859 75.8665 57.0926 75.2931 56.8126C74.7331 56.5192 74.2398 56.0992 73.8131 55.5526C73.3998 54.9926 73.1931 54.2659 73.1931 53.3726C73.1931 52.4659 73.4198 51.6926 73.8731 51.0526C74.3265 50.3992 74.9531 49.9059 75.7531 49.5726C76.5531 49.2392 77.4598 49.0726 78.4731 49.0726C80.1131 49.0726 81.4198 49.4592 82.3931 50.2326C83.3798 50.9926 83.9065 52.0659 83.9731 53.4526H79.7131C79.6998 53.0259 79.5665 52.7059 79.3131 52.4926C79.0731 52.2792 78.7598 52.1726 78.3731 52.1726C78.0798 52.1726 77.8398 52.2592 77.6531 52.4326C77.4665 52.6059 77.3731 52.8526 77.3731 53.1726C77.3731 53.4392 77.4731 53.6726 77.6731 53.8726C77.8865 54.0592 78.1465 54.2259 78.4531 54.3726C78.7598 54.5059 79.2131 54.6792 79.8131 54.8926C80.7065 55.1992 81.4398 55.5059 82.0131 55.8126C82.5998 56.1059 83.0998 56.5259 83.5131 57.0726C83.9398 57.6059 84.1531 58.2859 84.1531 59.1126C84.1531 59.9526 83.9398 60.7059 83.5131 61.3726C83.0998 62.0392 82.4931 62.5659 81.6931 62.9526C80.9065 63.3392 79.9731 63.5326 78.8931 63.5326ZM89.8955 52.4326V54.7326H94.3955V57.7126H89.8955V60.2526H94.9955V63.3926H85.9755V49.2926H94.9955V52.4326H89.8955ZM105.853 61.0926H100.853L100.093 63.3926H95.9725L101.113 49.2926H105.633L110.753 63.3926H106.613L105.853 61.0926ZM104.873 58.0926L103.353 53.5326L101.853 58.0926H104.873ZM117.35 63.5326C115.71 63.5326 114.363 63.1459 113.31 62.3726C112.257 61.5859 111.69 60.4659 111.61 59.0126H115.79C115.83 59.5059 115.977 59.8659 116.23 60.0926C116.483 60.3192 116.81 60.4326 117.21 60.4326C117.57 60.4326 117.863 60.3459 118.09 60.1726C118.33 59.9859 118.45 59.7326 118.45 59.4126C118.45 58.9992 118.257 58.6792 117.87 58.4526C117.483 58.2259 116.857 57.9726 115.99 57.6926C115.07 57.3859 114.323 57.0926 113.75 56.8126C113.19 56.5192 112.697 56.0992 112.27 55.5526C111.857 54.9926 111.65 54.2659 111.65 53.3726C111.65 52.4659 111.877 51.6926 112.33 51.0526C112.783 50.3992 113.41 49.9059 114.21 49.5726C115.01 49.2392 115.917 49.0726 116.93 49.0726C118.57 49.0726 119.877 49.4592 120.85 50.2326C121.837 50.9926 122.363 52.0659 122.43 53.4526H118.17C118.157 53.0259 118.023 52.7059 117.77 52.4926C117.53 52.2792 117.217 52.1726 116.83 52.1726C116.537 52.1726 116.297 52.2592 116.11 52.4326C115.923 52.6059 115.83 52.8526 115.83 53.1726C115.83 53.4392 115.93 53.6726 116.13 53.8726C116.343 54.0592 116.603 54.2259 116.91 54.3726C117.217 54.5059 117.67 54.6792 118.27 54.8926C119.163 55.1992 119.897 55.5059 120.47 55.8126C121.057 56.1059 121.557 56.5259 121.97 57.0726C122.397 57.6059 122.61 58.2859 122.61 59.1126C122.61 59.9526 122.397 60.7059 121.97 61.3726C121.557 62.0392 120.95 62.5659 120.15 62.9526C119.363 63.3392 118.43 63.5326 117.35 63.5326ZM131.193 63.5326C129.873 63.5326 128.659 63.2259 127.553 62.6126C126.446 61.9859 125.566 61.1259 124.913 60.0326C124.273 58.9259 123.953 57.6792 123.953 56.2926C123.953 54.9059 124.273 53.6659 124.913 52.5726C125.566 51.4659 126.446 50.6059 127.553 49.9926C128.659 49.3792 129.873 49.0726 131.193 49.0726C132.526 49.0726 133.739 49.3792 134.833 49.9926C135.939 50.6059 136.813 51.4659 137.453 52.5726C138.093 53.6659 138.413 54.9059 138.413 56.2926C138.413 57.6792 138.093 58.9259 137.453 60.0326C136.813 61.1259 135.939 61.9859 134.833 62.6126C133.726 63.2259 132.513 63.5326 131.193 63.5326ZM131.193 59.8926C132.193 59.8926 132.979 59.5659 133.553 58.9126C134.139 58.2592 134.433 57.3859 134.433 56.2926C134.433 55.1726 134.139 54.2926 133.553 53.6526C132.979 52.9992 132.193 52.6726 131.193 52.6726C130.179 52.6726 129.386 52.9992 128.813 53.6526C128.239 54.2926 127.953 55.1726 127.953 56.2926C127.953 57.3992 128.239 58.2792 128.813 58.9326C129.386 59.5726 130.179 59.8926 131.193 59.8926ZM153.235 63.3926H149.315L144.095 55.5126V63.3926H140.175V49.2926H144.095L149.315 57.2726V49.2926H153.235V63.3926Z" fill="white"/>
<rect x="68.4521" y="72.3926" width="80" height="20" rx="10" fill="url(#paint1_linear_208_1982)"/>
<path d="M86.9681 87.4906C86.0441 87.4906 85.1948 87.2759 84.4201 86.8466C83.6548 86.4172 83.0435 85.8199 82.5861 85.0546C82.1381 84.2799 81.9141 83.4119 81.9141 82.4506C81.9141 81.4892 82.1381 80.6259 82.5861 79.8606C83.0435 79.0952 83.6548 78.4979 84.4201 78.0686C85.1948 77.6392 86.0441 77.4246 86.9681 77.4246C87.8921 77.4246 88.7368 77.6392 89.5021 78.0686C90.2768 78.4979 90.8835 79.0952 91.3221 79.8606C91.7701 80.6259 91.9941 81.4892 91.9941 82.4506C91.9941 83.4119 91.7701 84.2799 91.3221 85.0546C90.8741 85.8199 90.2675 86.4172 89.5021 86.8466C88.7368 87.2759 87.8921 87.4906 86.9681 87.4906ZM86.9681 85.3066C87.7521 85.3066 88.3775 85.0452 88.8441 84.5226C89.3201 83.9999 89.5581 83.3092 89.5581 82.4506C89.5581 81.5826 89.3201 80.8919 88.8441 80.3786C88.3775 79.8559 87.7521 79.5946 86.9681 79.5946C86.1748 79.5946 85.5401 79.8512 85.0641 80.3646C84.5975 80.8779 84.3641 81.5732 84.3641 82.4506C84.3641 83.3186 84.5975 84.0139 85.0641 84.5366C85.5401 85.0499 86.1748 85.3066 86.9681 85.3066ZM100.284 77.5646V79.4826H96.28V81.5546H99.276V83.4166H96.28V87.3926H93.886V77.5646H100.284ZM108.5 77.5646V79.4826H104.496V81.5546H107.492V83.4166H104.496V87.3926H102.102V77.5646H108.5ZM112.713 79.4826V81.4706H115.919V83.3186H112.713V85.4746H116.339V87.3926H110.319V77.5646H116.339V79.4826H112.713ZM123.465 87.3926L121.421 83.6826H120.847V87.3926H118.453V77.5646H122.471C123.245 77.5646 123.903 77.6999 124.445 77.9706C124.995 78.2412 125.406 78.6146 125.677 79.0906C125.947 79.5572 126.083 80.0799 126.083 80.6586C126.083 81.3119 125.896 81.8952 125.523 82.4086C125.159 82.9219 124.617 83.2859 123.899 83.5006L126.167 87.3926H123.465ZM120.847 81.9886H122.331C122.769 81.9886 123.096 81.8812 123.311 81.6666C123.535 81.4519 123.647 81.1486 123.647 80.7566C123.647 80.3832 123.535 80.0892 123.311 79.8746C123.096 79.6599 122.769 79.5526 122.331 79.5526H120.847V81.9886ZM131.702 87.4906C130.983 87.4906 130.339 87.3739 129.77 87.1406C129.2 86.9072 128.743 86.5619 128.398 86.1046C128.062 85.6472 127.884 85.0966 127.866 84.4526H130.414C130.451 84.8166 130.577 85.0966 130.792 85.2926C131.006 85.4792 131.286 85.5726 131.632 85.5726C131.986 85.5726 132.266 85.4932 132.472 85.3346C132.677 85.1666 132.78 84.9379 132.78 84.6486C132.78 84.4059 132.696 84.2052 132.528 84.0466C132.369 83.8879 132.168 83.7572 131.926 83.6546C131.692 83.5519 131.356 83.4352 130.918 83.3046C130.283 83.1086 129.765 82.9126 129.364 82.7166C128.962 82.5206 128.617 82.2312 128.328 81.8486C128.038 81.4659 127.894 80.9666 127.894 80.3506C127.894 79.4359 128.225 78.7219 128.888 78.2086C129.55 77.6859 130.414 77.4246 131.478 77.4246C132.56 77.4246 133.433 77.6859 134.096 78.2086C134.758 78.7219 135.113 79.4406 135.16 80.3646H132.57C132.551 80.0472 132.434 79.7999 132.22 79.6226C132.005 79.4359 131.73 79.3426 131.394 79.3426C131.104 79.3426 130.871 79.4219 130.694 79.5806C130.516 79.7299 130.428 79.9492 130.428 80.2386C130.428 80.5559 130.577 80.8032 130.876 80.9806C131.174 81.1579 131.641 81.3492 132.276 81.5546C132.91 81.7692 133.424 81.9746 133.816 82.1706C134.217 82.3666 134.562 82.6512 134.852 83.0246C135.141 83.3979 135.286 83.8786 135.286 84.4666C135.286 85.0266 135.141 85.5352 134.852 85.9926C134.572 86.4499 134.161 86.8139 133.62 87.0846C133.078 87.3552 132.439 87.4906 131.702 87.4906Z" fill="white"/>
<path d="M68.3412 61.1926C71.2064 43.7533 59.3917 27.2933 41.9524 24.4281C24.5131 21.5629 8.05303 33.3776 5.18785 50.8169C2.32268 68.2562 14.1374 84.7162 31.5767 87.5814C49.016 90.4466 65.476 78.6319 68.3412 61.1926Z" fill="url(#paint2_linear_208_1982)"/>
<path d="M26.8228 69.4999C26.8197 69.7372 26.7462 69.9682 26.6118 70.1638C26.4774 70.3594 26.288 70.5108 26.0676 70.5987C25.8472 70.6867 25.6056 70.7073 25.3735 70.658C25.1413 70.6086 24.929 70.4916 24.7634 70.3216C24.5978 70.1516 24.4863 69.9364 24.443 69.703C24.3997 69.4697 24.4266 69.2287 24.5202 69.0106C24.6139 68.7926 24.7701 68.6072 24.9691 68.4779C25.1681 68.3486 25.401 68.2812 25.6383 68.2843C25.7962 68.2853 25.9523 68.3176 26.0976 68.3795C26.2429 68.4413 26.3745 68.5314 26.4847 68.6445C26.5949 68.7575 26.6815 68.8914 26.7395 69.0382C26.7976 69.1851 26.8259 69.342 26.8228 69.4999Z" fill="white"/>
<path d="M32.3618 69.5604C32.3587 69.7977 32.2853 70.0288 32.1509 70.2244C32.0165 70.42 31.8271 70.5713 31.6067 70.6593C31.3862 70.7472 31.1447 70.7678 30.9125 70.7185C30.6804 70.6692 30.468 70.5522 30.3024 70.3822C30.1368 70.2122 30.0253 69.9969 29.982 69.7636C29.9388 69.5302 29.9656 69.2893 30.0593 69.0712C30.1529 68.8531 30.3091 68.6677 30.5082 68.5384C30.7072 68.4092 30.9401 68.3418 31.1774 68.3448C31.335 68.3469 31.4906 68.3799 31.6354 68.4421C31.7802 68.5043 31.9114 68.5944 32.0214 68.7073C32.1314 68.8202 32.218 68.9536 32.2764 69.1C32.3349 69.2464 32.3639 69.4028 32.3618 69.5604Z" fill="white"/>
<path d="M37.8228 69.621C37.8213 69.8586 37.7492 70.0905 37.6157 70.2871C37.4822 70.4838 37.2933 70.6363 37.073 70.7255C36.8527 70.8146 36.6109 70.8363 36.3782 70.7879C36.1455 70.7394 35.9325 70.623 35.7661 70.4533C35.5997 70.2836 35.4874 70.0683 35.4435 69.8347C35.3996 69.6012 35.426 69.3598 35.5195 69.1413C35.6129 68.9228 35.7691 68.7369 35.9684 68.6073C36.1676 68.4777 36.4008 68.4101 36.6384 68.4132C36.9553 68.4173 37.2577 68.5466 37.4796 68.7729C37.7015 68.9992 37.8249 69.304 37.8228 69.621Z" fill="white"/>
<path d="M43.3628 69.6892C43.3597 69.9262 43.2865 70.157 43.1525 70.3524C43.0184 70.5479 42.8295 70.6992 42.6095 70.7874C42.3895 70.8756 42.1484 70.8967 41.9164 70.848C41.6845 70.7994 41.4721 70.6831 41.3062 70.5139C41.1402 70.3447 41.0281 70.1301 40.9839 69.8973C40.9397 69.6644 40.9655 69.4237 41.058 69.2055C41.1504 68.9873 41.3054 68.8013 41.5034 68.6711C41.7014 68.5408 41.9336 68.4721 42.1706 68.4737C42.3288 68.4747 42.4853 68.507 42.631 68.5687C42.7768 68.6304 42.9088 68.7204 43.0196 68.8334C43.1304 68.9464 43.2178 69.0801 43.2767 69.227C43.3356 69.3739 43.3649 69.531 43.3628 69.6892Z" fill="white"/>
<path d="M48.8238 69.7518C48.8222 69.9895 48.7502 70.2213 48.6167 70.418C48.4832 70.6146 48.2943 70.7672 48.074 70.8563C47.8537 70.9455 47.6118 70.9672 47.3792 70.9187C47.1465 70.8703 46.9335 70.7538 46.7671 70.5841C46.6007 70.4144 46.4884 70.1992 46.4445 69.9656C46.4006 69.732 46.427 69.4907 46.5205 69.2721C46.6139 69.0536 46.7701 68.8678 46.9693 68.7381C47.1685 68.6085 47.4018 68.541 47.6394 68.544C47.7966 68.5451 47.9521 68.5772 48.0969 68.6385C48.2416 68.6998 48.3728 68.7892 48.4829 68.9015C48.593 69.0137 48.6798 69.1467 48.7383 69.2926C48.7968 69.4386 48.8259 69.5946 48.8238 69.7518Z" fill="white"/>
<path d="M33.3618 74.4393C33.3587 74.6766 33.2853 74.9077 33.1509 75.1033C33.0165 75.2989 32.8271 75.4502 32.6067 75.5382C32.3862 75.6261 32.1447 75.6468 31.9125 75.5974C31.6804 75.5481 31.468 75.4311 31.3024 75.2611C31.1368 75.0911 31.0253 74.8758 30.982 74.6425C30.9388 74.4091 30.9656 74.1682 31.0593 73.9501C31.153 73.732 31.3091 73.5466 31.5082 73.4173C31.7072 73.288 31.9401 73.2207 32.1774 73.2237C32.335 73.2258 32.4906 73.2588 32.6354 73.321C32.7803 73.3832 32.9114 73.4733 33.0214 73.5862C33.1314 73.6991 33.218 73.8325 33.2765 73.9789C33.3349 74.1253 33.3639 74.2817 33.3618 74.4393Z" fill="white"/>
<path d="M38.8228 74.5096C38.8197 74.7469 38.7462 74.978 38.6118 75.1736C38.4774 75.3692 38.288 75.5205 38.0676 75.6085C37.8472 75.6964 37.6056 75.7171 37.3735 75.6677C37.1413 75.6184 36.929 75.5014 36.7634 75.3314C36.5978 75.1614 36.4863 74.9461 36.443 74.7128C36.3997 74.4794 36.4266 74.2385 36.5202 74.0204C36.6139 73.8023 36.7701 73.6169 36.9691 73.4876C37.1682 73.3583 37.401 73.291 37.6383 73.294C37.7959 73.2961 37.9516 73.3291 38.0964 73.3913C38.2412 73.4535 38.3723 73.5436 38.4823 73.6565C38.5923 73.7694 38.679 73.9028 38.7374 74.0492C38.7958 74.1956 38.8248 74.352 38.8228 74.5096Z" fill="white"/>
<path d="M44.3628 74.5701C44.3597 74.8071 44.2865 75.0378 44.1525 75.2333C44.0184 75.4287 43.8295 75.5801 43.6095 75.6683C43.3895 75.7565 43.1484 75.7776 42.9164 75.7289C42.6845 75.6802 42.4721 75.564 42.3062 75.3947C42.1402 75.2255 42.0281 75.011 41.9839 74.7781C41.9397 74.5453 41.9655 74.3046 42.058 74.0863C42.1504 73.8681 42.3054 73.6822 42.5034 73.5519C42.7014 73.4217 42.9336 73.353 43.1706 73.3545C43.3288 73.3555 43.4853 73.3878 43.631 73.4496C43.7768 73.5113 43.9088 73.6013 44.0196 73.7142C44.1304 73.8272 44.2178 73.961 44.2767 74.1079C44.3356 74.2548 44.3649 74.4119 44.3628 74.5701Z" fill="white"/>
<path d="M49.8238 74.6327C49.8222 74.8704 49.7501 75.1022 49.6166 75.2988C49.4831 75.4955 49.2943 75.648 49.074 75.7372C48.8537 75.8263 48.6118 75.8481 48.3792 75.7996C48.1465 75.7511 47.9335 75.6347 47.7671 75.465C47.6006 75.2953 47.4884 75.08 47.4445 74.8465C47.4006 74.6129 47.427 74.3715 47.5205 74.153C47.6139 73.9345 47.7701 73.7486 47.9693 73.619C48.1685 73.4894 48.4017 73.4218 48.6394 73.4249C48.9563 73.429 49.2587 73.5583 49.4806 73.7846C49.7025 74.0109 49.8259 74.3158 49.8238 74.6327Z" fill="white"/>
<path d="M55.353 74.7499C55.3499 74.9872 55.2765 75.2182 55.1421 75.4138C55.0077 75.6094 54.8183 75.7608 54.5979 75.8487C54.3774 75.9367 54.1359 75.9573 53.9037 75.908C53.6716 75.8586 53.4593 75.7416 53.2937 75.5716C53.128 75.4016 53.0165 75.1864 52.9732 74.953C52.93 74.7197 52.9569 74.4787 53.0505 74.2606C53.1442 74.0426 53.3004 73.8572 53.4994 73.7279C53.6984 73.5986 53.9313 73.5312 54.1686 73.5343C54.3262 73.5363 54.4819 73.5694 54.6267 73.6316C54.7715 73.6938 54.9026 73.7839 55.0126 73.8967C55.1226 74.0096 55.2093 74.1431 55.2677 74.2894C55.3261 74.4358 55.3551 74.5923 55.353 74.7499Z" fill="white"/>
<path d="M24.88 63.5336C23.56 63.5336 22.3467 63.2269 21.24 62.6136C20.1333 61.9869 19.2533 61.1269 18.6 60.0336C17.96 58.9269 17.64 57.6802 17.64 56.2936C17.64 54.9069 17.96 53.6669 18.6 52.5736C19.2533 51.4669 20.1333 50.6069 21.24 49.9936C22.3467 49.3802 23.56 49.0736 24.88 49.0736C26.2133 49.0736 27.4267 49.3802 28.52 49.9936C29.6267 50.6069 30.5 51.4669 31.14 52.5736C31.78 53.6669 32.1 54.9069 32.1 56.2936C32.1 57.6802 31.78 58.9269 31.14 60.0336C30.5 61.1269 29.6267 61.9869 28.52 62.6136C27.4133 63.2269 26.2 63.5336 24.88 63.5336ZM24.88 59.8936C25.88 59.8936 26.6667 59.5669 27.24 58.9136C27.8267 58.2602 28.12 57.3869 28.12 56.2936C28.12 55.1736 27.8267 54.2936 27.24 53.6536C26.6667 53.0002 25.88 52.6736 24.88 52.6736C23.8667 52.6736 23.0733 53.0002 22.5 53.6536C21.9267 54.2936 21.64 55.1736 21.64 56.2936C21.64 57.4002 21.9267 58.2802 22.5 58.9336C23.0733 59.5736 23.8667 59.8936 24.88 59.8936ZM43.4222 49.2936V52.4136H37.7822V54.8936H41.9422V57.8736H37.7822V63.3936H33.8622V49.2936H43.4222ZM54.6331 49.2936V52.4136H48.9931V54.8936H53.1531V57.8736H48.9931V63.3936H45.0731V49.2936H54.6331Z" fill="white"/>
<path d="M49.8731 14.1926C49.8731 13.3686 50.0571 12.6326 50.4251 11.9846C50.8011 11.3286 51.3091 10.8206 51.9491 10.4606C52.5971 10.0926 53.3211 9.90858 54.1211 9.90858C55.0571 9.90858 55.8771 10.1486 56.5811 10.6286C57.2851 11.1086 57.7771 11.7726 58.0571 12.6206H56.1251C55.9331 12.2206 55.6611 11.9206 55.3091 11.7206C54.9651 11.5206 54.5651 11.4206 54.1091 11.4206C53.6211 11.4206 53.1851 11.5366 52.8011 11.7686C52.4251 11.9926 52.1291 12.3126 51.9131 12.7286C51.7051 13.1446 51.6011 13.6326 51.6011 14.1926C51.6011 14.7446 51.7051 15.2326 51.9131 15.6566C52.1291 16.0726 52.4251 16.3966 52.8011 16.6286C53.1851 16.8526 53.6211 16.9646 54.1091 16.9646C54.5651 16.9646 54.9651 16.8646 55.3091 16.6646C55.6611 16.4566 55.9331 16.1526 56.1251 15.7526H58.0571C57.7771 16.6086 57.2851 17.2766 56.5811 17.7566C55.8851 18.2286 55.0651 18.4646 54.1211 18.4646C53.3211 18.4646 52.5971 18.2846 51.9491 17.9246C51.3091 17.5566 50.8011 17.0486 50.4251 16.4006C50.0571 15.7526 49.8731 15.0166 49.8731 14.1926ZM61.5321 17.0606H64.2921V18.3926H59.8521V10.0166H61.5321V17.0606ZM67.3999 10.0166V18.3926H65.7199V10.0166H67.3999ZM69.0117 14.1926C69.0117 13.3686 69.1957 12.6326 69.5637 11.9846C69.9397 11.3286 70.4477 10.8206 71.0877 10.4606C71.7357 10.0926 72.4597 9.90858 73.2597 9.90858C74.1957 9.90858 75.0157 10.1486 75.7197 10.6286C76.4237 11.1086 76.9157 11.7726 77.1957 12.6206H75.2637C75.0717 12.2206 74.7997 11.9206 74.4477 11.7206C74.1037 11.5206 73.7037 11.4206 73.2477 11.4206C72.7597 11.4206 72.3237 11.5366 71.9397 11.7686C71.5637 11.9926 71.2677 12.3126 71.0517 12.7286C70.8437 13.1446 70.7397 13.6326 70.7397 14.1926C70.7397 14.7446 70.8437 15.2326 71.0517 15.6566C71.2677 16.0726 71.5637 16.3966 71.9397 16.6286C72.3237 16.8526 72.7597 16.9646 73.2477 16.9646C73.7037 16.9646 74.1037 16.8646 74.4477 16.6646C74.7997 16.4566 75.0717 16.1526 75.2637 15.7526H77.1957C76.9157 16.6086 76.4237 17.2766 75.7197 17.7566C75.0237 18.2286 74.2037 18.4646 73.2597 18.4646C72.4597 18.4646 71.7357 18.2846 71.0877 17.9246C70.4477 17.5566 69.9397 17.0486 69.5637 16.4006C69.1957 15.7526 69.0117 15.0166 69.0117 14.1926ZM83.7187 18.3926L80.6707 14.6606V18.3926H78.9907V10.0166H80.6707V13.7726L83.7187 10.0166H85.7467L82.2907 14.1686L85.8427 18.3926H83.7187ZM97.4751 10.0166V18.3926H95.7951V14.8286H92.2071V18.3926H90.5271V10.0166H92.2071V13.4606H95.7951V10.0166H97.4751ZM101.169 11.3726V13.4726H103.989V14.8046H101.169V17.0246H104.349V18.3926H99.4886V10.0046H104.349V11.3726H101.169ZM110.555 18.3926L108.707 15.1286H107.915V18.3926H106.235V10.0166H109.379C110.027 10.0166 110.579 10.1326 111.035 10.3646C111.491 10.5886 111.831 10.8966 112.055 11.2886C112.287 11.6726 112.403 12.1046 112.403 12.5846C112.403 13.1366 112.243 13.6366 111.923 14.0846C111.603 14.5246 111.127 14.8286 110.495 14.9966L112.499 18.3926H110.555ZM107.915 13.8686H109.319C109.775 13.8686 110.115 13.7606 110.339 13.5446C110.563 13.3206 110.675 13.0126 110.675 12.6206C110.675 12.2366 110.563 11.9406 110.339 11.7326C110.115 11.5166 109.775 11.4086 109.319 11.4086H107.915V13.8686ZM115.963 11.3726V13.4726H118.783V14.8046H115.963V17.0246H119.143V18.3926H114.283V10.0046H119.143V11.3726H115.963ZM129.421 10.0166V11.3726H125.929V13.5206H128.605V14.8526H125.929V18.3926H124.249V10.0166H129.421ZM134.86 18.4766C134.076 18.4766 133.356 18.2926 132.7 17.9246C132.044 17.5566 131.524 17.0486 131.14 16.4006C130.756 15.7446 130.564 15.0046 130.564 14.1806C130.564 13.3646 130.756 12.6326 131.14 11.9846C131.524 11.3286 132.044 10.8166 132.7 10.4486C133.356 10.0806 134.076 9.89658 134.86 9.89658C135.652 9.89658 136.372 10.0806 137.02 10.4486C137.676 10.8166 138.192 11.3286 138.568 11.9846C138.952 12.6326 139.144 13.3646 139.144 14.1806C139.144 15.0046 138.952 15.7446 138.568 16.4006C138.192 17.0486 137.676 17.5566 137.02 17.9246C136.364 18.2926 135.644 18.4766 134.86 18.4766ZM134.86 16.9766C135.364 16.9766 135.808 16.8646 136.192 16.6406C136.576 16.4086 136.876 16.0806 137.092 15.6566C137.308 15.2326 137.416 14.7406 137.416 14.1806C137.416 13.6206 137.308 13.1326 137.092 12.7166C136.876 12.2926 136.576 11.9686 136.192 11.7446C135.808 11.5206 135.364 11.4086 134.86 11.4086C134.356 11.4086 133.908 11.5206 133.516 11.7446C133.132 11.9686 132.832 12.2926 132.616 12.7166C132.4 13.1326 132.292 13.6206 132.292 14.1806C132.292 14.7406 132.4 15.2326 132.616 15.6566C132.832 16.0806 133.132 16.4086 133.516 16.6406C133.908 16.8646 134.356 16.9766 134.86 16.9766ZM145.074 18.3926L143.226 15.1286H142.434V18.3926H140.754V10.0166H143.898C144.546 10.0166 145.098 10.1326 145.554 10.3646C146.01 10.5886 146.35 10.8966 146.574 11.2886C146.806 11.6726 146.922 12.1046 146.922 12.5846C146.922 13.1366 146.762 13.6366 146.442 14.0846C146.122 14.5246 145.646 14.8286 145.014 14.9966L147.018 18.3926H145.074ZM142.434 13.8686H143.838C144.294 13.8686 144.634 13.7606 144.858 13.5446C145.082 13.3206 145.194 13.0126 145.194 12.6206C145.194 12.2366 145.082 11.9406 144.858 11.7326C144.634 11.5166 144.294 11.4086 143.838 11.4086H142.434V13.8686Z" fill="#333333"/>
<path d="M27.502 14.3926H41.502" stroke="black" stroke-width="1.5"/>
<path d="M154.501 14.3926H168.501" stroke="black" stroke-width="1.5"/>
<defs>
<linearGradient id="paint0_linear_208_1982" x1="-2.73938" y1="37.8409" x2="164.94" y2="65.147" gradientUnits="userSpaceOnUse">
<stop stop-color="#FEBC10"/>
<stop offset="0.509073" stop-color="#F7941D"/>
</linearGradient>
<linearGradient id="paint1_linear_208_1982" x1="68.4521" y1="82.3867" x2="148.452" y2="82.3867" gradientUnits="userSpaceOnUse">
<stop/>
<stop offset="0.79" stop-color="#302D3E"/>
<stop offset="0.87" stop-color="#2F2C3D"/>
</linearGradient>
<linearGradient id="paint2_linear_208_1982" x1="4.79807" y1="55.9858" x2="68.7981" y2="55.9858" gradientUnits="userSpaceOnUse">
<stop/>
<stop offset="0.79" stop-color="#302D3E"/>
<stop offset="0.87" stop-color="#2F2C3D"/>
</linearGradient>
</defs>
</svg>
