<svg width="220" height="91" viewBox="0 0 220 91" fill="none" xmlns="http://www.w3.org/2000/svg">
<path d="M190.622 19.7266H44.9791C28.8644 19.7266 15.8008 32.4288 15.8008 48.0978V49.3554C15.8008 65.0243 28.8644 77.7266 44.9791 77.7266H190.622C206.737 77.7266 219.801 65.0243 219.801 49.3554V48.0978C219.801 32.4288 206.737 19.7266 190.622 19.7266Z" fill="url(#paint0_linear_134_2081)"/>
<path d="M78.9206 54.5171C82.2147 34.4674 68.6315 15.5435 48.5817 12.2494C28.532 8.95537 9.60807 22.5386 6.31402 42.5883C3.01996 62.6381 16.6032 81.562 36.6529 84.856C56.7027 88.1501 75.6266 74.5669 78.9206 54.5171Z" fill="url(#paint1_linear_134_2081)"/>
<rect x="93.8019" y="67.7266" width="80" height="20" rx="10" fill="url(#paint2_linear_134_2081)"/>
<path d="M26.8526 68.1765C26.8486 68.4811 26.7544 68.7776 26.5819 69.0286C26.4094 69.2796 26.1663 69.4739 25.8835 69.5867C25.6006 69.6996 25.2906 69.7261 24.9927 69.6628C24.6947 69.5995 24.4223 69.4493 24.2097 69.2311C23.9972 69.013 23.8541 68.7367 23.7985 68.4372C23.743 68.1378 23.7775 67.8285 23.8977 67.5487C24.0179 67.2688 24.2184 67.0309 24.4738 66.865C24.7292 66.699 25.028 66.6126 25.3326 66.6165C25.5352 66.6178 25.7356 66.6593 25.922 66.7387C26.1085 66.818 26.2773 66.9336 26.4187 67.0787C26.5601 67.2239 26.6713 67.3957 26.7458 67.5841C26.8202 67.7726 26.8566 67.9739 26.8526 68.1765Z" fill="white"/>
<path d="M32.3916 68.2371C32.3877 68.5416 32.2934 68.8381 32.1209 69.0891C31.9484 69.3402 31.7054 69.5344 31.4225 69.6473C31.1396 69.7602 30.8296 69.7866 30.5317 69.7233C30.2338 69.66 29.9613 69.5098 29.7488 69.2917C29.5362 69.0735 29.3931 68.7972 29.3376 68.4978C29.282 68.1983 29.3166 67.8891 29.4367 67.6092C29.5569 67.3294 29.7574 67.0915 30.0128 66.9255C30.2682 66.7596 30.5671 66.6731 30.8716 66.6771C31.0739 66.6797 31.2736 66.7221 31.4594 66.8019C31.6453 66.8817 31.8136 66.9974 31.9547 67.1422C32.0959 67.2871 32.2071 67.4583 32.2821 67.6462C32.357 67.834 32.3943 68.0348 32.3916 68.2371Z" fill="white"/>
<path d="M37.8527 68.2964C37.8507 68.6014 37.7582 68.8989 37.5868 69.1513C37.4155 69.4036 37.1731 69.5994 36.8904 69.7138C36.6077 69.8282 36.2973 69.8561 35.9987 69.7939C35.7001 69.7317 35.4267 69.5823 35.2132 69.3645C34.9996 69.1467 34.8555 68.8705 34.7992 68.5707C34.7429 68.271 34.7768 67.9612 34.8967 67.6808C35.0166 67.4004 35.2171 67.1618 35.4728 66.9955C35.7284 66.8291 36.0277 66.7425 36.3327 66.7464C36.7394 66.7517 37.1275 66.9176 37.4122 67.208C37.697 67.4984 37.8554 67.8897 37.8527 68.2964Z" fill="white"/>
<path d="M43.392 68.3669C43.388 68.671 43.2941 68.9671 43.1221 69.2179C42.95 69.4687 42.7076 69.663 42.4253 69.7762C42.143 69.8894 41.8335 69.9165 41.5358 69.854C41.2381 69.7915 40.9656 69.6423 40.7527 69.4251C40.5397 69.208 40.3958 68.9326 40.3391 68.6338C40.2824 68.335 40.3155 68.0261 40.4341 67.746C40.5528 67.466 40.7517 67.2274 41.0058 67.0602C41.2599 66.8931 41.5579 66.8049 41.862 66.8069C42.0651 66.8082 42.2659 66.8496 42.4529 66.9288C42.6399 67.0081 42.8094 67.1235 42.9516 67.2685C43.0938 67.4135 43.2059 67.5852 43.2815 67.7737C43.3571 67.9622 43.3946 68.1638 43.392 68.3669Z" fill="white"/>
<path d="M48.853 68.4273C48.851 68.7322 48.7585 69.0298 48.5872 69.2821C48.4159 69.5345 48.1735 69.7303 47.8908 69.8447C47.608 69.9591 47.2977 69.987 46.9991 69.9248C46.7005 69.8626 46.4271 69.7131 46.2135 69.4954C46 69.2776 45.8559 69.0013 45.7996 68.7016C45.7432 68.4018 45.7772 68.0921 45.8971 67.8117C46.017 67.5312 46.2175 67.2927 46.4731 67.1264C46.7288 66.96 47.0281 66.8733 47.3331 66.8773C47.5348 66.8786 47.7343 66.9198 47.9201 66.9985C48.1059 67.0772 48.2743 67.1919 48.4156 67.336C48.5568 67.48 48.6682 67.6506 48.7433 67.8379C48.8184 68.0252 48.8557 68.2255 48.853 68.4273Z" fill="white"/>
<path d="M33.3916 73.1169C33.3877 73.4215 33.2934 73.718 33.1209 73.969C32.9484 74.22 32.7054 74.4143 32.4225 74.5271C32.1396 74.64 31.8296 74.6665 31.5317 74.6032C31.2338 74.5399 30.9613 74.3897 30.7488 74.1715C30.5362 73.9534 30.3931 73.6771 30.3376 73.3777C30.282 73.0782 30.3166 72.769 30.4367 72.4891C30.5569 72.2093 30.7574 71.9713 31.0128 71.8054C31.2682 71.6395 31.5671 71.553 31.8716 71.557C32.0739 71.5596 32.2736 71.602 32.4594 71.6818C32.6453 71.7616 32.8136 71.8772 32.9547 72.0221C33.0959 72.167 33.2071 72.3382 33.2821 72.5261C33.357 72.7139 33.3943 72.9147 33.3916 73.1169Z" fill="white"/>
<path d="M38.8526 73.1873C38.8486 73.4918 38.7544 73.7883 38.5819 74.0393C38.4094 74.2904 38.1663 74.4846 37.8835 74.5974C37.6006 74.7103 37.2906 74.7368 36.9927 74.6735C36.6947 74.6102 36.4223 74.46 36.2097 74.2418C35.9972 74.0237 35.8541 73.7474 35.7985 73.4479C35.743 73.1485 35.7775 72.8393 35.8977 72.5594C36.0179 72.2796 36.2184 72.0416 36.4738 71.8757C36.7292 71.7098 37.028 71.6233 37.3326 71.6273C37.5348 71.6299 37.7346 71.6723 37.9204 71.7521C38.1063 71.8319 38.2745 71.9476 38.4157 72.0924C38.5568 72.2373 38.6681 72.4085 38.743 72.5964C38.818 72.7842 38.8552 72.985 38.8526 73.1873Z" fill="white"/>
<path d="M44.392 73.2467C44.388 73.5509 44.2941 73.847 44.1221 74.0978C43.95 74.3486 43.7076 74.5429 43.4253 74.6561C43.143 74.7693 42.8335 74.7963 42.5358 74.7339C42.2381 74.6714 41.9656 74.5222 41.7527 74.305C41.5397 74.0879 41.3958 73.8125 41.3391 73.5137C41.2824 73.2149 41.3155 72.906 41.4341 72.6259C41.5528 72.3459 41.7517 72.1072 42.0058 71.9401C42.2599 71.7729 42.5579 71.6848 42.862 71.6867C43.0651 71.688 43.2659 71.7295 43.4529 71.8087C43.6399 71.8879 43.8094 72.0034 43.9516 72.1484C44.0938 72.2934 44.2059 72.4651 44.2815 72.6536C44.3571 72.8421 44.3946 73.0437 44.392 73.2467Z" fill="white"/>
<path d="M49.853 73.3072C49.851 73.6122 49.7585 73.9097 49.5872 74.162C49.4159 74.4144 49.1735 74.6102 48.8908 74.7246C48.608 74.839 48.2977 74.8669 47.9991 74.8047C47.7005 74.7425 47.4271 74.593 47.2135 74.3753C47 74.1575 46.8559 73.8812 46.7996 73.5815C46.7432 73.2817 46.7772 72.972 46.8971 72.6916C47.017 72.4111 47.2175 72.1726 47.4731 72.0063C47.7288 71.8399 48.0281 71.7532 48.3331 71.7571C48.7397 71.7624 49.1278 71.9284 49.4126 72.2188C49.6974 72.5092 49.8557 72.9004 49.853 73.3072Z" fill="white"/>
<path d="M55.3822 73.4265C55.3783 73.7311 55.284 74.0276 55.1115 74.2786C54.939 74.5296 54.696 74.7239 54.4131 74.8367C54.1302 74.9496 53.8202 74.9761 53.5223 74.9128C53.2244 74.8495 52.9519 74.6993 52.7394 74.4811C52.5268 74.263 52.3837 73.9867 52.3282 73.6872C52.2726 73.3878 52.3072 73.0785 52.4273 72.7987C52.5475 72.5188 52.748 72.2809 53.0034 72.115C53.2588 71.949 53.5577 71.8626 53.8622 71.8665C54.0645 71.8691 54.2642 71.9116 54.4501 71.9914C54.6359 72.0712 54.8042 72.1868 54.9454 72.3317C55.0865 72.4765 55.1978 72.6478 55.2727 72.8356C55.3477 73.0235 55.3849 73.2243 55.3822 73.4265Z" fill="white"/>
<path d="M29.8328 58.9226C27.9848 58.9226 26.2861 58.4933 24.7368 57.6346C23.1874 56.7573 21.9554 55.5533 21.0408 54.0226C20.1448 52.4733 19.6968 50.7279 19.6968 48.7866C19.6968 46.8453 20.1448 45.1093 21.0408 43.5786C21.9554 42.0293 23.1874 40.8253 24.7368 39.9666C26.2861 39.1079 27.9848 38.6786 29.8328 38.6786C31.6994 38.6786 33.3981 39.1079 34.9288 39.9666C36.4781 40.8253 37.7008 42.0293 38.5968 43.5786C39.4928 45.1093 39.9408 46.8453 39.9408 48.7866C39.9408 50.7279 39.4928 52.4733 38.5968 54.0226C37.7008 55.5533 36.4781 56.7573 34.9288 57.6346C33.3794 58.4933 31.6808 58.9226 29.8328 58.9226ZM29.8328 53.8266C31.2328 53.8266 32.3341 53.3693 33.1368 52.4546C33.9581 51.5399 34.3688 50.3173 34.3688 48.7866C34.3688 47.2186 33.9581 45.9866 33.1368 45.0906C32.3341 44.1759 31.2328 43.7186 29.8328 43.7186C28.4141 43.7186 27.3034 44.1759 26.5008 45.0906C25.6981 45.9866 25.2968 47.2186 25.2968 48.7866C25.2968 50.3359 25.6981 51.5679 26.5008 52.4826C27.3034 53.3786 28.4141 53.8266 29.8328 53.8266Z" fill="white"/>
<path d="M55.7918 38.9866V43.3546H47.8958V46.8266H53.7198V50.9986H47.8958V58.7266H42.4078V38.9866H55.7918Z" fill="white"/>
<path d="M71.4872 38.9866V43.3546H63.5912V46.8266H69.4152V50.9986H63.5912V58.7266H58.1032V38.9866H71.4872Z" fill="white"/>
<path d="M112.318 82.8245C111.394 82.8245 110.545 82.6099 109.77 82.1805C109.005 81.7512 108.393 81.1539 107.936 80.3885C107.488 79.6139 107.264 78.7459 107.264 77.7845C107.264 76.8232 107.488 75.9599 107.936 75.1945C108.393 74.4292 109.005 73.8319 109.77 73.4025C110.545 72.9732 111.394 72.7585 112.318 72.7585C113.242 72.7585 114.087 72.9732 114.852 73.4025C115.627 73.8319 116.233 74.4292 116.672 75.1945C117.12 75.9599 117.344 76.8232 117.344 77.7845C117.344 78.7459 117.12 79.6139 116.672 80.3885C116.224 81.1539 115.617 81.7512 114.852 82.1805C114.087 82.6099 113.242 82.8245 112.318 82.8245ZM112.318 80.6405C113.102 80.6405 113.727 80.3792 114.194 79.8565C114.67 79.3339 114.908 78.6432 114.908 77.7845C114.908 76.9165 114.67 76.2259 114.194 75.7125C113.727 75.1899 113.102 74.9285 112.318 74.9285C111.525 74.9285 110.89 75.1852 110.414 75.6985C109.947 76.2119 109.714 76.9072 109.714 77.7845C109.714 78.6525 109.947 79.3479 110.414 79.8705C110.89 80.3839 111.525 80.6405 112.318 80.6405Z" fill="white"/>
<path d="M125.634 72.8985V74.8165H121.63V76.8885H124.626V78.7505H121.63V82.7265H119.236V72.8985H125.634Z" fill="white"/>
<path d="M133.85 72.8985V74.8165H129.846V76.8885H132.842V78.7505H129.846V82.7265H127.452V72.8985H133.85Z" fill="white"/>
<path d="M138.062 74.8165V76.8045H141.268V78.6525H138.062V80.8085H141.688V82.7265H135.668V72.8985H141.688V74.8165H138.062Z" fill="white"/>
<path d="M148.814 82.7265L146.77 79.0165H146.196V82.7265H143.802V72.8985H147.82C148.595 72.8985 149.253 73.0339 149.794 73.3045C150.345 73.5752 150.756 73.9485 151.026 74.4245C151.297 74.8912 151.432 75.4139 151.432 75.9925C151.432 76.6459 151.246 77.2292 150.872 77.7425C150.508 78.2559 149.967 78.6199 149.248 78.8345L151.516 82.7265H148.814ZM146.196 77.3225H147.68C148.119 77.3225 148.446 77.2152 148.66 77.0005C148.884 76.7859 148.996 76.4825 148.996 76.0905C148.996 75.7172 148.884 75.4232 148.66 75.2085C148.446 74.9939 148.119 74.8865 147.68 74.8865H146.196V77.3225Z" fill="white"/>
<path d="M157.051 82.8245C156.333 82.8245 155.689 82.7079 155.119 82.4745C154.55 82.2412 154.093 81.8959 153.747 81.4385C153.411 80.9812 153.234 80.4305 153.215 79.7865H155.763C155.801 80.1505 155.927 80.4305 156.141 80.6265C156.356 80.8132 156.636 80.9065 156.981 80.9065C157.336 80.9065 157.616 80.8272 157.821 80.6685C158.027 80.5005 158.129 80.2719 158.129 79.9825C158.129 79.7399 158.045 79.5392 157.877 79.3805C157.719 79.2219 157.518 79.0912 157.275 78.9885C157.042 78.8859 156.706 78.7692 156.267 78.6385C155.633 78.4425 155.115 78.2465 154.713 78.0505C154.312 77.8545 153.967 77.5652 153.677 77.1825C153.388 76.7999 153.243 76.3005 153.243 75.6845C153.243 74.7699 153.575 74.0559 154.237 73.5425C154.9 73.0199 155.763 72.7585 156.827 72.7585C157.91 72.7585 158.783 73.0199 159.445 73.5425C160.108 74.0559 160.463 74.7745 160.509 75.6985H157.919C157.901 75.3812 157.784 75.1339 157.569 74.9565C157.355 74.7699 157.079 74.6765 156.743 74.6765C156.454 74.6765 156.221 74.7559 156.043 74.9145C155.866 75.0639 155.777 75.2832 155.777 75.5725C155.777 75.8899 155.927 76.1372 156.225 76.3145C156.524 76.4919 156.991 76.6832 157.625 76.8885C158.26 77.1032 158.773 77.3085 159.165 77.5045C159.567 77.7005 159.912 77.9852 160.201 78.3585C160.491 78.7319 160.635 79.2125 160.635 79.8005C160.635 80.3605 160.491 80.8692 160.201 81.3265C159.921 81.7839 159.511 82.1479 158.969 82.4185C158.428 82.6892 157.789 82.8245 157.051 82.8245Z" fill="white"/>
<path d="M57.2924 5.82657C57.2924 8.75257 59.4344 10.8106 62.2484 10.8106C64.4184 10.8106 66.1824 9.66258 66.8404 7.64657H64.5864C64.1244 8.59857 63.2844 9.06057 62.2344 9.06057C60.5264 9.06057 59.3084 7.80057 59.3084 5.82657C59.3084 3.83857 60.5264 2.59257 62.2344 2.59257C63.2844 2.59257 64.1244 3.05457 64.5864 3.99257H66.8404C66.1824 1.99058 64.4184 0.828574 62.2484 0.828574C59.4344 0.828574 57.2924 2.90057 57.2924 5.82657Z" fill="#333333"/>
<path d="M68.9345 0.954575V10.7266H74.1145V9.17257H70.8945V0.954575H68.9345Z" fill="#333333"/>
<path d="M75.7802 10.7266H77.7402V0.954575H75.7802V10.7266Z" fill="#333333"/>
<path d="M79.6207 5.82657C79.6207 8.75257 81.7627 10.8106 84.5767 10.8106C86.7467 10.8106 88.5107 9.66258 89.1687 7.64657H86.9147C86.4527 8.59857 85.6127 9.06057 84.5627 9.06057C82.8547 9.06057 81.6367 7.80057 81.6367 5.82657C81.6367 3.83857 82.8547 2.59257 84.5627 2.59257C85.6127 2.59257 86.4527 3.05457 86.9147 3.99257H89.1687C88.5107 1.99058 86.7467 0.828574 84.5767 0.828574C81.7627 0.828574 79.6207 2.90057 79.6207 5.82657Z" fill="#333333"/>
<path d="M96.7788 10.7266H99.2568L95.1128 5.79857L99.1448 0.954575H96.7788L93.2228 5.33657V0.954575H91.2628V10.7266H93.2228V6.37257L96.7788 10.7266Z" fill="#333333"/>
<path d="M110.868 10.7266H112.828V0.954575H110.868V4.97258H106.682V0.954575H104.722V10.7266H106.682V6.56857H110.868V10.7266Z" fill="#333333"/>
<path d="M120.847 0.940574H115.177V10.7266H120.847V9.13057H117.137V6.54057H120.427V4.98657H117.137V2.53657H120.847V0.940574Z" fill="#333333"/>
<path d="M128.228 3.99257C128.228 4.87458 127.738 5.44858 126.646 5.44858H125.008V2.57857H126.646C127.738 2.57857 128.228 3.12457 128.228 3.99257ZM123.048 0.954575V10.7266H125.008V6.91857H125.932L128.088 10.7266H130.356L128.018 6.76458C129.586 6.34457 130.244 5.14057 130.244 3.95057C130.244 2.31258 129.068 0.954575 126.716 0.954575H123.048Z" fill="#333333"/>
<path d="M138.107 0.940574H132.437V10.7266H138.107V9.13057H134.397V6.54057H137.687V4.98657H134.397V2.53657H138.107V0.940574Z" fill="#333333"/>
<path d="M144.064 10.7266H146.024V6.59657H149.146V5.04257H146.024V2.53657H150.098V0.954575H144.064V10.7266Z" fill="#333333"/>
<path d="M161.442 5.81257C161.442 2.88657 159.23 0.814575 156.444 0.814575C153.686 0.814575 151.432 2.88657 151.432 5.81257C151.432 8.75257 153.686 10.8246 156.444 10.8246C159.216 10.8246 161.442 8.75257 161.442 5.81257ZM153.448 5.81257C153.448 3.82457 154.666 2.57857 156.444 2.57857C158.208 2.57857 159.426 3.82457 159.426 5.81257C159.426 7.80057 158.208 9.07457 156.444 9.07457C154.666 9.07457 153.448 7.80057 153.448 5.81257Z" fill="#333333"/>
<path d="M168.5 3.99257C168.5 4.87458 168.01 5.44858 166.918 5.44858H165.28V2.57857H166.918C168.01 2.57857 168.5 3.12457 168.5 3.99257ZM163.32 0.954575V10.7266H165.28V6.91857H166.204L168.36 10.7266H170.628L168.29 6.76458C169.858 6.34457 170.516 5.14057 170.516 3.95057C170.516 2.31258 169.34 0.954575 166.988 0.954575H163.32Z" fill="#333333"/>
<path d="M93.8187 58.9226C91.5227 58.9226 89.6374 58.3813 88.1627 57.2986C86.6881 56.1973 85.8947 54.6293 85.7827 52.5946H91.6347C91.6907 53.2853 91.8961 53.7893 92.2507 54.1066C92.6054 54.4239 93.0627 54.5826 93.6227 54.5826C94.1267 54.5826 94.5374 54.4613 94.8547 54.2186C95.1907 53.9573 95.3587 53.6026 95.3587 53.1546C95.3587 52.5759 95.0881 52.1279 94.5467 51.8106C94.0054 51.4933 93.1281 51.1386 91.9147 50.7466C90.6267 50.3173 89.5814 49.9066 88.7787 49.5146C87.9947 49.1039 87.3041 48.5159 86.7067 47.7506C86.1281 46.9666 85.8387 45.9493 85.8387 44.6986C85.8387 43.4293 86.1561 42.3466 86.7907 41.4506C87.4254 40.5359 88.3027 39.8453 89.4227 39.3786C90.5427 38.9119 91.8121 38.6786 93.2307 38.6786C95.5267 38.6786 97.3561 39.2199 98.7187 40.3026C100.1 41.3666 100.837 42.8693 100.931 44.8106H94.9667C94.9481 44.2133 94.7614 43.7653 94.4067 43.4666C94.0707 43.1679 93.6321 43.0186 93.0907 43.0186C92.6801 43.0186 92.3441 43.1399 92.0827 43.3826C91.8214 43.6253 91.6907 43.9706 91.6907 44.4186C91.6907 44.7919 91.8307 45.1186 92.1107 45.3986C92.4094 45.6599 92.7734 45.8933 93.2027 46.0986C93.6321 46.2853 94.2667 46.5279 95.1067 46.8266C96.3574 47.2559 97.3841 47.6853 98.1867 48.1146C99.0081 48.5253 99.7081 49.1133 100.287 49.8786C100.884 50.6253 101.183 51.5773 101.183 52.7346C101.183 53.9106 100.884 54.9653 100.287 55.8986C99.7081 56.8319 98.8587 57.5693 97.7387 58.1106C96.6374 58.6519 95.3307 58.9226 93.8187 58.9226Z" fill="white"/>
<path d="M109.222 43.3826V46.6026H115.522V50.7746H109.222V54.3306H116.362V58.7266H103.734V38.9866H116.362V43.3826H109.222Z" fill="white"/>
<path d="M131.562 55.5066H124.562L123.498 58.7266H117.73L124.926 38.9866H131.254L138.422 58.7266H132.626L131.562 55.5066ZM130.19 51.3066L128.062 44.9226L125.962 51.3066H130.19Z" fill="white"/>
<path d="M147.659 58.9226C145.363 58.9226 143.477 58.3813 142.003 57.2986C140.528 56.1973 139.735 54.6293 139.623 52.5946H145.475C145.531 53.2853 145.736 53.7893 146.091 54.1066C146.445 54.4239 146.903 54.5826 147.463 54.5826C147.967 54.5826 148.377 54.4613 148.695 54.2186C149.031 53.9573 149.199 53.6026 149.199 53.1546C149.199 52.5759 148.928 52.1279 148.387 51.8106C147.845 51.4933 146.968 51.1386 145.755 50.7466C144.467 50.3173 143.421 49.9066 142.619 49.5146C141.835 49.1039 141.144 48.5159 140.547 47.7506C139.968 46.9666 139.679 45.9493 139.679 44.6986C139.679 43.4293 139.996 42.3466 140.631 41.4506C141.265 40.5359 142.143 39.8453 143.263 39.3786C144.383 38.9119 145.652 38.6786 147.071 38.6786C149.367 38.6786 151.196 39.2199 152.559 40.3026C153.94 41.3666 154.677 42.8693 154.771 44.8106H148.807C148.788 44.2133 148.601 43.7653 148.247 43.4666C147.911 43.1679 147.472 43.0186 146.931 43.0186C146.52 43.0186 146.184 43.1399 145.923 43.3826C145.661 43.6253 145.531 43.9706 145.531 44.4186C145.531 44.7919 145.671 45.1186 145.951 45.3986C146.249 45.6599 146.613 45.8933 147.043 46.0986C147.472 46.2853 148.107 46.5279 148.947 46.8266C150.197 47.2559 151.224 47.6853 152.027 48.1146C152.848 48.5253 153.548 49.1133 154.127 49.8786C154.724 50.6253 155.023 51.5773 155.023 52.7346C155.023 53.9106 154.724 54.9653 154.127 55.8986C153.548 56.8319 152.699 57.5693 151.579 58.1106C150.477 58.6519 149.171 58.9226 147.659 58.9226Z" fill="white"/>
<path d="M167.038 58.9226C165.19 58.9226 163.491 58.4933 161.942 57.6346C160.393 56.7573 159.161 55.5533 158.246 54.0226C157.35 52.4733 156.902 50.7279 156.902 48.7866C156.902 46.8453 157.35 45.1093 158.246 43.5786C159.161 42.0293 160.393 40.8253 161.942 39.9666C163.491 39.1079 165.19 38.6786 167.038 38.6786C168.905 38.6786 170.603 39.1079 172.134 39.9666C173.683 40.8253 174.906 42.0293 175.802 43.5786C176.698 45.1093 177.146 46.8453 177.146 48.7866C177.146 50.7279 176.698 52.4733 175.802 54.0226C174.906 55.5533 173.683 56.7573 172.134 57.6346C170.585 58.4933 168.886 58.9226 167.038 58.9226ZM167.038 53.8266C168.438 53.8266 169.539 53.3693 170.342 52.4546C171.163 51.5399 171.574 50.3173 171.574 48.7866C171.574 47.2186 171.163 45.9866 170.342 45.0906C169.539 44.1759 168.438 43.7186 167.038 43.7186C165.619 43.7186 164.509 44.1759 163.706 45.0906C162.903 45.9866 162.502 47.2186 162.502 48.7866C162.502 50.3359 162.903 51.5679 163.706 52.4826C164.509 53.3786 165.619 53.8266 167.038 53.8266Z" fill="white"/>
<path d="M197.897 58.7266H192.409L185.101 47.6946V58.7266H179.613V38.9866H185.101L192.409 50.1586V38.9866H197.897V58.7266Z" fill="white"/>
<path d="M39.8512 5.72656H53.8512" stroke="black" stroke-width="1.5"/>
<path d="M186.85 5.72656H200.85" stroke="black" stroke-width="1.5"/>
<defs>
<linearGradient id="paint0_linear_134_2081" x1="-4.65039" y1="28.7266" x2="212.35" y2="66.7266" gradientUnits="userSpaceOnUse">
<stop stop-color="#FEBC10"/>
<stop offset="0.509073" stop-color="#F7941D"/>
</linearGradient>
<linearGradient id="paint1_linear_134_2081" x1="5.86589" y1="48.5309" x2="79.4459" y2="48.5309" gradientUnits="userSpaceOnUse">
<stop/>
<stop offset="0.79" stop-color="#302D3E"/>
<stop offset="0.87" stop-color="#2F2C3D"/>
</linearGradient>
<linearGradient id="paint2_linear_134_2081" x1="93.8019" y1="77.7207" x2="173.802" y2="77.7207" gradientUnits="userSpaceOnUse">
<stop/>
<stop offset="0.79" stop-color="#302D3E"/>
<stop offset="0.87" stop-color="#2F2C3D"/>
</linearGradient>
</defs>
</svg>
