<svg width="28" height="41" viewBox="0 0 28 41" fill="none" xmlns="http://www.w3.org/2000/svg">
<path d="M7.67062 24.7279C7.30995 24.7279 7.01709 24.435 7.01709 24.0743V6.92936C7.01709 5.27513 8.36307 3.93164 10.0148 3.93164C11.6665 3.93164 13.0128 5.27762 13.0128 6.92936V17.7832C13.0128 18.1439 12.72 18.4364 12.3593 18.4364C11.9987 18.4364 11.7061 18.1439 11.7061 17.7832V6.92936C11.7061 5.99649 10.9452 5.23592 10.0123 5.23592C9.07916 5.23592 8.3189 5.99648 8.3189 6.92936V24.0743C8.32423 24.435 8.03137 24.7279 7.6707 24.7279H7.67062Z" fill="#000104"/>
<path d="M17.0554 22.0682C16.6947 22.0682 16.4019 21.7757 16.4019 21.415V18.7491C16.4019 16.7446 14.9332 15.0746 13.015 14.7635V21.4149C13.015 21.7756 12.7221 22.0681 12.3615 22.0681C12.0008 22.0681 11.7083 21.7756 11.7083 21.4149V14.0578C11.7083 13.6972 12.0008 13.4043 12.3615 13.4043C15.3067 13.4043 17.7059 15.8009 17.7059 18.749V21.4149C17.7059 21.7756 17.4133 22.0681 17.0555 22.0681L17.0554 22.0682Z" fill="#000104"/>
<path d="M21.7467 20.5512C21.386 20.5512 21.0932 20.2587 21.0932 19.898C21.0932 18.2566 19.7579 16.921 18.1165 16.921H17.7059V19.898C17.7059 20.2587 17.4134 20.5512 17.0527 20.5512C16.692 20.5512 16.3992 20.2587 16.3992 19.898V16.2678C16.3992 15.9071 16.692 15.6143 17.0527 15.6143H18.1137C20.4738 15.6143 22.3948 17.5353 22.3948 19.8951C22.3973 20.2611 22.1073 20.5512 21.7467 20.5512Z" fill="#000104"/>
<path d="M26.438 22.0678C26.0774 22.0678 25.7848 21.7753 25.7848 21.4146C25.7848 19.7732 24.4492 18.4376 22.8078 18.4376H22.3976V21.4146C22.3976 21.7753 22.105 22.0678 21.7443 22.0678C21.3837 22.0678 21.0908 21.7753 21.0908 21.4146V17.7844C21.0908 17.4237 21.3837 17.1309 21.7443 17.1309H22.8078C25.168 17.1309 27.089 19.0519 27.089 21.412C27.0915 21.7752 26.7986 22.0678 26.438 22.0678L26.438 22.0678Z" fill="#000104"/>
<path d="M23.5161 40.9998H7.30733C6.98056 40.9998 6.70339 40.7569 6.65913 40.4329C5.69453 33.0681 1.26485 25.5227 0.817902 24.7778C-0.292632 23.6044 -0.2719 21.7461 0.877856 20.5989C2.04617 19.4306 3.94902 19.4306 5.11733 20.5989L8.13289 23.6176C8.38903 23.8709 8.38903 24.284 8.13289 24.5401C7.87958 24.7962 7.46649 24.7962 7.21039 24.5401L4.19451 21.5214C3.53345 20.8603 2.45928 20.8603 1.80043 21.5214C1.13937 22.1828 1.13937 23.2569 1.80043 23.9155C1.83716 23.9519 1.86855 23.9911 1.8946 24.0357C2.0933 24.3596 6.68276 31.8997 7.8718 39.6957H23.0199C23.4876 38.023 25.0608 32.3593 25.8032 29.3907C26.6422 26.0348 25.8032 21.5842 25.7957 21.5396C25.7276 21.1867 25.9602 20.8446 26.313 20.7765C26.6683 20.7059 27.0083 20.9413 27.0761 21.2941C27.1128 21.4874 27.9776 26.0716 27.0682 29.7099C26.1899 33.2199 24.1619 40.4536 24.1411 40.5267C24.0652 40.8064 23.809 40.9998 23.5165 40.9998L23.5161 40.9998Z" fill="#000104"/>
<path d="M14.9073 8.6499C14.8523 8.6499 14.7974 8.64205 14.74 8.62886C14.3925 8.53752 14.1831 8.17936 14.2745 7.83188C14.3711 7.46588 14.4182 7.08952 14.4182 6.70817C14.4182 4.28018 12.4426 2.3042 10.0146 2.3042C7.5866 2.3042 5.61094 4.28018 5.61094 6.70817C5.61094 7.08955 5.66022 7.46591 5.75439 7.83188C5.84574 8.17936 5.637 8.53751 5.2892 8.62886C4.9392 8.72052 4.58388 8.51147 4.49222 8.16367C4.36697 7.69063 4.3042 7.20188 4.3042 6.70816C4.3042 3.56138 6.86526 1 10.0117 1C13.1585 1 15.7199 3.56138 15.7199 6.70816C15.7199 7.19941 15.6571 7.69069 15.5319 8.16367C15.4612 8.45653 15.1973 8.6499 14.9073 8.6499Z" fill="#F99C1B" stroke="#F99C1B" stroke-width="0.5"/>
</svg>
