<svg width="41" height="54" viewBox="0 0 41 54" fill="none" xmlns="http://www.w3.org/2000/svg">
<path d="M12.2355 3.22483C12.8249 3.46046 14.6881 2.78329 15.546 2.41526C17.0065 2.88732 16.5084 3.63441 16.1882 4.02574C15.8681 4.41707 14.8245 5.25903 15.0498 5.62664L15.9392 6.83622C16.6223 8.31267 15.9629 8.03624 15.5479 7.71347C15.121 7.12475 14.7296 7.46817 14.5873 7.71347C14.2173 8.21605 15.0735 8.99824 15.5479 9.32651C18.7354 10.6169 18.726 11.1212 18.3228 11.212C18.0263 11.6033 17.3978 12.386 17.2555 12.386C16.6009 13.1544 17.6943 14.1055 18.3228 14.485C19.5181 16.0788 25.4853 16.62 28.3195 16.6914C28.4025 16.8335 28.5686 16.776 28.5686 15.4099C28.4547 13.4746 29.3512 14.4613 29.8137 15.1965C30.3829 16.3064 32.6597 15.8013 33.727 15.4099V13.809L34.9722 13.0855L36.2173 11.4255H37.2134C37.1897 11.2713 37.3557 10.9488 38.2095 10.8918C39.0634 10.8349 39.0396 11.6745 38.9211 12.1014C40.3441 12.6137 40.3441 13.4533 40.1662 13.809C40.3085 14.8905 38.7313 15.1846 37.9249 15.1965C37.9368 15.5285 37.9534 16.2424 37.9249 16.4416C37.8965 16.6409 37.7708 17.1413 37.7115 17.3666C38.053 19.5581 37.332 19.9162 36.9288 19.8213H36.2173C36.7581 23.1494 35.992 23.1766 35.5414 22.7741L34.6876 20.6653L33.727 21.9914C32.9586 21.8207 33.1934 20.4735 33.4068 19.8213C34.9722 19.1462 34.9129 18.3542 34.6876 18.0425L31.4502 18.5406L30.2406 16.6914C28.7891 15.7813 29.3512 17.545 29.8137 18.5406L28.9599 19.2165L29.9916 20.1059V21.4578C31.7277 23.5923 30.5964 24.2208 29.8137 24.2683C28.3338 23.5852 27.8689 25.4304 27.8215 26.4384L25.1533 28.2883L23.0543 31.0632L21.8448 31.6324C21.7309 32.9985 20.9909 33.4586 20.6352 33.5179C19.1837 33.461 18.4888 34.4429 18.3228 34.941C18.8351 37.6447 18.1093 39.2219 17.6824 39.6725V42.0205C17.3267 42.6372 16.5867 43.8989 16.4728 44.0127C16.359 44.1266 15.9036 44.4634 15.6902 44.6175C15.3771 45.7559 14.8008 46.0643 14.5518 46.0761C13.2141 46.9869 12.2393 43.4435 11.9192 41.558C11.3499 40.7991 10.1617 39.2243 9.9625 38.9966C9.76328 38.7689 9.52373 37.0755 9.42886 36.2573C9.42886 36.2573 6.97786 33.0188 6.86251 31.2767C6.74717 29.5345 7.3299 29.3556 7.3299 29.3556L6.86251 27.1499V25.1221C6.86251 23.386 6.43888 24.0192 6.22706 24.5529C6.28398 26.4855 4.11551 26.1408 3.02416 25.7269C0.945673 24.19 1.58964 23.8295 2.17144 23.8414C4.19213 23.756 3.58188 23.0943 3.02416 22.7741C0.804242 22.831 0.733784 22.3731 0.976045 22.1371C0.681686 20.7241 2.96297 20.5672 4.1404 20.6653C5.20002 20.1943 3.6989 17.8198 2.81589 16.6914C2.69815 14.5132 4.48325 15.097 5.39052 15.6612C5.39052 15.6612 5.96822 14.7456 6.86251 13.0855C7.75681 11.4255 8.99642 10.0683 8.99642 10.0683V8.44937C8.99642 8.44937 10.7648 8.23149 9.65873 7.71347C8.55261 7.19545 6.86251 6.09449 8.0401 4.99065C8.98217 4.10757 8.43263 3.44549 8.0401 3.22483C8.0401 3.22483 6.73991 2.68511 6.86251 2.41526C6.98511 2.1454 8.61063 0.147938 10.5421 1.09055C12.4735 2.03316 11.6219 2.83229 12.2355 3.22483Z" stroke="#000104" stroke-width="1.5"/>
<path d="M11 48.5668L14.8214 52.467C14.9195 52.5671 15.0805 52.5671 15.1786 52.467L22 45.5049" stroke="#F99C1B" stroke-width="2" stroke-linecap="round"/>
</svg>
