<svg width="40" height="39" viewBox="0 0 40 39" fill="none" xmlns="http://www.w3.org/2000/svg">
<path d="M37.9988 33.3542V28.0786C38.0208 27.2161 37.7158 26.3759 37.1418 25.7177C35.523 23.8616 29.9709 22.6742 27.7702 23.1302C26.0546 23.4856 24.8544 25.1624 23.6809 26.3024C19.1493 23.799 15.3972 20.1537 12.8204 15.7511C13.9938 14.6111 15.7197 13.4451 16.0856 11.7784C16.5543 9.64356 15.3363 4.27346 13.4426 2.69131C12.7766 2.13481 11.9249 1.83259 11.0465 1.84099H5.61622C3.54715 1.84288 1.82575 3.64939 2.01413 5.67463C2 23.1302 16 36.8851 34.0528 36.8713C36.1444 37.055 38.0072 35.3709 37.9988 33.3542Z" stroke="#FEC737" stroke-width="3" stroke-linecap="round" stroke-linejoin="round"/>
</svg>
