<svg width="34" height="27" viewBox="0 0 34 27" fill="none" xmlns="http://www.w3.org/2000/svg">
<rect x="1" y="1" width="32" height="24.7742" rx="1.5" stroke="#000104" stroke-width="2" stroke-linecap="round"/>
<path d="M6.16211 6.16113V5.16113H5.16211V6.16113H6.16211ZM12.6808 14.094C13.0713 14.4846 13.7045 14.4846 14.095 14.094C14.4855 13.7035 14.4855 13.0704 14.095 12.6798L12.6808 14.094ZM7.16211 13.3869V6.16113H5.16211V13.3869H7.16211ZM6.16211 7.16113H13.3879V5.16113H6.16211V7.16113ZM5.455 6.86824L12.6808 14.094L14.095 12.6798L6.86922 5.45403L5.455 6.86824Z" fill="#F99C1B"/>
<path d="M27.8379 20.6133V21.6133H28.8379V20.6133H27.8379ZM21.3192 12.6804C20.9287 12.2898 20.2955 12.2898 19.905 12.6804C19.5145 13.0709 19.5145 13.7041 19.905 14.0946L21.3192 12.6804ZM26.8379 13.3875V20.6133H28.8379V13.3875H26.8379ZM27.8379 19.6133H20.6121V21.6133H27.8379V19.6133ZM28.545 19.9062L21.3192 12.6804L19.905 14.0946L27.1308 21.3204L28.545 19.9062Z" fill="#F99C1B"/>
</svg>
