<svg width="39" height="39" viewBox="0 0 39 39" fill="none" xmlns="http://www.w3.org/2000/svg">
<path d="M1.82808 29.2494V7.31247C2.16458 7.31247 2.43744 7.03962 2.43744 6.70311C2.43744 6.3666 2.16458 6.09375 1.82808 6.09375H0.609359C0.272854 6.09375 0 6.3666 0 6.70311C0 7.03962 0.272854 7.31247 0.609359 7.31247V29.2494C0.272854 29.2494 0 29.5223 0 29.8588C0 30.1953 0.272854 30.4681 0.609359 30.4681H1.82808C2.16458 30.4681 2.43744 30.1953 2.43744 29.8588C2.43744 29.5223 2.16458 29.2494 1.82808 29.2494Z" fill="#F99C1B"/>
<path d="M20.1091 36.5613C19.8681 36.5627 19.6505 36.706 19.5539 36.9269L4.26559 31.2599V31.0771C4.26559 30.7406 3.99274 30.4677 3.65623 30.4677C3.31973 30.4677 3.04688 30.7406 3.04688 31.0771V32.2958C3.05041 32.5814 3.25172 32.8263 3.53137 32.8847C3.81102 32.9432 4.09366 32.7999 4.21145 32.5395L19.4998 38.2066V38.3894C19.4998 38.7259 19.7726 38.9987 20.1091 38.9987C20.4456 38.9987 20.7185 38.7259 20.7185 38.3894V37.1707C20.7185 37.0091 20.6543 36.854 20.54 36.7398C20.4258 36.6255 20.2707 36.5613 20.1091 36.5613Z" fill="#F99C1B"/>
<path d="M38.3897 26.8117C38.5513 26.8117 38.7064 26.7475 38.8206 26.6333C38.9349 26.519 38.9991 26.364 38.9991 26.2024V6.70289C38.9991 6.44527 38.8372 6.2154 38.5946 6.12889L21.5325 0.0352965C21.4 -0.0117655 21.2553 -0.0117655 21.1228 0.0352965L4.06077 6.12889C3.81811 6.2154 3.65625 6.44527 3.65625 6.70289V28.6398C3.65625 28.8974 3.81811 29.1273 4.06077 29.2138L21.1228 35.3074C21.2553 35.3547 21.4 35.3547 21.5325 35.3074L38.5946 29.2138C38.8372 29.1273 38.9994 28.8974 38.9994 28.6398C38.9994 28.3822 38.8372 28.1523 38.5946 28.0658L21.9371 22.1197V3.04637C21.9371 2.70986 21.6643 2.43701 21.3278 2.43701C20.9913 2.43701 20.7184 2.70986 20.7184 3.04637V22.1197L4.87507 27.775V7.1327L21.3278 1.25673L37.7805 7.1327V26.2025C37.7805 26.3641 37.8447 26.5192 37.9589 26.6334C38.0732 26.7477 38.2282 26.8119 38.3898 26.8119L38.3897 26.8117ZM21.3277 34.0864L14.6089 31.6868L21.3277 29.2872L28.0464 31.6868L21.3277 34.0864ZM29.8587 31.0397L23.1399 28.64L29.8587 26.2404L36.5775 28.64L29.8587 31.0397ZM21.3277 23.1939L28.0464 25.5935L21.3277 27.9931L14.6089 25.5935L21.3277 23.1939ZM12.7966 26.2407L19.5154 28.6403L12.7966 31.0399L6.07739 28.6403L12.7966 26.2407Z" fill="#000104"/>
<path d="M7.31248 25.5935C6.97598 25.5935 6.70312 25.3206 6.70312 24.9841V13.4063C6.70312 13.1438 6.87097 12.9109 7.11989 12.8279L12.6041 10.9999C12.7899 10.9381 12.9942 10.9691 13.1531 11.0839C13.312 11.1984 13.4061 11.3823 13.4061 11.5782V23.156C13.4061 23.4925 13.1332 23.7654 12.7967 23.7654C12.4602 23.7654 12.1874 23.4925 12.1874 23.156V12.4237L7.92184 13.8459V24.9843C7.92184 25.1458 7.85764 25.3009 7.74339 25.4152C7.62913 25.5294 7.47407 25.5936 7.31248 25.5936V25.5935Z" fill="#000104"/>
</svg>
