<svg width="36" height="29" viewBox="0 0 36 29" fill="none" xmlns="http://www.w3.org/2000/svg">
<rect x="1" y="1" width="34" height="26.3226" rx="1.5" stroke="#000104" stroke-width="2" stroke-linecap="round"/>
<path d="M6.4834 6.48108V5.48108H5.4834V6.48108H6.4834ZM13.4537 14.8656C13.8442 15.2561 14.4774 15.2561 14.8679 14.8656C15.2584 14.4751 15.2584 13.8419 14.8679 13.4514L13.4537 14.8656ZM7.4834 14.1585V6.48108H5.4834V14.1585H7.4834ZM6.4834 7.48108H14.1608V5.48108H6.4834V7.48108ZM5.77629 7.18819L13.4537 14.8656L14.8679 13.4514L7.19051 5.77397L5.77629 7.18819Z" fill="#F99C1B"/>
<path d="M29.5166 21.8386V22.8386H30.5166V21.8386H29.5166ZM22.5463 13.4541C22.1558 13.0636 21.5226 13.0636 21.1321 13.4541C20.7416 13.8446 20.7416 14.4778 21.1321 14.8683L22.5463 13.4541ZM28.5166 14.1612V21.8386H30.5166V14.1612H28.5166ZM29.5166 20.8386H21.8392V22.8386H29.5166V20.8386ZM30.2237 21.1315L22.5463 13.4541L21.1321 14.8683L28.8095 22.5457L30.2237 21.1315Z" fill="#F99C1B"/>
</svg>
