<svg width="38" height="37" viewBox="0 0 38 37" fill="none" xmlns="http://www.w3.org/2000/svg">
<path d="M1 4.19804C1 3.07794 1 2.51789 1.21799 2.09007C1.40973 1.71374 1.71569 1.40778 2.09202 1.21603C2.51984 0.998047 3.0799 0.998047 4.2 0.998047H33.8C34.9201 0.998047 35.4802 0.998047 35.908 1.21603C36.2843 1.40778 36.5903 1.71374 36.782 2.09007C37 2.51789 37 3.07794 37 4.19805V32.6368C37 33.7569 37 34.3169 36.782 34.7447C36.5903 35.1211 36.2843 35.427 35.908 35.6188C35.4802 35.8368 34.9201 35.8368 33.8 35.8368H4.2C3.07989 35.8368 2.51984 35.8368 2.09202 35.6188C1.71569 35.427 1.40973 35.1211 1.21799 34.7447C1 34.3169 1 33.7569 1 32.6368V4.19804Z" stroke="#000104" stroke-width="1.2" stroke-linecap="round"/>
<path d="M33 35.837L25 7.77246" stroke="#000104" stroke-width="1.2"/>
<path d="M37 6.80469L1 10.6757" stroke="#000104" stroke-width="1.2"/>
<path d="M21 22.4594C21 26.3741 16.7928 29.0415 15.4244 29.8056C15.1582 29.9543 14.8418 29.9543 14.5756 29.8056C13.2072 29.0415 9 26.3741 9 22.4594C9 18.8731 11.9072 16.4822 15 16.4822C18.2 16.4822 21 18.8731 21 22.4594Z" stroke="#F99C1B" stroke-width="1.2"/>
</svg>
