<svg width="36" height="47" viewBox="0 0 36 47" fill="none" xmlns="http://www.w3.org/2000/svg">
<path d="M32.5155 35.9934C30.3754 33.6872 27.1965 32.5426 23.0477 32.5931C22.6628 32.2762 21.4395 31.1458 21.3279 29.539C23.8674 28.4288 25.9669 26.1649 27.21 23.2662C27.5588 23.3518 27.9172 23.3955 28.277 23.3964C29.3522 23.3964 30.5579 22.9866 31.1607 21.5655C31.4809 20.8015 32.1192 18.905 31.1284 17.7655C30.6152 17.1751 29.7819 16.9319 28.6493 17.0398C29.6766 16.1698 29.9916 15.425 30.0187 15.3493C30.027 15.328 30.0333 15.306 30.0375 15.2837V15.2675C30.0429 15.2413 30.0457 15.2146 30.0458 15.1878V11.5816C30.0464 11.3489 29.9802 11.1207 29.8546 10.9224C29.729 10.724 29.549 10.5633 29.3345 10.4582C29.1718 4.49731 24.3378 0.19165 17.7203 0.19165C11.1029 0.19165 6.26259 4.50034 6.10615 10.4754C5.90268 10.5846 5.73322 10.7447 5.61545 10.9389C5.49768 11.1331 5.43591 11.3544 5.43658 11.5795V15.1858C5.43725 15.2125 5.44003 15.2392 5.44493 15.2655V15.2816C5.44946 15.3041 5.45609 15.326 5.46474 15.3473C5.49499 15.4219 5.81934 16.1799 6.86124 17.058C5.69106 16.9228 4.84002 17.1488 4.32794 17.7373C3.40598 18.797 3.95561 20.5875 4.36548 21.5625C4.9683 22.9977 6.16769 23.4085 7.22627 23.4085C7.58217 23.4068 7.93644 23.3617 8.28068 23.2743C9.52491 26.1679 11.6181 28.4217 14.1587 29.5319C14.044 31.1306 12.8216 32.2671 12.4368 32.5871C8.28277 32.5305 5.10702 33.6821 2.96899 35.9864C-0.675045 39.9115 0.0487566 45.7311 0.0758731 45.9784C0.0889478 46.0863 0.142648 46.1858 0.226719 46.2579C0.31079 46.3299 0.41934 46.3695 0.531637 46.369H0.591084C0.651216 46.3619 0.709297 46.3433 0.761959 46.3144C0.814621 46.2854 0.860819 46.2466 0.897876 46.2002C0.934932 46.1538 0.96211 46.1008 0.977836 46.0442C0.993562 45.9876 0.997523 45.9285 0.989488 45.8704C0.982187 45.8149 0.28759 40.2133 3.6542 36.5849C4.59345 35.5826 5.76314 34.8081 7.06879 34.3241V45.9259C7.06879 46.044 7.11724 46.1572 7.2035 46.2407C7.28975 46.3241 7.40674 46.371 7.52872 46.371C7.6507 46.371 7.76769 46.3241 7.85395 46.2407C7.9402 46.1572 7.98866 46.044 7.98866 45.9259V42.0099H15.5948L17.2938 46.3498C17.3255 46.4357 17.3838 46.51 17.4608 46.5625C17.5378 46.6151 17.6298 46.6433 17.724 46.6433C17.8182 46.6433 17.9101 46.6151 17.9871 46.5625C18.0642 46.51 18.1225 46.4357 18.1542 46.3498L19.9095 41.8726H27.4979V45.9259C27.4979 46.044 27.5464 46.1572 27.6326 46.2407C27.7189 46.3241 27.8358 46.371 27.9578 46.371C28.0798 46.371 28.1968 46.3241 28.2831 46.2407C28.3693 46.1572 28.4178 46.044 28.4178 45.9259V34.3251C29.7227 34.8089 30.8919 35.5826 31.8313 36.5839C35.1948 40.2012 34.5075 45.8149 34.5002 45.8694C34.4922 45.9275 34.4961 45.9866 34.5118 46.0432C34.5276 46.0998 34.5548 46.1528 34.5918 46.1992C34.6289 46.2456 34.6751 46.2844 34.7277 46.3134C34.7804 46.3423 34.8385 46.3609 34.8986 46.368H34.958C35.07 46.3685 35.1783 46.3293 35.2623 46.2576C35.3464 46.186 35.4003 46.087 35.4138 45.9794C35.4409 45.7372 36.1595 39.9176 32.5155 35.9934ZM30.4233 18.3408C30.9698 18.9676 30.7216 20.2434 30.3097 21.2304C29.7058 22.6647 28.2665 22.5738 27.5417 22.4244C28.0506 20.9869 28.3449 19.4864 28.4157 17.9684C29.1624 17.8523 30.0072 17.8604 30.4233 18.3408ZM20.9253 1.47749C25.2712 2.58772 28.2259 5.95474 28.4146 10.33H20.9253V1.47749ZM15.4415 1.27564C16.9507 1.01624 18.4952 1.01624 20.0044 1.27564V10.328H15.4415V1.27564ZM14.5237 1.47749H14.5289V10.33H7.03541C7.22314 5.95777 10.1809 2.5857 14.5237 1.47749ZM6.36167 14.7386V11.5795C6.35854 11.4881 6.39263 11.3991 6.4566 11.3317C6.52058 11.2643 6.60932 11.2239 6.70376 11.2192H28.7838C28.8784 11.2239 28.9672 11.2643 29.0314 11.3316C29.0955 11.399 29.1298 11.488 29.127 11.5795V14.7417L6.36167 14.7386ZM6.73713 15.6299H28.7599C27.8306 16.7562 25.0501 19.0524 17.809 19.0524H17.688C10.4427 19.0544 7.6643 16.7572 6.73713 15.6319V15.6299ZM5.2207 21.2274C4.66481 19.9022 4.59493 18.8172 5.0361 18.3126C5.44389 17.8432 6.321 17.8614 7.07504 17.9906C7.149 19.5037 7.44467 20.9989 7.9532 22.4315C7.2659 22.5829 5.83499 22.6869 5.2207 21.2294V21.2274ZM7.99074 17.8564C9.13172 18.5437 10.7702 19.2038 13.0813 19.5913V20.8681C13.087 20.9826 13.1379 21.0906 13.2237 21.1698C13.3094 21.2489 13.4233 21.293 13.5418 21.293C13.6603 21.293 13.7742 21.2489 13.8599 21.1698C13.9456 21.0906 13.9966 20.9826 14.0023 20.8681V19.7266C15.2232 19.8769 16.453 19.9508 17.6838 19.9476H17.8038C19.0346 19.9507 20.2644 19.8769 21.4853 19.7266V20.8701C21.491 20.9846 21.542 21.0927 21.6277 21.1718C21.7134 21.2509 21.8273 21.295 21.9458 21.295C22.0643 21.295 22.1782 21.2509 22.2639 21.1718C22.3497 21.0927 22.4006 20.9846 22.4063 20.8701V19.5924C24.7174 19.2048 26.3517 18.5457 27.4969 17.8584C27.2111 24.2876 22.9455 29.4078 17.7433 29.4078C12.5411 29.4078 8.27547 24.2876 7.99074 17.8584V17.8564ZM7.99074 34.0152C9.38214 33.6391 10.8223 33.4593 12.2668 33.4813L13.8312 37.4932H7.9897L7.99074 34.0152ZM7.99074 41.1176V38.3875H14.1816L15.2507 41.1196L7.99074 41.1176ZM19.2013 41.1731C19.1521 41.2377 19.1224 41.3142 19.1158 41.3942L17.7266 44.9358L13.1377 33.1896C13.6654 32.7344 14.8293 31.5576 15.0556 29.8781C16.8032 30.4403 18.6917 30.4403 20.4393 29.8781C20.6635 31.5354 21.7909 32.7041 22.3322 33.1714L20.6207 37.5488C20.5719 37.6135 20.5424 37.6899 20.5352 37.7698L19.2013 41.1731ZM27.4906 40.9834H20.2536L21.3226 38.2553H27.4937L27.4906 40.9834ZM27.4906 37.36H21.671L23.1874 33.4823C24.7866 33.4749 26.2224 33.6535 27.4948 34.0182L27.4906 37.36Z" fill="#000104"/>
<path d="M21.0513 23.9225C21.0657 23.8657 21.0685 23.8067 21.0593 23.7489C21.0502 23.6911 21.0294 23.6355 20.9982 23.5855C20.9669 23.5354 20.9257 23.4918 20.877 23.4572C20.8283 23.4225 20.7731 23.3975 20.7144 23.3835C20.6557 23.3695 20.5947 23.3669 20.535 23.3757C20.4752 23.3845 20.4179 23.4046 20.3662 23.4349C20.3144 23.4652 20.2694 23.505 20.2336 23.5521C20.1978 23.5992 20.1719 23.6527 20.1575 23.7095C20.1429 23.765 19.7622 25.0812 17.741 25.0812C15.7197 25.0812 15.3422 23.7691 15.3276 23.7136C15.299 23.5987 15.2244 23.4996 15.1202 23.438C15.0161 23.3764 14.8909 23.3573 14.7722 23.385C14.6536 23.4127 14.5511 23.4849 14.4875 23.5857C14.4238 23.6865 14.4041 23.8076 14.4328 23.9225C14.609 24.629 15.5289 25.9734 17.741 25.9734C19.953 25.9734 20.8771 24.629 21.0513 23.9225Z" fill="#F99C1B"/>
</svg>
