<svg width="36" height="37" viewBox="0 0 36 37" fill="none" xmlns="http://www.w3.org/2000/svg">
<mask id="path-1-inside-1_134_1723" fill="white">
<path fill-rule="evenodd" clip-rule="evenodd" d="M21.0626 18.7843C23.104 19.3107 25.7856 20.1142 28.4234 21.6712C29.4903 22.2994 32.23 23.9151 32.23 28.0624C32.23 31.651 29.4 33.8194 27.7163 34.7927C26.1795 35.6885 24.3939 36.223 22.9447 36.223C22.139 36.2354 21.352 35.9833 20.7076 35.5065C20.0057 34.9795 19.5258 34.2158 19.3596 33.3617C19.3175 33.1517 19.2964 32.9382 19.2967 32.7241C19.2989 31.9687 19.5551 31.2353 20.0251 30.6386C21.1125 29.2049 21.2007 28.6408 21.2007 28.0995L21.2076 28.0018C21.2076 27.9647 21.2978 27.0662 20.4676 25.6507L20.4053 25.5759C20.3151 25.4579 20.1885 25.2921 20.06 25.1142C19.9901 25.0228 19.9395 24.9185 19.9112 24.8075C19.8828 24.6965 19.8773 24.5811 19.8949 24.468C19.9125 24.3549 19.9529 24.2463 20.0137 24.1488C20.0745 24.0513 20.1544 23.9668 20.2489 23.9002C20.3433 23.8336 20.4503 23.7863 20.5636 23.7611C20.6768 23.7359 20.7941 23.7332 20.9084 23.7533C21.0227 23.7734 21.1318 23.8159 21.2292 23.8781C21.3266 23.9404 21.4104 24.0213 21.4756 24.1159C21.5953 24.2811 21.713 24.4348 21.7964 24.5433C21.8942 24.672 21.9585 24.7623 21.9722 24.788C22.9782 26.5007 22.9768 27.7396 22.9426 28.1413C22.933 29.275 22.5323 30.2032 21.4182 31.6672C21.1771 31.9688 21.0435 32.3402 21.0379 32.7241C21.0376 32.8271 21.0477 32.9298 21.068 33.0308C21.1513 33.4734 21.3987 33.8696 21.7622 34.1423C22.1034 34.3907 22.5192 34.5193 22.9433 34.5076C24.0779 34.5076 25.5681 34.0499 26.832 33.3139C28.1998 32.5253 30.4909 30.7957 30.4909 28.0624C30.4909 24.8877 28.5157 23.7236 27.5665 23.1642C25.0819 21.6982 22.5535 20.9399 20.6228 20.4444C20.3994 20.3868 20.2085 20.244 20.0919 20.0476C19.9753 19.8512 19.9426 19.6171 20.0011 19.397C20.0596 19.1768 20.2045 18.9886 20.4038 18.8737C20.6031 18.7588 20.8406 18.7266 21.0639 18.7843H21.0626ZM3.55463 19.7562C4.31308 19.7562 5.02434 19.9989 5.66995 20.4754C7.12119 21.5472 7.69567 21.6355 8.24553 21.6355L8.34127 21.6402C8.38231 21.6436 9.29874 21.7265 10.7288 20.9116L10.8054 20.8502C10.9251 20.7612 11.0947 20.6365 11.2745 20.5085C11.4627 20.3816 11.6937 20.3324 11.9182 20.3715C12.1427 20.4106 12.3427 20.5348 12.4753 20.7176C12.6079 20.9003 12.6626 21.127 12.6276 21.349C12.5926 21.571 12.4707 21.7706 12.2881 21.9051C12.1192 22.0237 11.9612 22.1403 11.8504 22.2219C11.7239 22.3156 11.635 22.3769 11.6103 22.3917C9.86911 23.3839 8.61073 23.3846 8.20313 23.3509C7.05143 23.3415 6.10901 22.9465 4.62631 21.8485C4.18724 21.5249 3.69278 21.4124 3.25235 21.502C2.79854 21.5818 2.39207 21.8276 2.11433 22.1902C1.86112 22.5263 1.72985 22.9365 1.74161 23.3549C1.74161 24.4664 2.20666 25.9365 2.95417 27.1902C3.7557 28.5383 5.5106 30.7943 8.28246 30.7943C11.503 30.7943 12.6847 28.8457 13.2524 27.9094C14.744 25.4505 15.5093 22.9627 16.0078 21.0679C16.0367 20.9589 16.087 20.8565 16.156 20.7666C16.225 20.6767 16.3112 20.6011 16.4098 20.5441C16.5085 20.4871 16.6175 20.4498 16.7308 20.4343C16.844 20.4188 16.9593 20.4255 17.0699 20.4539C17.1806 20.4823 17.2845 20.5319 17.3757 20.5999C17.4669 20.6679 17.5436 20.7529 17.6014 20.8501C17.6593 20.9473 17.6971 21.0548 17.7128 21.1664C17.7286 21.278 17.7218 21.3916 17.693 21.5007C17.2047 23.3489 16.3703 26.1138 14.7672 28.756C14.1305 29.8069 12.4912 32.5097 8.28246 32.5097C4.64204 32.5097 2.44124 29.7199 1.453 28.0611C0.544091 26.5317 0.000387722 24.7731 0.000387722 23.3522C-0.0113871 22.5577 0.245329 21.7818 0.730113 21.1468C1.26442 20.4537 2.04054 19.9806 2.90835 19.8189C3.12062 19.7766 3.33669 19.7556 3.55327 19.7562H3.55463ZM13.0609 0.742265C13.866 0.73165 14.6521 0.983807 15.2966 1.45944C16.0005 1.98584 16.4815 2.75071 16.6466 3.60626C16.689 3.81552 16.7099 4.02848 16.7088 4.24188C16.704 4.99796 16.4484 5.73174 15.9812 6.3314C14.8938 7.76374 14.8048 8.32791 14.8048 8.86916L14.7987 8.96555C14.7946 9.00262 14.7077 9.90111 15.5387 11.3173L15.5907 11.3786C15.6816 11.4972 15.8129 11.6705 15.9476 11.8579C16.0138 11.9498 16.0608 12.0537 16.0862 12.1636C16.1115 12.2735 16.1147 12.3873 16.0955 12.4984C16.0762 12.6095 16.035 12.7157 15.974 12.8111C15.9131 12.9065 15.8337 12.9891 15.7404 13.0543C15.6471 13.1194 15.5417 13.1658 15.4302 13.1908C15.3187 13.2158 15.2033 13.2189 15.0905 13.1999C14.9778 13.181 14.87 13.1403 14.7732 13.0803C14.6764 13.0202 14.5926 12.942 14.5265 12.85C14.4034 12.6768 14.2817 12.5177 14.1982 12.4092C14.1148 12.3007 14.0519 12.207 14.0375 12.1861C13.0281 10.4673 13.0281 9.22775 13.0636 8.82602C13.0732 7.69364 13.474 6.76481 14.588 5.30214C14.8293 5.0002 14.9625 4.62817 14.9669 4.2439C14.9674 4.14441 14.9583 4.0451 14.9396 3.94732C14.859 3.50185 14.6112 3.10261 14.2454 2.82909C13.903 2.58012 13.4863 2.45063 13.0609 2.46107C11.9263 2.46107 10.4354 2.91874 9.17153 3.65479C7.80373 4.44611 5.51333 6.17907 5.51333 8.90623C5.51333 12.0742 7.48639 13.241 8.43429 13.8018C10.921 15.2685 13.4507 16.0261 15.3821 16.5249C15.4939 16.5523 15.5991 16.6012 15.6916 16.669C15.7841 16.7367 15.8621 16.8219 15.9209 16.9196C15.9798 17.0172 16.0184 17.1254 16.0344 17.2379C16.0505 17.3504 16.0438 17.4649 16.0147 17.5748C15.9855 17.6846 15.9345 17.7877 15.8646 17.878C15.7947 17.9684 15.7073 18.0441 15.6075 18.1009C15.5077 18.1576 15.3975 18.1943 15.2831 18.2088C15.1688 18.2232 15.0528 18.2152 14.9416 18.1851C12.8988 17.6573 10.2145 16.8525 7.58009 15.2975C6.50841 14.6646 3.77211 13.0462 3.77211 8.90623C3.77211 5.32506 6.60142 3.15263 8.28588 2.17595C9.82466 1.28082 11.609 0.744287 13.0588 0.744287L13.0609 0.742265Z"/>
</mask>
<path fill-rule="evenodd" clip-rule="evenodd" d="M21.0626 18.7843C23.104 19.3107 25.7856 20.1142 28.4234 21.6712C29.4903 22.2994 32.23 23.9151 32.23 28.0624C32.23 31.651 29.4 33.8194 27.7163 34.7927C26.1795 35.6885 24.3939 36.223 22.9447 36.223C22.139 36.2354 21.352 35.9833 20.7076 35.5065C20.0057 34.9795 19.5258 34.2158 19.3596 33.3617C19.3175 33.1517 19.2964 32.9382 19.2967 32.7241C19.2989 31.9687 19.5551 31.2353 20.0251 30.6386C21.1125 29.2049 21.2007 28.6408 21.2007 28.0995L21.2076 28.0018C21.2076 27.9647 21.2978 27.0662 20.4676 25.6507L20.4053 25.5759C20.3151 25.4579 20.1885 25.2921 20.06 25.1142C19.9901 25.0228 19.9395 24.9185 19.9112 24.8075C19.8828 24.6965 19.8773 24.5811 19.8949 24.468C19.9125 24.3549 19.9529 24.2463 20.0137 24.1488C20.0745 24.0513 20.1544 23.9668 20.2489 23.9002C20.3433 23.8336 20.4503 23.7863 20.5636 23.7611C20.6768 23.7359 20.7941 23.7332 20.9084 23.7533C21.0227 23.7734 21.1318 23.8159 21.2292 23.8781C21.3266 23.9404 21.4104 24.0213 21.4756 24.1159C21.5953 24.2811 21.713 24.4348 21.7964 24.5433C21.8942 24.672 21.9585 24.7623 21.9722 24.788C22.9782 26.5007 22.9768 27.7396 22.9426 28.1413C22.933 29.275 22.5323 30.2032 21.4182 31.6672C21.1771 31.9688 21.0435 32.3402 21.0379 32.7241C21.0376 32.8271 21.0477 32.9298 21.068 33.0308C21.1513 33.4734 21.3987 33.8696 21.7622 34.1423C22.1034 34.3907 22.5192 34.5193 22.9433 34.5076C24.0779 34.5076 25.5681 34.0499 26.832 33.3139C28.1998 32.5253 30.4909 30.7957 30.4909 28.0624C30.4909 24.8877 28.5157 23.7236 27.5665 23.1642C25.0819 21.6982 22.5535 20.9399 20.6228 20.4444C20.3994 20.3868 20.2085 20.244 20.0919 20.0476C19.9753 19.8512 19.9426 19.6171 20.0011 19.397C20.0596 19.1768 20.2045 18.9886 20.4038 18.8737C20.6031 18.7588 20.8406 18.7266 21.0639 18.7843H21.0626ZM3.55463 19.7562C4.31308 19.7562 5.02434 19.9989 5.66995 20.4754C7.12119 21.5472 7.69567 21.6355 8.24553 21.6355L8.34127 21.6402C8.38231 21.6436 9.29874 21.7265 10.7288 20.9116L10.8054 20.8502C10.9251 20.7612 11.0947 20.6365 11.2745 20.5085C11.4627 20.3816 11.6937 20.3324 11.9182 20.3715C12.1427 20.4106 12.3427 20.5348 12.4753 20.7176C12.6079 20.9003 12.6626 21.127 12.6276 21.349C12.5926 21.571 12.4707 21.7706 12.2881 21.9051C12.1192 22.0237 11.9612 22.1403 11.8504 22.2219C11.7239 22.3156 11.635 22.3769 11.6103 22.3917C9.86911 23.3839 8.61073 23.3846 8.20313 23.3509C7.05143 23.3415 6.10901 22.9465 4.62631 21.8485C4.18724 21.5249 3.69278 21.4124 3.25235 21.502C2.79854 21.5818 2.39207 21.8276 2.11433 22.1902C1.86112 22.5263 1.72985 22.9365 1.74161 23.3549C1.74161 24.4664 2.20666 25.9365 2.95417 27.1902C3.7557 28.5383 5.5106 30.7943 8.28246 30.7943C11.503 30.7943 12.6847 28.8457 13.2524 27.9094C14.744 25.4505 15.5093 22.9627 16.0078 21.0679C16.0367 20.9589 16.087 20.8565 16.156 20.7666C16.225 20.6767 16.3112 20.6011 16.4098 20.5441C16.5085 20.4871 16.6175 20.4498 16.7308 20.4343C16.844 20.4188 16.9593 20.4255 17.0699 20.4539C17.1806 20.4823 17.2845 20.5319 17.3757 20.5999C17.4669 20.6679 17.5436 20.7529 17.6014 20.8501C17.6593 20.9473 17.6971 21.0548 17.7128 21.1664C17.7286 21.278 17.7218 21.3916 17.693 21.5007C17.2047 23.3489 16.3703 26.1138 14.7672 28.756C14.1305 29.8069 12.4912 32.5097 8.28246 32.5097C4.64204 32.5097 2.44124 29.7199 1.453 28.0611C0.544091 26.5317 0.000387722 24.7731 0.000387722 23.3522C-0.0113871 22.5577 0.245329 21.7818 0.730113 21.1468C1.26442 20.4537 2.04054 19.9806 2.90835 19.8189C3.12062 19.7766 3.33669 19.7556 3.55327 19.7562H3.55463ZM13.0609 0.742265C13.866 0.73165 14.6521 0.983807 15.2966 1.45944C16.0005 1.98584 16.4815 2.75071 16.6466 3.60626C16.689 3.81552 16.7099 4.02848 16.7088 4.24188C16.704 4.99796 16.4484 5.73174 15.9812 6.3314C14.8938 7.76374 14.8048 8.32791 14.8048 8.86916L14.7987 8.96555C14.7946 9.00262 14.7077 9.90111 15.5387 11.3173L15.5907 11.3786C15.6816 11.4972 15.8129 11.6705 15.9476 11.8579C16.0138 11.9498 16.0608 12.0537 16.0862 12.1636C16.1115 12.2735 16.1147 12.3873 16.0955 12.4984C16.0762 12.6095 16.035 12.7157 15.974 12.8111C15.9131 12.9065 15.8337 12.9891 15.7404 13.0543C15.6471 13.1194 15.5417 13.1658 15.4302 13.1908C15.3187 13.2158 15.2033 13.2189 15.0905 13.1999C14.9778 13.181 14.87 13.1403 14.7732 13.0803C14.6764 13.0202 14.5926 12.942 14.5265 12.85C14.4034 12.6768 14.2817 12.5177 14.1982 12.4092C14.1148 12.3007 14.0519 12.207 14.0375 12.1861C13.0281 10.4673 13.0281 9.22775 13.0636 8.82602C13.0732 7.69364 13.474 6.76481 14.588 5.30214C14.8293 5.0002 14.9625 4.62817 14.9669 4.2439C14.9674 4.14441 14.9583 4.0451 14.9396 3.94732C14.859 3.50185 14.6112 3.10261 14.2454 2.82909C13.903 2.58012 13.4863 2.45063 13.0609 2.46107C11.9263 2.46107 10.4354 2.91874 9.17153 3.65479C7.80373 4.44611 5.51333 6.17907 5.51333 8.90623C5.51333 12.0742 7.48639 13.241 8.43429 13.8018C10.921 15.2685 13.4507 16.0261 15.3821 16.5249C15.4939 16.5523 15.5991 16.6012 15.6916 16.669C15.7841 16.7367 15.8621 16.8219 15.9209 16.9196C15.9798 17.0172 16.0184 17.1254 16.0344 17.2379C16.0505 17.3504 16.0438 17.4649 16.0147 17.5748C15.9855 17.6846 15.9345 17.7877 15.8646 17.878C15.7947 17.9684 15.7073 18.0441 15.6075 18.1009C15.5077 18.1576 15.3975 18.1943 15.2831 18.2088C15.1688 18.2232 15.0528 18.2152 14.9416 18.1851C12.8988 17.6573 10.2145 16.8525 7.58009 15.2975C6.50841 14.6646 3.77211 13.0462 3.77211 8.90623C3.77211 5.32506 6.60142 3.15263 8.28588 2.17595C9.82466 1.28082 11.609 0.744287 13.0588 0.744287L13.0609 0.742265Z" fill="#000104" stroke="white" stroke-width="0.1" mask="url(#path-1-inside-1_134_1723)"/>
<path d="M34.5267 8.92354L34.5267 8.92348C33.5401 7.26496 31.3458 4.48704 27.7201 4.48704C25.6206 4.48704 24.1638 5.15901 23.1526 5.96114C22.1409 6.76364 21.5742 7.69719 21.256 8.22265L21.256 8.22266C19.6541 10.8632 18.8198 13.624 18.3317 15.4714L18.3317 15.4715C18.3037 15.5773 18.2971 15.6875 18.3123 15.7959C18.3275 15.9042 18.3642 16.0086 18.4203 16.1029C18.4764 16.1973 18.5509 16.2799 18.6395 16.346C18.728 16.4121 18.8289 16.4603 18.9364 16.488C19.0439 16.5156 19.1559 16.5221 19.266 16.5071C19.3761 16.4921 19.4821 16.4559 19.5779 16.4005C19.6737 16.3452 19.7575 16.2718 19.8245 16.1845L34.5267 8.92354ZM34.5267 8.92354C35.4345 10.4399 35.9751 12.194 35.9751 13.6135L35.9751 13.614C35.9919 14.4399 35.7118 15.2452 35.1843 15.8873C34.6567 16.5295 33.9157 16.9672 33.0923 17.1229L33.0922 17.1229C32.8797 17.1637 32.6638 17.1841 32.4473 17.1838L34.5267 8.92354ZM33.9075 14.7899L33.9074 14.79C33.6276 15.1558 33.2191 15.4051 32.7623 15.489C32.7623 15.489 32.7623 15.489 32.7622 15.489L33.9075 14.7899ZM33.9075 14.7899C34.1633 14.4496 34.2958 14.0345 34.2839 13.6111C34.2838 12.4912 33.8175 11.0176 33.0692 9.76402C32.267 8.41494 30.5057 6.14775 27.7201 6.14775C26.1037 6.14775 24.9977 6.63632 24.2245 7.24342C23.4521 7.84985 23.0132 8.57356 22.7296 9.0413L22.7293 9.04185L22.7288 9.04265C21.2333 11.508 20.4693 13.9959 19.9685 15.8921L33.9075 14.7899Z" fill="#F99C1B" stroke="white" stroke-width="0.05"/>
</svg>
