<svg width="40" height="33" viewBox="0 0 40 33" fill="none" xmlns="http://www.w3.org/2000/svg">
<path d="M14.5 12.5L10 17L26 19.5L30.5 13.5L34 8H25.5L22 13L14.5 12.5Z" fill="#F99C1B"/>
<path d="M22.5103 24.8804C22.5413 24.8857 22.5733 24.8884 22.6043 24.8884C22.7817 24.8884 22.9524 24.8024 23.0557 24.6557L39.901 0.852005C40.0286 0.672596 40.0326 0.435846 39.9145 0.251188C39.7949 0.0665386 39.5705 -0.0299538 39.3556 0.0082735L17.2803 3.77316C17.1702 3.79166 17.0688 3.84345 16.9888 3.92082L8.98213 11.6676C8.97291 11.6753 8.96553 11.684 8.95692 11.6923L0.164737 20.1987C0.0174716 20.3402 -0.0366383 20.552 0.0251612 20.7465C0.0869576 20.941 0.253588 21.0841 0.456506 21.1198L18.081 24.1255L18.0958 26.5062L9.51373 28.2646C9.26778 28.3148 9.08792 28.5226 9.07655 28.7701C9.06456 29.0164 9.22381 29.2399 9.46331 29.3127L18.6994 32.1223C18.7523 32.1395 18.8067 32.1472 18.862 32.1472C18.9131 32.1472 18.9641 32.1392 19.0133 32.126L30.5263 28.8811C30.7723 28.8109 30.9362 28.5846 30.9239 28.3334C30.9119 28.0818 30.7249 27.8728 30.4738 27.8266L21.8201 26.2578L21.7681 24.754L22.5103 24.8804ZM20.7917 28.3531L19.2031 27.6663L19.1822 24.3487L20.6619 24.6014L20.7917 28.3531ZM27.9668 28.4748L18.8676 31.0396L11.8272 28.8972L18.1018 27.612L18.1043 28.0251C18.1055 28.2381 18.2346 28.4314 18.4332 28.5174L21.1495 29.6926C21.2199 29.7231 21.2953 29.7388 21.3706 29.7388C21.4794 29.7388 21.5867 29.7071 21.6796 29.6448C21.8354 29.5403 21.9267 29.3643 21.92 29.1778L21.8573 27.3676L27.9668 28.4748ZM22.3532 23.7531L14.5893 22.4294L17.4602 18.9204L25.0983 19.8745L22.3532 23.7531ZM6.96154 21.1285L9.95699 17.9832L16.1775 18.7601L13.3487 22.2176L6.96154 21.1285ZM9.54992 12.637L13.3201 12.8673L9.5382 16.8387L5.70225 16.3597L9.54992 12.637ZM13.9165 8.41221L17.5969 8.37614L14.2981 11.8404L10.6063 11.6151L13.9165 8.41221ZM29.2027 2.83965L25.624 7.2137L20.1614 7.26734L23.4421 3.82246L29.2027 2.83965ZM24.73 8.30622L21.4794 12.2792L15.7231 11.9275L19.1194 8.36139L24.73 8.30622ZM30.1001 12.8057L22.826 12.3612L26.1553 8.29211L33.3442 8.22152L30.1001 12.8057ZM25.8079 18.8707L18.2703 17.9292L21.9792 13.3961L29.3628 13.8471L25.8079 18.8707ZM14.7458 12.9543L20.6334 13.3141L16.9884 17.7692L10.8866 17.0072L14.7458 12.9543ZM34.1168 7.13021L27.0496 7.19957L30.8459 2.55949L38.2445 1.29745L34.1168 7.13021ZM17.6375 4.81234L21.641 4.12953L18.6391 7.28217L15.0488 7.31732L17.6375 4.81234ZM4.70301 17.327L8.60908 17.815L5.66439 20.9076L1.70087 20.2318L4.70301 17.327Z" fill="#000104"/>
</svg>
