<svg width="37" height="37" viewBox="0 0 37 37" fill="none" xmlns="http://www.w3.org/2000/svg">
<path d="M8.30005 9.19824C8.30005 8.64596 8.74776 8.19824 9.30005 8.19824H25.7001C27.3569 8.19824 28.7 9.54139 28.7 11.1982V27.5982C28.7 28.1505 28.2523 28.5982 27.7 28.5982H9.30005C8.74776 28.5982 8.30005 28.1505 8.30005 27.5982V9.19824Z" stroke="#000104" stroke-width="2"/>
<path d="M13.7 7.79844V1.39844" stroke="#000104" stroke-width="2" stroke-linecap="round"/>
<path d="M13.7 35.398V28.998" stroke="#000104" stroke-width="2" stroke-linecap="round"/>
<path d="M23.3 35.398V28.998" stroke="#000104" stroke-width="2" stroke-linecap="round"/>
<path d="M35.5001 23.1982L29.1001 23.1982" stroke="#000104" stroke-width="2" stroke-linecap="round"/>
<path d="M7.9 23.1982L1.5 23.1982" stroke="#000104" stroke-width="2" stroke-linecap="round"/>
<path d="M7.9 13.5986L1.5 13.5986" stroke="#000104" stroke-width="2" stroke-linecap="round"/>
<path d="M23.3 3.99805H24.9001C28.6713 3.99805 30.5569 3.99805 31.7285 5.16962C32.9 6.34119 32.9 8.22681 32.9 11.998V13.598" stroke="#F99D1C" stroke-width="2.4"/>
</svg>
