<svg width="65" height="64" viewBox="0 0 65 64" fill="none" xmlns="http://www.w3.org/2000/svg">
<ellipse cx="32.4324" cy="32" rx="32.4324" ry="32" fill="white"/>
<path d="M23.2784 49.1427H13C12.4477 49.1427 12 48.695 12 48.1427V30.1429C12 29.5907 12.4477 29.1429 13 29.1429H23.2784C23.3613 29.1429 23.4284 29.2101 23.4284 29.2929V48.9927C23.4284 49.0755 23.3613 49.1427 23.2784 49.1427Z" stroke="#33363F" stroke-width="2" stroke-linecap="round"/>
<path d="M23.4297 31.9997L29.0383 20.7825C29.1078 20.6436 29.1439 20.4905 29.1439 20.3352V13C29.1439 12.4477 29.5916 12 30.1439 12H35.7152C36.8198 12 37.7152 12.8954 37.7152 14V29.1426" stroke="#F99C1B" stroke-width="2" stroke-linecap="round"/>
<path d="M32.001 29.1429H51.6108C52.2773 29.1429 52.7573 29.7827 52.5709 30.4226L46.4963 51.2794C46.372 51.7063 45.9808 51.9998 45.5362 51.9998H32.4152C32.15 51.9998 31.8956 51.8944 31.7081 51.7069L29.4368 49.4356C29.2493 49.248 28.9949 49.1427 28.7297 49.1427H23.4297" stroke="#33363F" stroke-width="2" stroke-linecap="round"/>
</svg>
