<svg width="32" height="29" viewBox="0 0 32 29" fill="none" xmlns="http://www.w3.org/2000/svg">
<ellipse cx="16" cy="14.5" rx="16" ry="14.5" fill="#DEDEDE"/>
<path d="M24 10.4572C23.405 10.6938 22.771 10.8505 22.11 10.9267C22.79 10.5587 23.309 9.98053 23.553 9.28362C22.919 9.62619 22.219 9.86816 21.473 10.0032C20.871 9.42228 20.013 9.0625 19.077 9.0625C17.261 9.0625 15.799 10.3983 15.799 12.0359C15.799 12.2715 15.821 12.4981 15.875 12.7138C13.148 12.5933 10.735 11.4088 9.114 9.60444C8.831 10.0494 8.665 10.5587 8.665 11.107C8.665 12.1365 9.25 13.0491 10.122 13.5774C9.595 13.5684 9.078 13.4297 8.64 13.2113C8.64 13.2204 8.64 13.2322 8.64 13.2439C8.64 14.6885 9.777 15.8884 11.268 16.1648C11.001 16.2309 10.71 16.2627 10.408 16.2627C10.198 16.2627 9.986 16.2518 9.787 16.2119C10.212 17.3891 11.418 18.2546 12.852 18.2827C11.736 19.0738 10.319 19.5505 8.785 19.5505C8.516 19.5505 8.258 19.5397 8 19.5098C9.453 20.3589 11.175 20.8438 13.032 20.8438C19.068 20.8438 22.368 16.3125 22.368 12.3848C22.368 12.2534 22.363 12.1265 22.356 12.0006C23.007 11.5819 23.554 11.059 24 10.4572Z" fill="#2A2A2A"/>
</svg>
