<svg width="16" height="14" viewBox="0 0 16 14" fill="none" xmlns="http://www.w3.org/2000/svg">
<path d="M16.0009 1.54095C15.4059 1.80195 14.7719 1.97495 14.1109 2.05895C14.7909 1.65295 15.3099 1.01495 15.5539 0.245952C14.9199 0.623951 14.2199 0.89095 13.4739 1.03995C12.8719 0.398952 12.0139 0.00195312 11.0779 0.00195312C9.26194 0.00195312 7.79995 1.47595 7.79995 3.28294C7.79995 3.54294 7.82195 3.79294 7.87595 4.03094C5.14896 3.89794 2.73597 2.59094 1.11497 0.599951C0.831974 1.09095 0.665974 1.65295 0.665974 2.25795C0.665974 3.39394 1.25097 4.40094 2.12297 4.98394C1.59597 4.97394 1.07897 4.82094 0.640974 4.57994C0.640974 4.58994 0.640974 4.60294 0.640974 4.61594C0.640974 6.20993 1.77797 7.53393 3.26896 7.83893C3.00197 7.91193 2.71097 7.94693 2.40897 7.94693C2.19897 7.94693 1.98697 7.93493 1.78797 7.89093C2.21297 9.18992 3.41896 10.1449 4.85296 10.1759C3.73696 11.0489 2.31997 11.5749 0.785974 11.5749C0.516975 11.5749 0.258976 11.5629 0.000976562 11.5299C1.45397 12.4669 3.17597 13.0019 5.03296 13.0019C11.0689 13.0019 14.3689 8.00193 14.3689 3.66794C14.3689 3.52294 14.3639 3.38294 14.3569 3.24394C15.0079 2.78194 15.5549 2.20495 16.0009 1.54095Z" fill="#000104"/>
</svg>
