<svg width="24" height="28" viewBox="0 0 24 28" fill="none" xmlns="http://www.w3.org/2000/svg">
<path d="M12.0003 27C17.6254 27 22.3337 22.7932 22.3337 17.4286C22.3337 13.9988 20.5333 10.5642 18.5879 7.82726C16.6216 5.06087 14.3937 2.85143 13.3187 1.84601C12.5731 1.14866 11.4276 1.14866 10.682 1.84601C9.60699 2.85143 7.37908 5.06086 5.41274 7.82726C3.46731 10.5642 1.66699 13.9988 1.66699 17.4286C1.66699 22.7932 6.37525 27 12.0003 27Z" stroke="#000104" stroke-width="2"/>
<path d="M12.0003 22C11.2999 22 10.6064 21.8621 9.95935 21.5941C9.31228 21.326 8.72433 20.9332 8.22909 20.4379C7.73384 19.9427 7.34099 19.3548 7.07297 18.7077C6.80494 18.0606 6.66699 17.3671 6.66699 16.6667" stroke="#F99C1B" stroke-width="2" stroke-linecap="round"/>
</svg>
