<svg width="32" height="32" viewBox="0 0 32 32" fill="none" xmlns="http://www.w3.org/2000/svg">
<path d="M28.0888 9.19977L28.0886 9.19959C28.002 9.12213 27.8963 9.08062 27.7814 9.08062H27.7406V9.08038L27.7358 9.08085L23.4934 9.4896C23.4324 9.49382 23.3796 9.51509 23.3339 9.53944C23.2866 9.51461 23.2311 9.49379 23.1705 9.4896L18.928 9.08085L18.9281 9.08062H18.9233H18.8824C18.7686 9.08062 18.6579 9.12147 18.5747 9.20017C18.4785 9.28732 18.4236 9.41093 18.4236 9.53943V13.472C18.4236 13.6011 18.479 13.7202 18.5701 13.8067L18.5701 13.8068L18.5712 13.8078C18.6572 13.8847 18.7668 13.9308 18.8824 13.9308H18.9112V13.931L18.9148 13.9307L23.1575 13.6241C23.1576 13.6241 23.1576 13.6241 23.1577 13.6241C23.2226 13.6199 23.2793 13.5985 23.3289 13.5739C23.3812 13.602 23.4383 13.62 23.5025 13.6241C23.5026 13.6241 23.5027 13.6241 23.5028 13.6241L27.7455 13.9307L27.7455 13.9308H27.7491H27.7778C27.8913 13.9308 28.0065 13.8902 28.0906 13.8063C28.1815 13.7198 28.2366 13.6009 28.2366 13.472L28.2359 9.54002C28.2402 9.41038 28.1846 9.28644 28.0888 9.19977ZM23.0792 13.1227L18.9361 13.4221V9.59418L23.0792 9.99337V13.1227ZM25.6811 9.78912L27.7312 9.59412V11.4678H25.6811V9.78912ZM23.5881 9.9934L25.4667 9.81507V11.4718H23.5881V9.9934ZM23.5881 11.6864H25.4667V13.2587L23.5881 13.1227V11.6864ZM27.7273 13.4221L25.6811 13.2741V11.6864H27.7273V13.4221Z" fill="#F99C1B" stroke="#F99C1B" stroke-width="0.1"/>
<path d="M19.5078 11.5749C19.5078 11.8965 19.1318 11.8965 19.1318 11.5749C19.1318 11.2534 19.5078 11.2534 19.5078 11.5749Z" fill="#F99C1B"/>
<path d="M12.2394 8.48247L12.2401 8.48254C12.4078 8.5006 12.5256 8.64372 12.5257 8.80254L12.2394 8.48247ZM12.2394 8.48247L7.40043 7.99602C7.30697 7.98468 7.21462 8.01408 7.14544 8.07167L7.14536 8.07158L7.14186 8.07479C7.07526 8.13582 7.03165 8.2187 7.03165 8.31611V18.5373L1.56629 19.4838L1.56614 4.5992L15.9681 6.86913V16.9884L12.5379 17.5833M12.2394 8.48247L12.5379 17.5833M12.5379 17.5833L12.5257 8.80268L12.5379 17.5833ZM8.964 17.1749V17.1748L8.97632 9.44495L8.964 17.1749ZM8.964 17.1749C8.964 17.2848 9.04831 17.3731 9.15119 17.3883C9.15144 17.3883 9.15169 17.3883 9.15194 17.3884L11.5101 17.7572L7.68156 18.4214V8.68009L10.6815 8.96999L9.16265 9.23174M8.964 17.1749L9.16265 9.23174M9.16265 9.23174C9.06021 9.24723 8.9764 9.33525 8.97632 9.44479L9.16265 9.23174ZM31.6681 3.98217L31.6682 3.98208L31.6646 3.97877C31.601 3.92159 31.5177 3.9 31.4465 3.9H31.4388L31.4313 3.90117L16.342 6.23285L1.22774 3.90117L1.22016 3.9H1.21249C1.13628 3.9 1.05747 3.9221 0.994464 3.97877L0.994383 3.97868L0.990871 3.98217C0.936062 4.03659 0.9 4.11486 0.9 4.20017V19.9183C0.9 20.0286 0.960721 20.1313 1.05733 20.1854L1.05731 20.1855L1.06007 20.1869L16.188 28.0632C16.232 28.088 16.2811 28.1 16.3297 28.1C16.3779 28.1 16.4274 28.0881 16.4715 28.0632L31.5993 20.1869L31.5993 20.187L31.602 20.1854C31.6942 20.1337 31.7635 20.0374 31.7635 19.9183V4.20017H31.7637L31.7632 4.19302C31.7574 4.1125 31.7228 4.03647 31.6681 3.98217ZM3.70136 20.8071L3.70137 20.8071L3.69947 20.8061L2.3269 20.0925L16.3296 17.6606L16.8474 17.7504L3.8022 20.8623L3.70136 20.8071ZM18.8994 18.1105L5.79753 21.9036L4.25548 21.0977L17.6856 17.8983L18.8994 18.1105ZM7.84723 22.9691L6.22601 22.1233L19.6465 18.2379L20.9407 18.462L7.84723 22.9691ZM9.96282 24.0717L8.25528 23.1822L21.6234 18.5815L23.2614 18.8672L9.96282 24.0717ZM12.0289 25.1458L10.3574 24.2759L23.898 18.9745L25.6771 19.2842L12.0289 25.1458ZM14.1768 26.2645L12.4136 25.3469L26.2795 19.3877L27.8802 19.6646L14.1768 26.2645ZM14.5459 26.4575L28.4442 19.7644L30.3328 20.0925L16.3295 27.3839L14.5459 26.4575ZM11.8721 9.23142L11.8841 17.381L9.39301 16.9836L9.40505 9.63224L11.8721 9.23142ZM16.695 6.86511L31.093 4.59519V19.4842L16.695 16.9844V6.86511Z" fill="#000104" stroke="black" stroke-width="0.2"/>
<path d="M10.2861 13.4502C10.2861 13.8046 10 13.8046 10 13.4502C10 13.096 10.2861 13.096 10.2861 13.4502Z" fill="#F99C1B"/>
</svg>
