<svg width="47" height="42" viewBox="0 0 47 42" fill="none" xmlns="http://www.w3.org/2000/svg">
<path d="M16.2975 1.01244C24.3323 0.688107 32.4157 6.72804 32.5223 16.3109C32.524 16.488 32.5443 16.6803 32.5821 16.8825C32.8545 18.3326 33.5255 19.6292 34.633 20.8465C35.7863 22.1136 37.0825 22.7901 36.8731 23.8295C36.5639 25.3659 33.5007 24.9315 34.0245 26.113C34.4668 26.9257 34.3588 27.5754 33.6689 28.1972C33.8587 28.3489 33.9929 28.5972 33.9605 28.9594C33.8814 29.8165 33.1475 30.092 32.6818 30.4545C32.8056 30.6945 33.3855 31.1424 33.3745 32.3647C33.3635 33.6064 32.5501 34.4514 31.303 34.5174C30.9212 34.538 30.5766 34.5707 30.2484 34.6175C29.2802 34.7551 28.5439 35.0254 27.9317 35.4691C27.0639 36.0978 26.5727 37.0189 26.386 38.3668C26.3196 38.8455 26.2845 39.3284 26.2481 39.8172C26.2312 40.0473 26.2144 40.2777 26.1941 40.5106C26.17 40.7878 25.9382 41 25.6603 41H9.73754C9.44416 41 9.20478 40.6956 9.20134 40.4022C9.20065 40.3479 9.20031 40.2987 9.20272 40.2499C9.35096 37.173 9.04003 34.4235 8.25241 31.8446C6.19392 25.1044 1.62982 25.3779 1.03761 17.1775C0.461849 9.21048 6.50006 1.42117 16.2973 1.01262L16.2975 1.01244ZM2.10582 17.0998C2.66163 24.8027 7.16378 24.6152 9.2766 31.531C10.069 34.125 10.401 36.8751 10.2885 39.928H25.1643C25.1691 39.8643 25.1736 39.8014 25.1787 39.7381C25.2155 39.2408 25.2534 38.7266 25.3235 38.2196C25.5495 36.5853 26.1968 35.4014 27.3022 34.6006C28.0507 34.0582 28.9649 33.7164 30.0967 33.5558C31.2717 33.389 32.2904 33.6201 32.3021 32.3543C32.3158 30.7891 30.4145 30.7736 32.6852 29.1478C32.7564 29.0965 32.8025 29.0518 32.8331 29.0112C32.3454 28.8902 32.049 28.8898 31.9688 28.4441C31.8178 27.6038 33.6397 27.6468 33.0828 26.6253C32.0304 24.6893 34.4452 24.2683 35.3903 23.8828C35.7549 23.7346 35.8192 23.6207 35.8213 23.6207C35.6414 23.4143 36.1583 23.7724 34.8675 22.5758C34.5236 22.2573 34.1676 21.9275 33.8395 21.5674C32.6116 20.2178 31.834 18.7082 31.5275 17.0797C31.4783 16.8162 31.4522 16.5613 31.4494 16.3226C31.3503 7.39539 23.7771 1.75851 16.3411 2.08341C7.2043 2.46449 1.57007 9.68721 2.1054 17.1001L2.10582 17.0998Z" fill="black" stroke="black" stroke-width="0.5"/>
<path d="M42.3539 37.6508C42.1444 37.4413 42.1444 37.1019 42.3535 36.8924C44.4835 34.7606 45.6571 31.9259 45.6574 28.9099C45.657 25.8946 44.4835 23.0598 42.3532 20.9277C42.1441 20.7183 42.1441 20.3788 42.3535 20.1694C42.563 19.9606 42.9025 19.9602 43.1119 20.1697C45.4445 22.5044 46.7291 25.6081 46.7295 28.9096C46.7291 32.2114 45.4445 35.3155 43.1123 37.6498C42.9028 37.86 42.5637 37.86 42.3539 37.6509V37.6508Z" fill="#F99C1B"/>
<path d="M40.2777 23.0049C40.0685 22.7954 40.0685 22.456 40.278 22.2465C40.4875 22.0377 40.8269 22.0374 41.0364 22.2469C42.8149 24.0271 43.7944 26.3931 43.7944 28.91C43.7944 31.427 42.8149 33.7933 41.0367 35.5732C40.8276 35.7823 40.4882 35.7827 40.2784 35.5735C40.0689 35.3641 40.0689 35.0246 40.278 34.8152C41.8539 33.2379 42.7224 31.1405 42.7224 28.9101C42.7221 26.68 41.854 24.5827 40.2777 23.005V23.0049Z" fill="#F99C1B"/>
<path d="M38.2031 24.3237C38.4126 24.1149 38.7521 24.1145 38.9615 24.324C41.4881 26.8527 41.4881 30.9675 38.9615 33.496C38.7524 33.7052 38.4129 33.7055 38.2031 33.4964C37.9937 33.2869 37.9937 32.9474 38.2028 32.738C40.3125 30.6268 40.3125 27.1927 38.2028 25.0815C37.9937 24.8724 37.9937 24.5329 38.2031 24.3235V24.3237Z" fill="#F99C1B"/>
</svg>
