<svg width="48" height="49" viewBox="0 0 48 49" fill="none" xmlns="http://www.w3.org/2000/svg">
<path d="M23.5 28.0374H17.4612C15.9227 28.0374 15.1535 28.0374 14.8647 27.5377C14.576 27.038 14.9601 26.3716 15.7284 25.0386L23.0668 12.3067C23.4418 11.6562 23.6292 11.3309 23.8146 11.3805C24 11.4301 24 11.8055 24 12.5564V20.4398C24 20.6755 24 20.7933 24.0732 20.8665C24.1464 20.9398 24.2643 20.9398 24.5 20.9398H30.5388C32.0773 20.9398 32.8465 20.9398 33.1353 21.4394C33.424 21.9391 33.0399 22.6056 32.2716 23.9385L24.9332 36.6704C24.5582 37.321 24.3708 37.6462 24.1854 37.5966C24 37.547 24 37.1716 24 36.4208V28.5374C24 28.3017 24 28.1838 23.9268 28.1106C23.8536 28.0374 23.7357 28.0374 23.5 28.0374Z" stroke="#F99C1B" stroke-width="2"/>
<ellipse cx="24" cy="24.4886" rx="18" ry="17.7441" stroke="#000104" stroke-width="2"/>
</svg>
