<svg width="40" height="40" viewBox="0 0 40 40" fill="none" xmlns="http://www.w3.org/2000/svg">
<g clip-path="url(#clip0_134_1427)">
<path d="M20.1423 39.4192L20.136 39.4213L20.1354 39.4215L20.1341 39.422L20.134 39.422L20.1339 39.422L19.9767 39.4736L19.8205 39.422L19.8205 39.422L19.8204 39.4219L19.8198 39.4217L19.819 39.4215L19.8121 39.4191L19.7819 39.4087C19.7545 39.3992 19.7129 39.3846 19.6579 39.3647C19.5481 39.3248 19.3851 39.2639 19.1767 39.1809C18.7597 39.0148 18.1613 38.7607 17.4422 38.4107C16.0027 37.7101 14.0866 36.6288 12.1765 35.1058C8.35598 32.0598 4.5 27.168 4.5 20.0702V6.27236H4.99957C8.33519 6.27236 12.0626 4.85506 14.8826 3.44507L14.8832 3.44476C17.6419 2.06062 19.4574 0.761026 19.5658 0.682904L19.5985 0.659322L19.627 0.630801L19.6301 0.627659C19.7014 0.566714 19.7881 0.52653 19.8808 0.511638L19.8808 0.511686L19.8876 0.510484L19.9074 0.506862L19.9222 0.504016L19.9287 0.502778L19.9301 0.502703C19.9442 0.501947 19.9583 0.501947 19.9724 0.502703L19.9857 0.50342H19.9991H20.0051C20.0141 0.503837 20.0231 0.504693 20.0321 0.505987L20.0676 0.511122H20.0796C20.1677 0.528032 20.2497 0.568455 20.3169 0.628335L20.3425 0.651158L20.371 0.670255C20.3704 0.669842 20.3716 0.670676 20.3765 0.674133C20.3804 0.67686 20.3867 0.681217 20.3962 0.687881L20.4711 0.740232C20.5347 0.784428 20.6244 0.846269 20.7385 0.923354C20.9667 1.07749 21.2922 1.29234 21.7019 1.549C22.5211 2.0621 23.6781 2.74313 25.068 3.44049C27.8867 4.85498 31.6082 6.27236 34.9474 6.27236H35.4546V20.0702C35.4546 27.1681 31.5994 32.0616 27.7791 35.1057C25.8689 36.6279 23.9526 37.7093 22.5129 38.4101C21.7936 38.7602 21.1951 39.0145 20.778 39.1806C20.5695 39.2637 20.4065 39.3247 20.2966 39.3646C20.2417 39.3846 20.2 39.3993 20.1726 39.4088L20.1423 39.4192ZM21.0015 30.413C23.416 30.1747 25.6731 29.1066 27.3883 27.3907C29.3539 25.4244 30.4581 22.758 30.4581 19.9778C30.4582 17.5516 29.617 15.2004 28.0778 13.325C26.5387 11.4495 24.3969 10.1658 22.0173 9.69249C19.6377 9.21922 17.1677 9.58572 15.028 10.7295C12.8884 11.8733 11.2116 13.7237 10.2833 15.9653C9.35506 18.2068 9.23279 20.7009 9.93735 23.0226C10.6419 25.3442 12.1297 27.3497 14.1472 28.6973C16.1647 30.0449 18.5871 30.6512 21.0015 30.413Z" stroke="#000104"/>
<path fill-rule="evenodd" clip-rule="evenodd" d="M25.4401 14.9773C25.0507 14.9876 24.6807 15.1494 24.4089 15.4283L18.4825 21.3624L15.5411 18.4211C15.4026 18.2786 15.2371 18.1651 15.0543 18.0872C14.8715 18.0093 14.675 17.9685 14.4763 17.9673C14.2776 17.966 14.0807 18.0043 13.8969 18.0798C13.7131 18.1554 13.5462 18.2668 13.4059 18.4074C13.2655 18.5481 13.1546 18.7153 13.0795 18.8992C13.0044 19.0832 12.9666 19.2803 12.9683 19.4789C12.9701 19.6776 13.0113 19.874 13.0897 20.0566C13.168 20.2392 13.2819 20.4044 13.4247 20.5426L17.4213 24.5357C17.7017 24.8158 18.0819 24.973 18.4782 24.973C18.8745 24.973 19.2546 24.8158 19.5351 24.5357L26.5227 17.5439C26.7374 17.3336 26.884 17.0636 26.9432 16.769C27.0025 16.4744 26.9717 16.1687 26.8549 15.8918C26.7382 15.6149 26.5408 15.3795 26.2885 15.2163C26.0362 15.053 25.7405 14.9695 25.4401 14.9765V14.9773Z" fill="#F99C1B"/>
</g>
<defs>
<clipPath id="clip0_134_1427">
<rect width="31.9512" height="40" fill="white" transform="translate(4)"/>
</clipPath>
</defs>
</svg>
