<svg width="27" height="31" viewBox="0 0 27 31" fill="none" xmlns="http://www.w3.org/2000/svg">
<path d="M14.273 1.23836L25.2577 4.1676C25.6954 4.28434 26 4.68079 26 5.13384V17.8211C26 19.8272 24.9974 21.7006 23.3282 22.8134L14.0547 28.9958C13.7188 29.2197 13.2812 29.2197 12.9453 28.9958L3.6718 22.8134C2.00261 21.7006 1 19.8272 1 17.8211V5.13384C1 4.68079 1.30458 4.28434 1.74234 4.1676L12.727 1.23836C13.2335 1.1033 13.7665 1.1033 14.273 1.23836Z" stroke="#000104" stroke-width="2" stroke-linecap="round"/>
<path d="M9.33333 14.3662L12.4899 17.5228C12.5875 17.6204 12.7458 17.6204 12.8434 17.5228L18.5 11.8662" stroke="#F99C1B" stroke-width="2" stroke-linecap="round"/>
</svg>
