<svg width="29" height="40" viewBox="0 0 29 40" fill="none" xmlns="http://www.w3.org/2000/svg">
<path d="M23.1772 14.952C23.1769 12.6181 22.2626 10.38 20.6353 8.72966C19.0079 7.07966 16.801 6.15263 14.5 6.15295C12.1989 6.15326 9.99231 7.08061 8.36524 8.73085C6.73816 10.3815 5.82419 12.6196 5.8245 14.9535C5.8245 17.2874 6.73879 19.5259 8.36586 21.1762C9.99294 22.8265 12.1999 23.7535 14.5009 23.7535C16.8013 23.7504 19.0068 22.8222 20.6332 21.1722C22.2597 19.5222 23.1747 17.2853 23.1772 14.952ZM14.5008 22.5417C12.5161 22.5417 10.6129 21.7421 9.20965 20.3187C7.80629 18.8953 7.01799 16.9647 7.01799 14.952C7.01799 12.939 7.80629 11.0087 9.20965 9.58533C10.613 8.16193 12.5161 7.36237 14.5008 7.36237C16.4854 7.36237 18.3886 8.16193 19.7919 9.58533C21.1952 11.0087 21.9835 12.939 21.9835 14.952C21.9808 16.9639 21.1915 18.8928 19.7888 20.3156C18.3861 21.7384 16.4845 22.5389 14.5008 22.5417ZM28.9748 36.9749L25.3159 24.8457C25.5815 24.7189 25.816 24.5342 26.0031 24.3044C26.4689 23.716 26.4814 22.9223 26.4924 22.2216C26.4671 21.8028 26.5202 21.383 26.6492 20.9843C26.8797 20.6383 27.1713 20.3385 27.5094 20.1003C28.0571 19.6486 28.6777 19.1367 28.8528 18.3799C29.0255 17.6324 28.703 16.8871 28.4184 16.2295C28.2109 15.832 28.0773 15.3986 28.0244 14.9518C28.0776 14.5054 28.2112 14.0726 28.4187 13.6751C28.703 13.0172 29.0258 12.2725 28.8531 11.5247C28.6779 10.7691 28.0574 10.2557 27.5097 9.80366C27.1713 9.56586 26.8794 9.26606 26.6492 8.91941C26.5203 8.52102 26.4671 8.10096 26.4924 7.68205C26.4814 6.98168 26.4689 6.18769 26.0031 5.59925C25.5372 5.01081 24.7761 4.82664 24.1042 4.66572C23.6992 4.60216 23.3101 4.46109 22.9577 4.24903C22.678 3.94674 22.4573 3.59331 22.3075 3.20763C22.0034 2.57423 21.6586 1.85653 20.9834 1.51858C20.3081 1.18064 19.5373 1.3431 18.8562 1.48293C18.4484 1.60012 18.0226 1.63856 17.6008 1.59609C17.2065 1.44728 16.8427 1.22622 16.5276 0.944093C15.9496 0.502294 15.293 0 14.5004 0C13.7078 0 13.0512 0.502254 12.4723 0.945918C12.1575 1.22867 11.7937 1.45035 11.3997 1.60009C10.9779 1.64257 10.5518 1.60443 10.1437 1.48724C9.46144 1.3471 8.68807 1.18899 8.01652 1.52289C7.34527 1.8568 6.99652 2.57667 6.69173 3.21194C6.54164 3.59639 6.32187 3.94796 6.0431 4.24898C5.69066 4.46074 5.30185 4.60242 4.89742 4.66598C4.22618 4.82782 3.46503 5.01042 2.99858 5.59951C2.53244 6.18858 2.52021 6.98164 2.5092 7.68231C2.53457 8.10117 2.48139 8.52093 2.3524 8.91936C2.12223 9.26598 1.83062 9.56578 1.49226 9.80361C0.944503 10.2553 0.323971 10.7672 0.148845 11.5246C-0.0238552 12.2721 0.298625 13.0172 0.583201 13.6751C0.790747 14.0725 0.924024 14.5053 0.977211 14.9518C0.924025 15.3986 0.790449 15.8317 0.582896 16.2292C0.298625 16.8864 -0.0241609 17.6318 0.148539 18.3796C0.323689 19.1351 0.944197 19.6485 1.49195 20.1C1.83002 20.3381 2.12225 20.6382 2.3524 20.9848C2.48139 21.3839 2.53427 21.8043 2.50829 22.2234C2.51929 22.9235 2.53183 23.7178 2.99766 24.3062C3.18504 24.535 3.41948 24.7192 3.6848 24.8457L0.0256236 36.9756C-0.0443744 37.2097 0.0320415 37.4639 0.218191 37.6192C0.404343 37.7749 0.664465 37.8015 0.877825 37.6868L5.06763 35.4279L7.29473 39.6779C7.39835 39.8751 7.59978 39.9991 7.82018 40C7.83913 40 7.85839 40 7.87764 39.9972C8.1182 39.9736 8.32117 39.8056 8.39178 39.5709L11.7468 28.4505C11.9993 28.6028 12.2408 28.7724 12.4706 28.9574C13.0496 29.402 13.7058 29.9034 14.4987 29.9034C15.2913 29.9034 15.9479 29.4008 16.5268 28.9574C16.7567 28.7724 16.9982 28.6031 17.2504 28.4509L20.6054 39.5712C20.676 39.8059 20.8786 39.9736 21.1195 39.9972C21.1388 39.9972 21.158 40 21.177 40C21.3974 39.9991 21.5991 39.8754 21.7027 39.6782L23.9298 35.4282L28.1227 37.6909C28.3361 37.8056 28.5962 37.7786 28.7823 37.6233C28.9685 37.468 29.0446 37.214 28.9746 36.98L28.9748 36.9749ZM7.67326 37.8195L5.84289 34.326C5.68791 34.0305 5.32631 33.9183 5.03503 34.0751L1.59104 35.9313L4.82195 25.2197L4.89684 25.2374C5.30124 25.3013 5.69007 25.4429 6.04251 25.6544C6.3222 25.957 6.54258 26.3104 6.69267 26.6964C6.99681 27.3298 7.34221 28.0475 8.01683 28.3855C8.69175 28.7234 9.46292 28.5609 10.144 28.4211C10.2755 28.3945 10.4035 28.3681 10.5319 28.3452L7.67326 37.8195ZM15.8083 27.9912C15.3372 28.3518 14.8946 28.6922 14.5003 28.6922C14.106 28.6922 13.6634 28.3518 13.1923 27.9912C12.7497 27.5999 12.2325 27.3054 11.6725 27.1262C11.5952 27.1086 11.5172 27.0949 11.4384 27.0856C11.428 27.0856 11.4179 27.0822 11.4072 27.0813C11.3115 27.0708 11.2159 27.0655 11.1199 27.0655C10.7112 27.0801 10.305 27.1355 9.90698 27.2313C9.38673 27.338 8.84965 27.4484 8.54275 27.2958C8.23585 27.1433 7.99713 26.6466 7.76635 26.1661C7.54994 25.6149 7.21676 25.1182 6.79001 24.7121C6.30461 24.3766 5.75224 24.154 5.17209 24.061C4.66407 23.9388 4.13894 23.8127 3.92985 23.5482C3.72077 23.2837 3.71069 22.735 3.70335 22.2042C3.73759 21.6067 3.64222 21.0086 3.42397 20.4528C3.12686 19.9416 2.72491 19.5013 2.24535 19.1615C1.82628 18.8161 1.39343 18.4593 1.31119 18.1046C1.22866 17.7499 1.45669 17.226 1.67616 16.7184C1.95982 16.1712 2.12855 15.5704 2.17165 14.9538C2.12824 14.3374 1.95952 13.7366 1.67616 13.1894C1.457 12.6819 1.22958 12.1573 1.31119 11.8035C1.3928 11.4498 1.82655 11.0923 2.24535 10.746C2.72495 10.4068 3.12693 9.96751 3.42397 9.45721C3.64253 8.90101 3.73759 8.30327 3.70335 7.70554C3.71161 7.17538 3.72047 6.62692 3.92985 6.36183C4.13924 6.09706 4.66437 5.97118 5.17209 5.84903C5.75225 5.75602 6.30462 5.53341 6.79001 5.19796C7.21672 4.7912 7.5499 4.29419 7.76635 3.74234C7.99743 3.26178 8.23616 2.76451 8.54275 2.6126C8.84964 2.46068 9.38669 2.57043 9.90698 2.67709C10.4813 2.83955 11.0835 2.8752 11.6725 2.78126C12.2331 2.60113 12.7502 2.30474 13.1923 1.91098C13.6633 1.55258 14.1059 1.21185 14.5002 1.21185C14.8945 1.21185 15.3371 1.55227 15.8082 1.91284C16.2505 2.30472 16.768 2.59894 17.328 2.7778C17.917 2.87174 18.5192 2.83608 19.0935 2.67332C19.6138 2.56666 20.1508 2.45598 20.4577 2.60883C20.7646 2.76168 21.0034 3.25804 21.2341 3.73857C21.4512 4.29074 21.7853 4.78774 22.2126 5.19419C22.698 5.52996 23.2504 5.75225 23.8305 5.84557C24.3385 5.96773 24.8637 6.09391 25.0727 6.35837C25.2818 6.62282 25.2919 7.17126 25.2992 7.70208C25.2647 8.29951 25.3604 8.89753 25.5786 9.45375C25.8757 9.96407 26.278 10.4037 26.7579 10.7425C27.1763 11.0879 27.6092 11.4454 27.6917 11.8001C27.7743 12.1547 27.5462 12.6784 27.3267 13.1859C27.0434 13.7328 26.8744 14.3337 26.831 14.9503C26.8741 15.5669 27.0428 16.1678 27.3264 16.7147C27.5456 17.2222 27.773 17.7471 27.6914 18.1008C27.6098 18.4546 27.1761 18.812 26.7572 19.1577C26.278 19.4969 25.876 19.9365 25.5786 20.4468C25.3604 21.003 25.265 21.6011 25.2996 22.1985C25.2913 22.7293 25.2824 23.2777 25.0731 23.5422C24.8637 23.8067 24.3385 23.9335 23.8308 24.0556C23.2504 24.1505 22.6974 24.3746 22.2126 24.712C21.7859 25.1187 21.4524 25.6157 21.2363 26.1676C21.0052 26.6481 20.7664 27.1454 20.4599 27.2973C20.153 27.4492 19.6159 27.3395 19.0963 27.2328C18.6078 27.1057 18.1034 27.0555 17.6 27.0828H17.5795C17.4955 27.0927 17.4123 27.1076 17.3301 27.1271C16.7695 27.3057 16.2515 27.5999 15.8083 27.9912ZM23.9659 34.075C23.6743 33.9181 23.3127 34.0303 23.1578 34.3258L21.3277 37.819L18.4694 28.3431C18.5978 28.3664 18.728 28.3924 18.8573 28.4191C19.5396 28.5592 20.3129 28.7177 20.9845 28.3835C21.6557 28.0492 22.0045 27.33 22.3093 26.6944C22.4591 26.3096 22.6788 25.9568 22.9579 25.6548C23.3103 25.4434 23.6992 25.302 24.1036 25.2381L24.1785 25.2205L27.4094 35.9321L23.9659 34.075Z" fill="black"/>
<path d="M14.5373 17.7482L18.4418 12.84C18.6393 12.579 18.5953 12.2057 18.3431 11.9989C18.0907 11.7924 17.7223 11.8271 17.5123 12.0779L13.9883 16.5071L11.9076 14.7489C11.6539 14.5347 11.2773 14.5697 11.0661 14.8267C10.8549 15.0838 10.8894 15.466 11.1428 15.68L13.6893 17.8325C13.7966 17.9234 13.932 17.9733 14.0717 17.9733C14.0913 17.9733 14.1112 17.9723 14.131 17.9705C14.2903 17.9544 14.4364 17.8744 14.5373 17.7482Z" fill="#F99C1B"/>
</svg>
