<svg width="40" height="40" viewBox="0 0 40 40" fill="none" xmlns="http://www.w3.org/2000/svg">
<path d="M20.0801 0.993671L20.0804 0.99367C22.6738 0.984876 25.2429 1.47883 27.6379 2.44666C30.0329 3.41449 32.2058 4.83679 34.03 6.63046L34.0303 6.63081C37.7513 10.2529 39.8001 15.075 39.8001 20.2069C39.8001 30.7793 30.9474 39.4008 20.0801 39.4008C16.7765 39.4008 13.5326 38.5871 10.647 37.0567L10.6128 37.0385L10.5753 37.0481L0.243054 39.6919L2.9964 29.8516L3.00787 29.8106L2.98626 29.7739C1.27517 26.8687 0.360098 23.5764 0.360098 20.1875C0.360098 9.61514 9.21277 0.993671 20.0801 0.993671ZM11.6297 34.0774L11.6303 34.0777C14.1854 35.5466 17.1026 36.33 20.0801 36.33C29.2124 36.33 36.6601 29.104 36.6201 20.2069C36.6282 18.0852 36.2035 15.983 35.3709 14.0223C34.5383 12.0616 33.3143 10.2814 31.7699 8.78491C28.6509 5.72923 24.4857 4.045 20.0601 4.045C10.9274 4.045 3.4801 11.2908 3.4801 20.1875L3.4801 20.1876C3.48239 23.2231 4.36121 26.1967 6.01599 28.769L6.01674 28.7702L6.39145 29.3355L4.74381 35.21L4.69702 35.3769L4.86488 35.3339L11.0651 33.7476L11.6297 34.0774ZM15.1534 19.2055L15.1534 19.2055L15.155 19.2081C15.4557 19.696 16.4423 21.2842 17.9345 22.5797C19.5553 23.9897 20.9735 24.5828 21.6575 24.8689C21.7718 24.9167 21.8656 24.9559 21.9364 24.9889C22.1924 25.1184 22.4131 25.1816 22.6138 25.159C22.8191 25.1358 22.9852 25.0251 23.1355 24.8479C23.4164 24.5353 24.3576 23.4438 24.7016 22.9517C24.86 22.7343 25.0019 22.6582 25.1459 22.6427C25.2999 22.626 25.4735 22.6754 25.7055 22.7539C26.0391 22.8873 27.4975 23.579 28.4123 24.0129C28.7121 24.1551 28.9535 24.2696 29.0778 24.3276C29.1806 24.3757 29.2731 24.4172 29.3568 24.4548C29.4818 24.5108 29.5874 24.5582 29.6791 24.6057C29.8298 24.6838 29.9208 24.7519 29.9764 24.8369C29.9973 24.8688 30.022 24.9476 30.0349 25.0822C30.0473 25.212 30.0476 25.3804 30.0305 25.5791C29.9963 25.9764 29.8933 26.4883 29.6864 27.0446L29.6858 27.0461C29.4977 27.5773 28.9278 28.1023 28.267 28.5158C27.6092 28.9274 26.8878 29.2123 26.4262 29.2778C25.573 29.3937 24.5098 29.4503 23.35 29.0867L23.3486 29.0863C22.6307 28.8728 21.7147 28.582 20.5395 28.0779L20.5388 28.0776C15.8256 26.0981 12.6526 21.5852 12.1704 20.8994C12.1482 20.8679 12.1317 20.8444 12.1211 20.8297L12.1211 20.8296L12.1193 20.8273L12.1154 20.8223C11.9899 20.6594 11.4947 20.0168 11.0288 19.124C10.5571 18.2202 10.1201 17.0688 10.1201 15.9043C10.1201 13.753 11.1857 12.6143 11.6976 12.0673C11.7404 12.0215 11.7794 11.9798 11.8135 11.9421C12.2512 11.4794 12.7427 11.3707 13.0601 11.3707H14.0169C14.0597 11.3733 14.1007 11.3739 14.1408 11.3744C14.2614 11.376 14.3736 11.3775 14.5002 11.4367C14.6616 11.5122 14.853 11.6914 15.0479 12.1465C15.4469 13.1175 16.4487 15.4974 16.5711 15.7358C16.6838 15.9551 16.7506 16.1921 16.6106 16.4827C16.5972 16.5087 16.5843 16.534 16.5718 16.5585C16.4332 16.8298 16.336 17.0198 16.125 17.2594C16.0454 17.3499 15.963 17.4469 15.8806 17.5439C15.7086 17.7462 15.5367 17.9486 15.3903 18.091C15.2629 18.2151 15.1204 18.3566 15.0538 18.5369C14.9837 18.7268 15.0024 18.9429 15.1534 19.2055Z" fill="#F7C237" stroke="#000104" stroke-width="0.2"/>
</svg>
