<svg width="17" height="12" viewBox="0 0 17 12" fill="none" xmlns="http://www.w3.org/2000/svg">
<path fill-rule="evenodd" clip-rule="evenodd" d="M7.34676 8.09673V3.37169L11.6691 5.74262L7.34676 8.09673ZM16.8387 2.55364C16.8387 2.55364 16.6827 1.39424 16.2027 0.883904C15.5947 0.214664 14.9123 0.211301 14.5995 0.171786C12.3611 0.00195323 9.00195 0.00195312 9.00195 0.00195312H8.99555C8.99555 0.00195312 5.63716 0.00195323 3.39797 0.171786C3.08517 0.211301 2.40357 0.213823 1.79478 0.883904C1.31478 1.39424 1.15878 2.55364 1.15878 2.55364C1.15878 2.55364 0.998779 3.91398 0.998779 5.27516V6.55058C0.998779 7.91092 1.15878 9.2721 1.15878 9.2721C1.15878 9.2721 1.31478 10.4307 1.79478 10.941C2.40277 11.6111 3.20277 11.5892 3.55877 11.6598C4.83877 11.7885 8.99875 11.828 8.99875 11.828C8.99875 11.828 12.3611 11.823 14.5995 11.6531C14.9123 11.6136 15.5947 11.6111 16.2027 10.941C16.6827 10.4307 16.8387 9.2721 16.8387 9.2721C16.8387 9.2721 16.9987 7.91092 16.9987 6.55058V5.27516C16.9987 3.91398 16.8387 2.55364 16.8387 2.55364Z" fill="#000104"/>
</svg>
