<svg width="32" height="29" viewBox="0 0 32 29" fill="none" xmlns="http://www.w3.org/2000/svg">
<ellipse cx="16" cy="14.5" rx="16" ry="14.5" fill="#DEDEDE"/>
<path fill-rule="evenodd" clip-rule="evenodd" d="M14.348 16.3984V12.1163L18.6704 14.265L14.348 16.3984ZM23.84 11.375C23.84 11.375 23.684 10.3243 23.204 9.86177C22.596 9.25527 21.9136 9.25222 21.6008 9.21641C19.3624 9.0625 16.0032 9.0625 16.0032 9.0625H15.9968C15.9968 9.0625 12.6384 9.0625 10.3992 9.21641C10.0864 9.25222 9.4048 9.25451 8.796 9.86177C8.316 10.3243 8.16 11.375 8.16 11.375C8.16 11.375 8 12.6078 8 13.8414V14.9972C8 16.23 8.16 17.4636 8.16 17.4636C8.16 17.4636 8.316 18.5136 8.796 18.976C9.404 19.5833 10.204 19.5635 10.56 19.6275C11.84 19.7441 16 19.7799 16 19.7799C16 19.7799 19.3624 19.7753 21.6008 19.6214C21.9136 19.5856 22.596 19.5833 23.204 18.976C23.684 18.5136 23.84 17.4636 23.84 17.4636C23.84 17.4636 24 16.23 24 14.9972V13.8414C24 12.6078 23.84 11.375 23.84 11.375Z" fill="#2A2A2A"/>
</svg>
