<svg width="522" height="523" viewBox="0 0 522 523" fill="none" xmlns="http://www.w3.org/2000/svg">
<circle opacity="0.5" cx="261.5" cy="260.5" r="225" stroke="#A6EAFE"/>
<path opacity="0.25" d="M521.5 261.5C521.5 405.647 404.869 522.5 261 522.5C117.131 522.5 0.5 405.647 0.5 261.5C0.5 117.353 117.131 0.5 261 0.5C404.869 0.5 521.5 117.353 521.5 261.5Z" stroke="#9DEAFE"/>
<path opacity="0.5" d="M460.5 261.5C460.5 371.404 371.182 460.5 261 460.5C150.818 460.5 61.5 371.404 61.5 261.5C61.5 151.597 150.818 62.5 261 62.5C371.182 62.5 460.5 151.597 460.5 261.5Z" stroke="#A6EAFE"/>
<circle opacity="0.5" cx="262" cy="261" r="174.5" stroke="#A6EAFE"/>
</svg>
