<svg width="447" height="449" viewBox="0 0 447 449" fill="none" xmlns="http://www.w3.org/2000/svg">
<g opacity="0.5" filter="url(#filter0_f_318_1563)">
<ellipse cx="80.675" cy="80.8543" rx="80.675" ry="80.8543" transform="matrix(-1 0 0 1 297.35 150.405)" fill="#C7D3FF"/>
</g>
<g filter="url(#filter1_f_318_1563)">
<circle cx="271.893" cy="174.607" r="72.6075" fill="url(#paint0_radial_318_1563)" fill-opacity="0.7"/>
</g>
<circle opacity="0.5" cx="248.765" cy="217.993" r="80.3543" stroke="#A6EAFE"/>
<path opacity="0.25" d="M341.67 218.351C341.67 269.859 299.994 311.613 248.587 311.613C197.179 311.613 155.504 269.859 155.504 218.351C155.504 166.843 197.179 125.089 248.587 125.089C299.994 125.089 341.67 166.843 341.67 218.351Z" stroke="#9DEAFE"/>
<path opacity="0.5" d="M319.797 218.351C319.797 257.58 287.916 289.383 248.586 289.383C209.256 289.383 177.375 257.58 177.375 218.351C177.375 179.123 209.256 147.319 248.586 147.319C287.916 147.319 319.797 179.123 319.797 218.351Z" stroke="#A6EAFE"/>
<circle opacity="0.5" cx="248.945" cy="218.172" r="62.2472" stroke="#A6EAFE"/>
<defs>
<filter id="filter0_f_318_1563" x="0" y="14.4049" width="433.35" height="433.708" filterUnits="userSpaceOnUse" color-interpolation-filters="sRGB">
<feFlood flood-opacity="0" result="BackgroundImageFix"/>
<feBlend mode="normal" in="SourceGraphic" in2="BackgroundImageFix" result="shape"/>
<feGaussianBlur stdDeviation="68" result="effect1_foregroundBlur_318_1563"/>
</filter>
<filter id="filter1_f_318_1563" x="97.2852" y="0" width="349.215" height="349.215" filterUnits="userSpaceOnUse" color-interpolation-filters="sRGB">
<feFlood flood-opacity="0" result="BackgroundImageFix"/>
<feBlend mode="normal" in="SourceGraphic" in2="BackgroundImageFix" result="shape"/>
<feGaussianBlur stdDeviation="51" result="effect1_foregroundBlur_318_1563"/>
</filter>
<radialGradient id="paint0_radial_318_1563" cx="0" cy="0" r="1" gradientUnits="userSpaceOnUse" gradientTransform="translate(245.517 183.795) rotate(-15.1314) scale(180.516)">
<stop stop-color="#D2F2E1"/>
<stop offset="1" stop-color="#9BB4F4" stop-opacity="0"/>
</radialGradient>
</defs>
</svg>
